SplineFontDB: 3.0
FontName: BethEllen-Regular
FullName: Beth Ellen Regular
FamilyName: Beth Ellen
Weight: Book
Copyright: Copyright 2018 The Beth Ellen Project Authors (https://github.com/felipesanches/BethEllen)
Version: 1.016;Fontself Maker 2.1.2
ItalicAngle: 0
UnderlinePosition: -150
UnderlineWidth: 50
Ascent: 800
Descent: 200
InvalidEm: 0
sfntRevision: 0x00010419
LayerCount: 2
Layer: 0 1 "Back" 1
Layer: 1 1 "Fore" 0
XUID: [1021 238 798099342 2637047]
StyleMap: 0x0040
FSType: 0
OS2Version: 4
OS2_WeightWidthSlopeOnly: 0
OS2_UseTypoMetrics: 0
CreationTime: 1519869057
ModificationTime: 1552006063
PfmFamily: 81
TTFWeight: 400
TTFWidth: 5
LineGap: 0
VLineGap: 0
Panose: 0 0 0 0 0 0 0 0 0 0
OS2TypoAscent: 1625
OS2TypoAOffset: 0
OS2TypoDescent: -615
OS2TypoDOffset: 0
OS2TypoLinegap: 0
OS2WinAscent: 969
OS2WinAOffset: 0
OS2WinDescent: 368
OS2WinDOffset: 0
HheadAscent: 1625
HheadAOffset: 0
HheadDescent: -615
HheadDOffset: 0
OS2SubXSize: 650
OS2SubYSize: 699
OS2SubXOff: 0
OS2SubYOff: 140
OS2SupXSize: 650
OS2SupYSize: 699
OS2SupXOff: 0
OS2SupYOff: 479
OS2StrikeYSize: 49
OS2StrikeYPos: 258
OS2CapHeight: 724
OS2XHeight: 389
OS2Vendor: 'XXXX'
OS2CodePages: 00000001.00000000
OS2UnicodeRanges: 80000003.10000008.00000000.00000000
Lookup: 1 0 0 "'aalt' Access All Alternates lookup 0" { "'aalt' Access All Alternates lookup 0 subtable"  } ['aalt' ('DFLT' <'dflt' > ) ]
Lookup: 3 0 0 "'aalt' Access All Alternates lookup 1" { "'aalt' Access All Alternates lookup 1 subtable"  } ['aalt' ('DFLT' <'dflt' > ) ]
Lookup: 4 0 1 "'liga' Standard Ligatures lookup 2" { "'liga' Standard Ligatures lookup 2 subtable"  } ['liga' ('DFLT' <'dflt' > ) ]
DEI: 91125
TtTable: prep
PUSHW_1
 511
SCANCTRL
PUSHB_1
 4
SCANTYPE
EndTTInstrs
ShortTable: maxp 16
  1
  0
  128
  1010
  19
  0
  0
  2
  0
  1
  1
  0
  64
  0
  0
  0
EndShort

StartChar: exclam
Encoding: 33 33 6
Width: 514
GlyphClass: 2
Flags: W
LayerCount: 2
Fore
SplineSet
97.5 -44 m 128,-1,1
 82 -11 82 -11 101 26 c 0,2,3
 111 44 111 44 126 39 c 0,4,5
 130 39 130 39 147 35 c 256,6,7
 164 31 164 31 173 30 c 0,8,9
 196 24 196 24 214 3 c 128,-1,10
 232 -18 232 -18 225 -35 c 0,11,12
 219 -51 219 -51 195 -64 c 128,-1,13
 171 -77 171 -77 152 -77 c 0,14,0
 113 -77 113 -77 97.5 -44 c 128,-1,1
320 709 m 0,15,16
 326 740 326 740 342 742 c 0,17,18
 360 749 360 749 365.5 748 c 128,-1,19
 371 747 371 747 375 740 c 0,20,21
 380 730 380 730 402 730 c 0,22,23
 421 730 421 730 432 727 c 128,-1,24
 443 724 443 724 452.5 715.5 c 128,-1,25
 462 707 462 707 468 692 c 0,26,27
 479 674 479 674 479 666 c 128,-1,28
 479 658 479 658 468 642 c 0,29,30
 454 617 454 617 439 558 c 0,31,32
 425 497 425 497 407 461 c 0,33,34
 392 431 392 431 384 398 c 0,35,36
 369 325 369 325 314 250 c 0,37,38
 283 212 283 212 280 167 c 0,39,40
 276 126 276 126 266 112 c 128,-1,41
 256 98 256 98 232 98 c 0,42,43
 198 98 198 98 177.5 126.5 c 128,-1,44
 157 155 157 155 179 172 c 0,45,46
 194 185 194 185 198 213 c 0,47,48
 203 234 203 234 223 299 c 0,49,50
 236 342 236 342 276 505 c 0,51,52
 315 668 315 668 320 709 c 0,15,16
EndSplineSet
EndChar

StartChar: quotedbl
Encoding: 34 34 7
Width: 436
GlyphClass: 2
Flags: W
LayerCount: 2
Fore
SplineSet
152 584 m 128,-1,1
 153 574 153 574 164 560 c 0,2,3
 184 537 184 537 180 521 c 128,-1,4
 176 505 176 505 146 481 c 2,5,-1
 109 454 l 1,6,7
 97 455 97 455 73.5 470 c 128,-1,8
 50 485 50 485 46 493 c 0,9,10
 9 596 9 596 77 691 c 0,11,12
 95 716 95 716 109 721 c 128,-1,13
 123 726 123 726 145 713 c 0,14,15
 162 703 162 703 166 677.5 c 128,-1,16
 170 652 170 652 159 618 c 0,17,0
 151 594 151 594 152 584 c 128,-1,1
384 560 m 0,18,19
 404 537 404 537 400 521 c 128,-1,20
 396 505 396 505 366 481 c 2,21,-1
 329 454 l 1,22,23
 317 455 317 455 293.5 470 c 128,-1,24
 270 485 270 485 266 493 c 0,25,26
 229 596 229 596 296 691 c 0,27,28
 315 716 315 716 329 721 c 128,-1,29
 343 726 343 726 365 713 c 0,30,31
 382 703 382 703 386 677.5 c 128,-1,32
 390 652 390 652 379 618 c 0,33,34
 371 594 371 594 372 584 c 128,-1,35
 373 574 373 574 384 560 c 0,18,19
EndSplineSet
Substitution2: "'aalt' Access All Alternates lookup 0 subtable" quotedbl.alt1
EndChar

StartChar: numbersign
Encoding: 35 35 8
Width: 736
GlyphClass: 2
Flags: W
LayerCount: 2
Fore
SplineSet
511 516 m 0,0,1
 525 551 525 551 525 565 c 0,2,3
 525 585 525 585 553 615 c 0,4,5
 585 651 585 651 597 619 c 0,6,7
 602 603 602 603 560 488 c 0,8,9
 517 375 517 375 514 351 c 0,10,11
 512 337 512 337 531 334 c 0,12,13
 549 331 549 331 649 337 c 0,14,15
 681 338 681 338 694.5 328 c 128,-1,16
 708 318 708 318 697 301 c 0,17,18
 690 291 690 291 670.5 287.5 c 128,-1,19
 651 284 651 284 591 284 c 0,20,21
 499 284 499 284 490 275 c 128,-1,22
 481 266 481 266 478 243 c 0,23,24
 475 226 475 226 482.5 222.5 c 128,-1,25
 490 219 490 219 527 217 c 0,26,27
 579 214 579 214 595 197 c 0,28,29
 632 156 632 156 554 156 c 2,30,-1
 528 156 l 1,31,32
 465 160 465 160 450.5 148 c 128,-1,33
 436 136 436 136 405 47 c 0,34,35
 390 -2 390 -2 375 -36 c 128,-1,36
 360 -70 360 -70 349 -85 c 128,-1,37
 338 -100 338 -100 330 -96 c 0,38,39
 306 -81 306 -81 341 3 c 0,40,41
 384 115 384 115 387 139 c 0,42,43
 387 140 387 140 381 140 c 2,44,-1
 366 140 l 1,45,-1
 346 140 l 2,46,47
 335 140 335 140 322 139 c 256,48,49
 309 138 309 138 298 137 c 128,-1,50
 287 136 287 136 277 135 c 256,51,52
 267 134 267 134 262 132 c 0,53,54
 244 128 244 128 233 116.5 c 128,-1,55
 222 105 222 105 205 72 c 0,56,57
 180 19 180 19 167 12 c 0,58,59
 151 8 151 8 148 29 c 0,60,61
 147 49 147 49 157 81 c 0,62,63
 167 110 167 110 166 118 c 128,-1,64
 165 126 165 126 155 128 c 0,65,66
 122 139 122 139 110 147 c 128,-1,67
 98 155 98 155 101 167 c 0,68,69
 103 182 103 182 145 185 c 0,70,71
 186 189 186 189 197 197 c 0,72,73
 206 205 206 205 211.5 228.5 c 128,-1,74
 217 252 217 252 211 256 c 256,75,76
 205 260 205 260 145 251 c 0,77,78
 85 243 85 243 74 254 c 0,79,80
 31 289 31 289 127 307 c 0,81,82
 147 310 147 310 176 313 c 2,83,-1
 239 320 l 1,84,-1
 258 363 l 2,85,86
 277 406 277 406 279 436 c 0,87,88
 283 471 283 471 308.5 495 c 128,-1,89
 334 519 334 519 354 503 c 0,90,91
 362 497 362 497 360 485 c 128,-1,92
 358 473 358 473 345 438 c 0,93,94
 324 387 324 387 317 354 c 2,95,-1
 310 326 l 1,96,97
 409 330 409 330 455 331 c 1,98,-1
 475 405 l 2,99,100
 495 478 495 478 511 516 c 0,0,1
419 234.5 m 128,-1,102
 434 262 434 262 428 271 c 0,103,104
 424 277 424 277 363 278.5 c 128,-1,105
 302 280 302 280 287 273 c 0,106,107
 275 271 275 271 275 254 c 0,108,109
 275 238 275 238 264 227 c 0,110,111
 255 217 255 217 260 206 c 0,112,113
 265 198 265 198 318 197 c 128,-1,114
 371 196 371 196 391 202 c 0,115,101
 404 207 404 207 419 234.5 c 128,-1,102
EndSplineSet
EndChar

StartChar: dollar
Encoding: 36 36 9
Width: 735
GlyphClass: 2
Flags: W
LayerCount: 2
Fore
SplineSet
463 667 m 0,0,1
 443 652 443 652 443 625 c 0,2,3
 443 609 443 609 423 567.5 c 128,-1,4
 403 526 403 526 403 512 c 0,5,6
 403 491 403 491 391 486 c 0,7,8
 382 481 382 481 380 475 c 128,-1,9
 378 469 378 469 383.5 461.5 c 128,-1,10
 389 454 389 454 402.5 443.5 c 128,-1,11
 416 433 416 433 439 418 c 0,12,13
 529 357 529 357 574.5 278 c 128,-1,14
 620 199 620 199 593 153 c 0,15,16
 577 124 577 124 516 103.5 c 128,-1,17
 455 83 455 83 378 80 c 0,18,19
 299 76 299 76 284 60.5 c 128,-1,20
 269 45 269 45 267 -36 c 0,21,22
 265 -85 265 -85 254.5 -94.5 c 128,-1,23
 244 -104 244 -104 208 -93 c 2,24,-1
 174 -81 l 1,25,26
 176 -59 176 -59 179.5 -19.5 c 128,-1,27
 183 20 183 20 186 53 c 128,-1,28
 189 86 189 86 192 114 c 1,29,-1
 152 143 l 2,30,31
 118 164 118 164 114.5 190.5 c 128,-1,32
 111 217 111 217 140 240 c 0,33,34
 158 255 158 255 164 255 c 128,-1,35
 170 255 170 255 188 240 c 0,36,37
 210 222 210 222 217 234 c 0,38,39
 226 245 226 245 247 330 c 2,40,-1
 271 421 l 1,41,-1
 242 448 l 2,42,43
 210 481 210 481 194.5 549.5 c 128,-1,44
 179 618 179 618 197 660 c 0,45,46
 204 677 204 677 272.5 724 c 128,-1,47
 341 771 341 771 357 771 c 0,48,49
 382 771 382 771 401.5 801 c 128,-1,50
 421 831 421 831 425 872 c 0,51,52
 432 924 432 924 456 954.5 c 128,-1,53
 480 985 480 985 520 955 c 0,54,55
 534 947 534 947 535 931 c 0,56,57
 536 916 536 916 529 872 c 0,58,59
 520 817 520 817 515 796 c 0,60,61
 511 788 511 788 559 749 c 0,62,63
 602 713 602 713 627 670 c 0,64,65
 640 643 640 643 640 633 c 128,-1,66
 640 623 640 623 627 612 c 0,67,68
 622 607 622 607 606 601 c 256,69,70
 590 595 590 595 571 591 c 128,-1,71
 552 587 552 587 534 585.5 c 128,-1,72
 516 584 516 584 505 584 c 0,73,74
 493 585 493 585 493 589.5 c 128,-1,75
 493 594 493 594 507 620 c 0,76,77
 518 633 518 633 517 641.5 c 128,-1,78
 516 650 516 650 502 662 c 0,79,80
 489 673 489 673 481 674.5 c 128,-1,81
 473 676 473 676 463 667 c 0,0,1
473 277 m 256,82,83
 453 299 453 299 423 318 c 0,84,85
 375 348 375 348 364 352 c 1,86,87
 348 352 348 352 332 327.5 c 128,-1,88
 316 303 316 303 316 282 c 0,89,90
 316 251 316 251 298 207 c 0,91,92
 280 169 280 169 287 159 c 0,93,94
 308 141 308 141 387 158.5 c 128,-1,95
 466 176 466 176 493 206 c 0,96,97
 502 219 502 219 497.5 237 c 128,-1,98
 493 255 493 255 473 277 c 256,82,83
314 560 m 0,99,100
 325 560 325 560 332 584 c 0,101,102
 335 599 335 599 332.5 604.5 c 128,-1,103
 330 610 330 610 323 606 c 128,-1,104
 316 602 316 602 310 589 c 0,105,106
 303 570 303 570 304 565 c 128,-1,107
 305 560 305 560 314 560 c 0,99,100
EndSplineSet
Substitution2: "'aalt' Access All Alternates lookup 0 subtable" dollar.alt1
EndChar

StartChar: percent
Encoding: 37 37 10
Width: 639
GlyphClass: 2
Flags: W
LayerCount: 2
Fore
SplineSet
529 581 m 0,0,1
 534 581 534 581 538.5 577.5 c 128,-1,2
 543 574 543 574 549.5 567 c 128,-1,3
 556 560 556 560 561 557 c 1,4,5
 537 533 537 533 512 506.5 c 128,-1,6
 487 480 487 480 468 458.5 c 128,-1,7
 449 437 449 437 423.5 404.5 c 128,-1,8
 398 372 398 372 384.5 354 c 128,-1,9
 371 336 371 336 344 298 c 128,-1,10
 317 260 317 260 307.5 247 c 128,-1,11
 298 234 298 234 268.5 191 c 128,-1,12
 239 148 239 148 232 138 c 0,13,14
 193 81 193 81 135 24 c 0,15,16
 115 5 115 5 104 1.5 c 128,-1,17
 93 -2 93 -2 81.5 6.5 c 128,-1,18
 70 15 70 15 47 42 c 1,19,20
 56 52 56 52 74.5 72.5 c 128,-1,21
 93 93 93 93 107.5 109 c 128,-1,22
 122 125 122 125 134 141 c 0,23,24
 265 307 265 307 447 542 c 0,25,26
 480 585 480 585 529 581 c 0,0,1
546 302 m 1,27,28
 598 288 598 288 603 268.5 c 128,-1,29
 608 249 608 249 571 198 c 0,30,31
 558 180 558 180 559 174 c 0,32,33
 562 161 562 161 562.5 149 c 128,-1,34
 563 137 563 137 561 127 c 128,-1,35
 559 117 559 117 555 106.5 c 128,-1,36
 551 96 551 96 546.5 87.5 c 128,-1,37
 542 79 542 79 534.5 68.5 c 128,-1,38
 527 58 527 58 521.5 51 c 128,-1,39
 516 44 516 44 507 34 c 0,40,41
 503 29 503 29 500.5 22.5 c 128,-1,42
 498 16 498 16 495.5 9 c 128,-1,43
 493 2 493 2 492 1 c 0,44,45
 487 2 487 2 477 5.5 c 128,-1,46
 467 9 467 9 459 11 c 128,-1,47
 451 13 451 13 444 14 c 0,48,49
 418 15 418 15 401.5 29.5 c 128,-1,50
 385 44 385 44 382 68 c 0,51,52
 371 148 371 148 381 200 c 0,53,54
 386 220 386 220 439 252 c 0,55,56
 452 260 452 260 468 267.5 c 128,-1,57
 484 275 484 275 508 285.5 c 128,-1,58
 532 296 532 296 546 302 c 1,27,28
445 89 m 1,59,60
 469 99 469 99 479 119 c 128,-1,61
 489 139 489 139 494 165.5 c 128,-1,62
 499 192 499 192 509 206 c 1,63,64
 447 185 447 185 436.5 165.5 c 128,-1,65
 426 146 426 146 445 89 c 1,59,60
226 373 m 0,66,67
 217 355 217 355 203 343 c 128,-1,68
 189 331 189 331 170.5 325 c 128,-1,69
 152 319 152 319 135.5 316.5 c 128,-1,70
 119 314 119 314 98 314 c 0,71,72
 60 313 60 313 42.5 336 c 128,-1,73
 25 359 25 359 39 392 c 0,74,75
 63 447 63 447 127 527 c 0,76,77
 159 567 159 567 232 550 c 1,78,79
 249 535 249 535 257.5 518 c 128,-1,80
 266 501 266 501 268.5 488.5 c 128,-1,81
 271 476 271 476 265.5 457.5 c 128,-1,82
 260 439 260 439 256 430 c 128,-1,83
 252 421 252 421 240.5 400.5 c 128,-1,84
 229 380 229 380 226 373 c 0,66,67
184 450 m 1,85,86
 141 453 141 453 129.5 443.5 c 128,-1,87
 118 434 118 434 99 379 c 1,88,89
 136 378 136 378 157 394.5 c 128,-1,90
 178 411 178 411 184 450 c 1,85,86
EndSplineSet
EndChar

StartChar: ampersand
Encoding: 38 38 11
Width: 644
GlyphClass: 2
Flags: W
LayerCount: 2
Fore
SplineSet
298 188 m 0,0,1
 301 184 301 184 373 101 c 1,2,3
 379 119 379 119 390 146 c 128,-1,4
 401 173 401 173 407 191.5 c 128,-1,5
 413 210 413 210 416 227 c 0,6,7
 423 276 423 276 405.5 291.5 c 128,-1,8
 388 307 388 307 332 301 c 1,9,10
 324 346 324 346 365 356 c 0,11,12
 366 356 366 356 372 357 c 0,13,14
 385 357 385 357 412.5 356 c 128,-1,15
 440 355 440 355 460 356.5 c 128,-1,16
 480 358 480 358 498 363 c 0,17,18
 511 367 511 367 525.5 375 c 128,-1,19
 540 383 540 383 551.5 391 c 128,-1,20
 563 399 563 399 580.5 411.5 c 128,-1,21
 598 424 598 424 610 432 c 1,22,23
 608 402 608 402 594.5 380 c 128,-1,24
 581 358 581 358 567 349.5 c 128,-1,25
 553 341 553 341 528 329.5 c 128,-1,26
 503 318 503 318 494 312 c 1,27,28
 449 142 449 142 426 54 c 1,29,30
 435 46 435 46 455 32 c 128,-1,31
 475 18 475 18 487 8.5 c 128,-1,32
 499 -1 499 -1 510 -21.5 c 128,-1,33
 521 -42 521 -42 522 -68 c 1,34,35
 514 -65 514 -65 498 -62 c 128,-1,36
 482 -59 482 -59 471.5 -56 c 128,-1,37
 461 -53 461 -53 452 -48 c 0,38,39
 450 -47 450 -47 445 -44 c 0,40,41
 416 -28 416 -28 401 -22 c 128,-1,42
 386 -16 386 -16 359 -15.5 c 128,-1,43
 332 -15 332 -15 304 -28 c 0,44,45
 254 -48 254 -48 200 -41.5 c 128,-1,46
 146 -35 146 -35 93 -7 c 0,47,48
 58 11 58 11 42.5 45.5 c 128,-1,49
 27 80 27 80 38 120 c 0,50,51
 60 200 60 200 96 266 c 0,52,53
 125 320 125 320 101 372 c 0,54,55
 75 428 75 428 67 470 c 0,56,57
 53 538 53 538 89 600.5 c 128,-1,58
 125 663 125 663 190 687 c 0,59,60
 217 696 217 696 249.5 677 c 128,-1,61
 282 658 282 658 295 624 c 0,62,63
 338 513 338 513 274 416 c 0,64,65
 271 412 271 412 265 402 c 0,66,67
 244 372 244 372 236 359.5 c 128,-1,68
 228 347 228 347 220 329.5 c 128,-1,69
 212 312 212 312 211.5 307 c 128,-1,70
 211 302 211 302 215.5 289.5 c 128,-1,71
 220 277 220 277 225.5 271 c 128,-1,72
 231 265 231 265 246 248 c 0,73,74
 277 214 277 214 298 188 c 0,0,1
336 42 m 1,75,76
 304 77 304 77 245 141 c 128,-1,77
 186 205 186 205 161 233 c 1,78,79
 154 218 154 218 143.5 195.5 c 128,-1,80
 133 173 133 173 127 158.5 c 128,-1,81
 121 144 121 144 118 131 c 0,82,83
 99 50 99 50 188 19 c 0,84,85
 202 14 202 14 216 13 c 128,-1,86
 230 12 230 12 245.5 15 c 128,-1,87
 261 18 261 18 273 21.5 c 128,-1,88
 285 25 285 25 304.5 31.5 c 128,-1,89
 324 38 324 38 336 42 c 1,75,76
170 393 m 1,90,91
 215 460 215 460 221.5 510.5 c 128,-1,92
 228 561 228 561 198 610 c 1,93,94
 133 576 133 576 125.5 518 c 128,-1,95
 118 460 118 460 170 393 c 1,90,91
EndSplineSet
EndChar

StartChar: quotesingle
Encoding: 39 39 12
Width: 261
GlyphClass: 2
Flags: W
LayerCount: 2
Fore
SplineSet
60.5 769 m 128,-1,1
 64 785 64 785 93 810 c 2,2,-1
 129 839 l 1,3,4
 141 839 141 839 165 825 c 128,-1,5
 189 811 189 811 193 803 c 0,6,7
 236 701 236 701 172 604 c 0,8,9
 155 577 155 577 141 572 c 128,-1,10
 127 567 127 567 105 579 c 0,11,12
 88 588 88 588 82.5 613 c 128,-1,13
 77 638 77 638 86 672 c 0,14,15
 93 698 93 698 91.5 707.5 c 128,-1,16
 90 717 90 717 78 731 c 0,17,0
 57 753 57 753 60.5 769 c 128,-1,1
EndSplineSet
Substitution2: "'aalt' Access All Alternates lookup 0 subtable" quotesingle.alt1
EndChar

StartChar: parenleft
Encoding: 40 40 13
Width: 350
GlyphClass: 2
Flags: W
LayerCount: 2
Fore
SplineSet
148 551 m 0,0,1
 170 594 170 594 206.5 619.5 c 128,-1,2
 243 645 243 645 300 668 c 1,3,4
 334 626 334 626 293 598 c 0,5,6
 275 586 275 586 258.5 570.5 c 128,-1,7
 242 555 242 555 229.5 541.5 c 128,-1,8
 217 528 217 528 203.5 507 c 128,-1,9
 190 486 190 486 182 473.5 c 128,-1,10
 174 461 174 461 161.5 435.5 c 128,-1,11
 149 410 149 410 144 399.5 c 128,-1,12
 139 389 139 389 126 359.5 c 128,-1,13
 113 330 113 330 109 322 c 0,14,15
 78 252 78 252 106 194 c 128,-1,16
 134 136 134 136 218 93 c 0,17,18
 221 91 221 91 229.5 87 c 128,-1,19
 238 83 238 83 241.5 81 c 128,-1,20
 245 79 245 79 252 75 c 128,-1,21
 259 71 259 71 262.5 68 c 128,-1,22
 266 65 266 65 271 59.5 c 128,-1,23
 276 54 276 54 278.5 49 c 128,-1,24
 281 44 281 44 283 37 c 128,-1,25
 285 30 285 30 286 22 c 1,26,27
 220 -22 220 -22 158 22 c 0,28,29
 75 80 75 80 45.5 184 c 128,-1,30
 16 288 16 288 57 379 c 0,31,32
 72 412 72 412 104.5 470 c 128,-1,33
 137 528 137 528 148 551 c 0,0,1
EndSplineSet
EndChar

StartChar: parenright
Encoding: 41 41 14
Width: 358
GlyphClass: 2
Flags: W
LayerCount: 2
Fore
SplineSet
161 601 m 0,0,1
 153 614 153 614 138.5 625 c 128,-1,2
 124 636 124 636 102.5 650 c 128,-1,3
 81 664 81 664 69 672 c 1,4,5
 95 715 95 715 110.5 720 c 128,-1,6
 126 725 126 725 159 701 c 0,7,8
 257 629 257 629 268 531 c 0,9,10
 271 504 271 504 289.5 455.5 c 128,-1,11
 308 407 308 407 311 396 c 0,12,13
 326 348 326 348 322 324 c 0,14,15
 299 182 299 182 209 102 c 0,16,17
 195 90 195 90 162.5 62 c 128,-1,18
 130 34 130 34 112 18 c 0,19,20
 92 -2 92 -2 72.5 0 c 128,-1,21
 53 2 53 2 33 28 c 1,22,23
 45 44 45 44 69.5 76 c 128,-1,24
 94 108 94 108 114 132.5 c 128,-1,25
 134 157 134 157 153 179 c 0,26,27
 207 239 207 239 224 314.5 c 128,-1,28
 241 390 241 390 223.5 462 c 128,-1,29
 206 534 206 534 161 601 c 0,0,1
EndSplineSet
EndChar

StartChar: asterisk
Encoding: 42 42 15
Width: 497
GlyphClass: 2
Flags: W
LayerCount: 2
Fore
SplineSet
104 495 m 1,0,1
 99 500 99 500 87.5 502.5 c 128,-1,2
 76 505 76 505 66.5 506.5 c 128,-1,3
 57 508 57 508 47.5 514 c 128,-1,4
 38 520 38 520 35.5 530.5 c 128,-1,5
 33 541 33 541 36 562 c 1,6,7
 52 563 52 563 81 565 c 128,-1,8
 110 567 110 567 126 568 c 1,9,10
 122 593 122 593 124 608 c 128,-1,11
 126 623 126 623 136.5 640 c 128,-1,12
 147 657 147 657 158 668 c 128,-1,13
 169 679 169 679 182.5 695 c 128,-1,14
 196 711 196 711 204 726 c 1,15,16
 215 719 215 719 236.5 706.5 c 128,-1,17
 258 694 258 694 271 688 c 1,18,19
 247 632 247 632 236 603 c 1,20,21
 265 619 265 619 299 617.5 c 128,-1,22
 333 616 333 616 355.5 608 c 128,-1,23
 378 600 378 600 409 591 c 128,-1,24
 440 582 440 582 464 583 c 1,25,26
 464 580 464 580 463.5 573 c 128,-1,27
 463 566 463 566 463 563 c 0,28,29
 437 558 437 558 378.5 546.5 c 128,-1,30
 320 535 320 535 284 528 c 1,31,32
 335 480 335 480 339 477 c 0,33,34
 340 476 340 476 353.5 466 c 128,-1,35
 367 456 367 456 372 449 c 0,36,37
 376 442 376 442 376.5 431.5 c 128,-1,38
 377 421 377 421 373 414 c 0,39,40
 370 408 370 408 359.5 404 c 128,-1,41
 349 400 349 400 342 402 c 0,42,43
 333 404 333 404 261 428 c 1,44,45
 250 367 250 367 246 349 c 1,46,47
 233 345 233 345 221.5 348.5 c 128,-1,48
 210 352 210 352 204 354.5 c 128,-1,49
 198 357 198 357 192 365.5 c 128,-1,50
 186 374 186 374 183.5 380 c 128,-1,51
 181 386 181 386 177 396 c 128,-1,52
 173 406 173 406 170 411 c 1,53,54
 160 406 160 406 148 401.5 c 128,-1,55
 136 397 136 397 119.5 390 c 128,-1,56
 103 383 103 383 90 378 c 1,57,58
 97 442 97 442 104 495 c 1,0,1
EndSplineSet
AlternateSubs2: "'aalt' Access All Alternates lookup 1 subtable" asterisk.alt1 asterisk.alt2 asterisk.alt3 asterisk.alt4 asterisk.alt5 asterisk.alt6 asterisk.alt7 asterisk.alt8 asterisk.alt9 asterisk.alt10 asterisk.alt11
EndChar

StartChar: plus
Encoding: 43 43 16
Width: 486
GlyphClass: 2
Flags: W
LayerCount: 2
Fore
SplineSet
338 371 m 0,0,1
 333 354 333 354 293 231 c 1,2,3
 373 240 373 240 380 241 c 0,4,5
 413 243 413 243 430 238 c 0,6,7
 437 236 437 236 444.5 227.5 c 128,-1,8
 452 219 452 219 451 213 c 0,9,10
 451 207 451 207 443.5 199 c 128,-1,11
 436 191 436 191 429 190 c 0,12,13
 416 187 416 187 400.5 185 c 128,-1,14
 385 183 385 183 373 181.5 c 128,-1,15
 361 180 361 180 344.5 178 c 128,-1,16
 328 176 328 176 317 175 c 0,17,18
 314 174 314 174 269 166 c 1,19,20
 266 155 266 155 259 130 c 128,-1,21
 252 105 252 105 247.5 86.5 c 128,-1,22
 243 68 243 68 239 51 c 0,23,24
 237 40 237 40 235.5 35 c 128,-1,25
 234 30 234 30 230.5 21 c 128,-1,26
 227 12 227 12 223 8.5 c 128,-1,27
 219 5 219 5 212 2 c 128,-1,28
 205 -1 205 -1 196 0 c 0,29,30
 155 6 155 6 161 65 c 0,31,32
 161 72 161 72 175 158 c 1,33,-1
 33 158 l 1,34,35
 39 165 39 165 46 174.5 c 128,-1,36
 53 184 53 184 57 188.5 c 128,-1,37
 61 193 61 193 66 195 c 0,38,39
 116 211 116 211 146 210 c 0,40,41
 171 210 171 210 184.5 221 c 128,-1,42
 198 232 198 232 206 255 c 0,43,44
 209 262 209 262 213.5 275.5 c 128,-1,45
 218 289 218 289 221 297.5 c 128,-1,46
 224 306 224 306 229 317.5 c 128,-1,47
 234 329 234 329 240 338 c 0,48,49
 257 367 257 367 296 406 c 0,50,51
 301 410 301 410 313.5 411.5 c 128,-1,52
 326 413 326 413 329 410 c 0,53,54
 343 390 343 390 338 371 c 0,0,1
EndSplineSet
EndChar

StartChar: comma
Encoding: 44 44 17
Width: 288
GlyphClass: 2
Flags: W
LayerCount: 2
Fore
SplineSet
104.5 82.5 m 128,-1,1
 108 98 108 98 137 123 c 2,2,-1
 173 152 l 1,3,4
 185 152 185 152 209 138.5 c 128,-1,5
 233 125 233 125 237 117 c 0,6,7
 280 15 280 15 216 -82 c 0,8,9
 199 -109 199 -109 185 -114 c 128,-1,10
 171 -119 171 -119 149 -108 c 0,11,12
 132 -98 132 -98 126.5 -73 c 128,-1,13
 121 -48 121 -48 130 -14 c 0,14,15
 137 11 137 11 135.5 21 c 128,-1,16
 134 31 134 31 122 44 c 0,17,0
 101 67 101 67 104.5 82.5 c 128,-1,1
EndSplineSet
EndChar

StartChar: hyphen
Encoding: 45 45 18
Width: 451
GlyphClass: 2
Flags: W
LayerCount: 2
Fore
SplineSet
95 11 m 0,0,1
 71 12 71 12 55 23.5 c 128,-1,2
 39 35 39 35 33 66 c 1,3,4
 192 57 192 57 204 57 c 0,5,6
 228 56 228 56 275 55 c 128,-1,7
 322 54 322 54 345 53 c 0,8,9
 347 53 347 53 355.5 53 c 128,-1,10
 364 53 364 53 367.5 52.5 c 128,-1,11
 371 52 371 52 378.5 51 c 128,-1,12
 386 50 386 50 390 47.5 c 128,-1,13
 394 45 394 45 399.5 41 c 128,-1,14
 405 37 405 37 409 30.5 c 128,-1,15
 413 24 413 24 416 16 c 1,16,17
 411 14 411 14 401 9.5 c 128,-1,18
 391 5 391 5 384 2.5 c 128,-1,19
 377 0 377 0 371 0 c 0,20,21
 269 3 269 3 95 11 c 0,0,1
EndSplineSet
EndChar

StartChar: period
Encoding: 46 46 19
Width: 290
GlyphClass: 2
Flags: W
LayerCount: 2
Fore
SplineSet
90 75.5 m 128,-1,1
 97 106 97 106 111 116 c 0,2,3
 126 128 126 128 153.5 127 c 128,-1,4
 181 126 181 126 205 114 c 0,5,6
 229 100 229 100 231.5 91.5 c 128,-1,7
 234 83 234 83 221 52 c 0,8,9
 206 19 206 19 191 9 c 128,-1,10
 176 -1 176 -1 142 0 c 0,11,12
 103 1 103 1 103 17.5 c 128,-1,13
 103 34 103 34 93 40 c 0,14,0
 83 45 83 45 90 75.5 c 128,-1,1
EndSplineSet
EndChar

StartChar: slash
Encoding: 47 47 20
Width: 666
GlyphClass: 2
Flags: W
LayerCount: 2
Fore
SplineSet
603 776 m 128,-1,1
 631 761 631 761 631 750 c 0,2,3
 631 742 631 742 603 702.5 c 128,-1,4
 575 663 575 663 575 656 c 0,5,6
 575 644 575 644 557 627 c 0,7,8
 540 612 540 612 525 586 c 0,9,10
 502 540 502 540 461 466 c 0,11,12
 408 368 408 368 408 362 c 0,13,14
 408 352 408 352 350.5 254 c 128,-1,15
 293 156 293 156 252 95 c 0,16,17
 201 19 201 19 161 -63 c 128,-1,18
 121 -145 121 -145 113 -190 c 0,19,20
 107 -232 107 -232 89 -240 c 128,-1,21
 71 -248 71 -248 48 -218 c 0,22,23
 34 -200 34 -200 33 -189.5 c 128,-1,24
 32 -179 32 -179 42 -146 c 0,25,26
 73 -38 73 -38 186 135 c 0,27,28
 260 247 260 247 276 279 c 0,29,30
 330 380 330 380 355 428.5 c 128,-1,31
 380 477 380 477 389 501 c 128,-1,32
 398 525 398 525 398 539 c 0,33,34
 398 568 398 568 422 601 c 0,35,36
 442 630 442 630 444 643.5 c 128,-1,37
 446 657 446 657 435 685 c 0,38,39
 429 705 429 705 430 705 c 128,-1,40
 431 705 431 705 437 699 c 0,41,42
 457 681 457 681 472.5 690 c 128,-1,43
 488 699 488 699 505 739 c 0,44,45
 520 771 520 771 528.5 781 c 128,-1,46
 537 791 537 791 553 791 c 0,47,0
 575 791 575 791 603 776 c 128,-1,1
EndSplineSet
EndChar

StartChar: zero
Encoding: 48 48 21
Width: 438
GlyphClass: 2
Flags: W
LayerCount: 2
Fore
SplineSet
209 588 m 0,0,1
 214 601 214 601 262 624 c 0,2,3
 332 657 332 657 378 639 c 0,4,5
 398 632 398 632 402 616.5 c 128,-1,6
 406 601 406 601 397 568 c 0,7,8
 387 529 387 529 385 491 c 0,9,10
 384 468 384 468 380 437 c 256,11,12
 376 406 376 406 370 379 c 0,13,14
 365 352 365 352 360 343 c 256,15,16
 355 334 355 334 336 285 c 128,-1,17
 317 236 317 236 311 217 c 0,18,19
 305 200 305 200 313.5 188 c 128,-1,20
 322 176 322 176 337 179 c 0,21,22
 346 182 346 182 349 180 c 128,-1,23
 352 178 352 178 350 169 c 0,24,25
 347 155 347 155 331 156 c 0,26,27
 315 158 315 158 306 133 c 0,28,29
 283 75 283 75 254 29 c 128,-1,30
 225 -17 225 -17 210 -17 c 0,31,32
 200 -17 200 -17 192 -28 c 0,33,34
 182 -39 182 -39 140 -44 c 0,35,36
 55 -55 55 -55 37 8 c 0,37,38
 29 43 29 43 36.5 124 c 128,-1,39
 44 205 44 205 61 246 c 0,40,41
 69 262 69 262 71 281 c 0,42,43
 78 309 78 309 90 351 c 256,44,45
 102 393 102 393 107 399 c 0,46,47
 114 410 114 410 118 430 c 0,48,49
 123 454 123 454 146 483 c 0,50,51
 169 515 169 515 169 520 c 0,52,53
 169 528 169 528 186 550 c 0,54,55
 202 572 202 572 209 588 c 0,0,1
293 511 m 0,56,57
 289 521 289 521 288 527 c 0,58,59
 283 540 283 540 274.5 540 c 128,-1,60
 266 540 266 540 262 527 c 0,61,62
 256 512 256 512 213 456 c 0,63,64
 169 398 169 398 169 391 c 0,65,66
 169 382 169 382 152 330 c 0,67,68
 102 160 102 160 98 78 c 2,69,-1
 96 32 l 1,70,-1
 122 30 l 2,71,72
 147 27 147 27 165 44 c 0,73,74
 190 68 190 68 210.5 106 c 128,-1,75
 231 144 231 144 241 185 c 0,76,77
 254 238 254 238 273 304 c 0,78,79
 290 371 290 371 290 400 c 0,80,81
 290 427 290 427 297 456 c 0,82,83
 302 468 302 468 302 478.5 c 128,-1,84
 302 489 302 489 300 495 c 0,85,86
 297 502 297 502 293 511 c 0,56,57
EndSplineSet
EndChar

StartChar: one
Encoding: 49 49 22
Width: 633
GlyphClass: 2
Flags: W
LayerCount: 2
Fore
SplineSet
383 614 m 0,0,1
 395 614 395 614 419 628 c 0,2,3
 441 643 441 643 504 643 c 2,4,-1
 567 645 l 1,5,-1
 566 584 l 2,6,7
 565 558 565 558 564 545 c 0,8,9
 563 531 563 531 559.5 523.5 c 128,-1,10
 556 516 556 516 550 510 c 0,11,12
 537 496 537 496 528 466 c 0,13,14
 522 442 522 442 497 395.5 c 128,-1,15
 472 349 472 349 465 331 c 0,16,17
 452 295 452 295 437 282 c 128,-1,18
 422 269 422 269 422 261 c 0,19,20
 422 251 422 251 411 240 c 0,21,22
 404 234 404 234 394 209 c 0,23,24
 383 186 383 186 371 161 c 0,25,26
 360 136 360 136 354 130 c 0,27,28
 339 115 339 115 327.5 86.5 c 128,-1,29
 316 58 316 58 322 54 c 256,30,31
 328 50 328 50 373 57 c 0,32,33
 613 95 613 95 613 51 c 0,34,35
 613 43 613 43 603 40 c 0,36,37
 593 38 593 38 561 37 c 0,38,39
 507 33 507 33 445 19 c 0,40,41
 376 3 376 3 356 1 c 0,42,43
 322 -5 322 -5 303 -20 c 128,-1,44
 284 -35 284 -35 264 -74 c 0,45,46
 247 -105 247 -105 239 -115.5 c 128,-1,47
 231 -126 231 -126 220 -126 c 0,48,49
 187 -126 187 -126 180 -74 c 2,50,-1
 176 -45 l 1,51,-1
 120 -48 l 2,52,53
 72 -51 72 -51 52.5 -41.5 c 128,-1,54
 33 -32 33 -32 33 -7 c 0,55,56
 33 -1 33 -1 34 2.5 c 128,-1,57
 35 6 35 6 37 7 c 0,58,59
 40 10 40 10 55 6 c 0,60,61
 74 1 74 1 133 1 c 0,62,63
 187 0 187 0 207.5 12.5 c 128,-1,64
 228 25 228 25 245 70 c 0,65,66
 291 174 291 174 361 321 c 0,67,68
 438 482 438 482 416 484 c 0,69,70
 409 484 409 484 380 461 c 0,71,72
 329 422 329 422 292 453 c 2,73,-1
 274 467 l 1,74,-1
 292 496 l 2,75,76
 312 528 312 528 339 560 c 0,77,78
 369 592 369 592 369 603 c 128,-1,79
 369 614 369 614 383 614 c 0,0,1
EndSplineSet
EndChar

StartChar: two
Encoding: 50 50 23
Width: 621
GlyphClass: 2
Flags: W
LayerCount: 2
Fore
SplineSet
428 635 m 0,0,1
 461 650 461 650 470 653 c 0,2,3
 519 670 519 670 551.5 630 c 128,-1,4
 584 590 584 590 579 517 c 0,5,6
 577 481 577 481 585 454 c 0,7,8
 588 438 588 438 586 431 c 128,-1,9
 584 424 584 424 572 417 c 0,10,11
 552 404 552 404 533 369 c 0,12,13
 476 270 476 270 424 211 c 0,14,15
 340 117 340 117 340 105 c 0,16,17
 340 99 340 99 324 81 c 0,18,19
 292 48 292 48 355 42 c 0,20,21
 378 40 378 40 417 41 c 0,22,23
 471 43 471 43 486 43 c 0,24,25
 507 43 507 43 526.5 30 c 128,-1,26
 546 17 546 17 546 3 c 0,27,28
 546 -13 546 -13 529.5 -25 c 128,-1,29
 513 -37 513 -37 491.5 -35 c 128,-1,30
 470 -33 470 -33 429 -39 c 0,31,32
 392 -46 392 -46 369 -32 c 0,33,34
 362 -28 362 -28 352.5 -24.5 c 128,-1,35
 343 -21 343 -21 332.5 -19 c 128,-1,36
 322 -17 322 -17 314 -16 c 0,37,38
 310 -15 310 -15 292 -12 c 0,39,40
 279 -10 279 -10 270 -9 c 0,41,42
 243 -4 243 -4 205 -21 c 0,43,44
 123 -57 123 -57 67 -29 c 0,45,46
 10 1 10 1 51 41 c 0,47,48
 59 49 59 49 71.5 52 c 128,-1,49
 84 55 84 55 112 54 c 0,50,51
 161 53 161 53 187 67 c 0,52,53
 210 79 210 79 242 111 c 128,-1,54
 274 143 274 143 299 178 c 0,55,56
 318 206 318 206 364 265 c 0,57,58
 499 441 499 441 482 510 c 0,59,60
 477 526 477 526 459 527.5 c 128,-1,61
 441 529 441 529 394 517 c 0,62,63
 367 510 367 510 352.5 500 c 128,-1,64
 338 490 338 490 314 463 c 0,65,66
 282 429 282 429 265.5 424.5 c 128,-1,67
 249 420 249 420 229 441 c 2,68,-1
 213 458 l 1,69,-1
 267 515 l 2,70,71
 315 564 315 564 346 587 c 256,72,73
 377 610 377 610 428 635 c 0,0,1
EndSplineSet
EndChar

StartChar: three
Encoding: 51 51 24
Width: 536
GlyphClass: 2
Flags: W
LayerCount: 2
Fore
SplineSet
462 271 m 128,-1,1
 495 239 495 239 495 228 c 0,2,3
 495 222 495 222 468 149 c 128,-1,4
 441 76 441 76 441 70 c 0,5,6
 441 66 441 66 436 63 c 128,-1,7
 431 60 431 60 423 60 c 0,8,9
 407 60 407 60 391 44 c 0,10,11
 379 30 379 30 309 -18 c 0,12,13
 265 -46 265 -46 249 -53 c 0,14,15
 232 -61 232 -61 219 -59 c 0,16,17
 197 -52 197 -52 171 -62 c 0,18,19
 155 -68 155 -68 142.5 -66.5 c 128,-1,20
 130 -65 130 -65 105 -57 c 0,21,22
 78 -48 78 -48 70.5 -41 c 128,-1,23
 63 -34 63 -34 58 -17 c 0,24,25
 53 10 53 10 64 21 c 0,26,27
 70 28 70 28 76.5 26.5 c 128,-1,28
 83 25 83 25 100.5 12 c 128,-1,29
 118 -1 118 -1 129 -4.5 c 128,-1,30
 140 -8 140 -8 157 -5 c 0,31,32
 247 10 247 10 325 92 c 0,33,34
 381 151 381 151 392 189 c 128,-1,35
 403 227 403 227 372 254 c 0,36,37
 355 268 355 268 345 271 c 128,-1,38
 335 274 335 274 312 271 c 0,39,40
 279 266 279 266 261 254 c 0,41,42
 225 232 225 232 201 259 c 0,43,44
 183 278 183 278 195.5 298 c 128,-1,45
 208 318 208 318 254 343 c 0,46,47
 327 382 327 382 373 449 c 128,-1,48
 419 516 419 516 403 560 c 0,49,50
 399 572 399 572 392 573.5 c 128,-1,51
 385 575 385 575 361 571 c 0,52,53
 329 564 329 564 284 535.5 c 128,-1,54
 239 507 239 507 230 485 c 0,55,56
 223 471 223 471 215 467.5 c 128,-1,57
 207 464 207 464 183 464 c 0,58,59
 162 464 162 464 150.5 468 c 128,-1,60
 139 472 139 472 134 480 c 128,-1,61
 129 488 129 488 129 502 c 0,62,63
 129 521 129 521 146 541 c 128,-1,64
 163 561 163 561 189 573 c 0,65,66
 321 633 321 633 341 640 c 0,67,68
 366 647 366 647 412 641 c 128,-1,69
 458 635 458 635 477.5 623 c 128,-1,70
 497 611 497 611 500 604 c 128,-1,71
 503 597 503 597 498 564 c 0,72,73
 493 521 493 521 486 509 c 0,74,75
 480 496 480 496 480 475 c 256,76,77
 480 454 480 454 466 431.5 c 128,-1,78
 452 409 452 409 419 377 c 0,79,80
 380 339 380 339 380 333 c 256,81,82
 380 327 380 327 405 315 c 0,83,0
 429 303 429 303 462 271 c 128,-1,1
EndSplineSet
EndChar

StartChar: four
Encoding: 52 52 25
Width: 520
GlyphClass: 2
Flags: W
LayerCount: 2
Fore
SplineSet
375 647 m 0,0,1
 375 657 375 657 402 677 c 0,2,3
 419 689 419 689 428.5 691.5 c 128,-1,4
 438 694 438 694 453 690 c 0,5,6
 477 683 477 683 483 675 c 128,-1,7
 489 667 489 667 481 653 c 0,8,9
 473 636 473 636 468 604 c 0,10,11
 463 583 463 583 458.5 576.5 c 128,-1,12
 454 570 454 570 439 568 c 128,-1,13
 424 566 424 566 416.5 555 c 128,-1,14
 409 544 409 544 392 503 c 0,15,16
 366 445 366 445 357 413 c 0,17,18
 350 384 350 384 337 375 c 0,19,20
 326 368 326 368 315.5 345.5 c 128,-1,21
 305 323 305 323 310 317 c 0,22,23
 312 310 312 310 378 310 c 0,24,25
 455 309 455 309 455 298 c 0,26,27
 455 295 455 295 449 289 c 0,28,29
 442 278 442 278 395 278 c 0,30,31
 354 278 354 278 327 267.5 c 128,-1,32
 300 257 300 257 294 239 c 0,33,34
 291 228 291 228 284 206 c 0,35,36
 279 196 279 196 264 134 c 0,37,38
 252 83 252 83 244.5 66 c 128,-1,39
 237 49 237 49 225.5 49 c 128,-1,40
 214 49 214 49 203.5 22.5 c 128,-1,41
 193 -4 193 -4 181 0 c 0,42,43
 165 6 165 6 166 23 c 128,-1,44
 167 40 167 40 184 86 c 0,45,46
 197 120 197 120 208 153 c 128,-1,47
 219 186 219 186 223 207.5 c 128,-1,48
 227 229 227 229 225 234 c 0,49,50
 221 240 221 240 208 233 c 0,51,52
 183 219 183 219 148.5 212 c 128,-1,53
 114 205 114 205 100 211 c 0,54,55
 87 216 87 216 76.5 223.5 c 128,-1,56
 66 231 66 231 60 240 c 128,-1,57
 54 249 54 249 54 256 c 0,58,59
 54 270 54 270 109 330 c 0,60,61
 215 446 215 446 283.5 527 c 128,-1,62
 352 608 352 608 347 613 c 0,63,64
 344 616 344 616 359 627 c 0,65,66
 375 639 375 639 375 647 c 0,0,1
253 308 m 0,67,68
 257 318 257 318 266 343 c 0,69,70
 287 408 287 408 278 411 c 0,71,72
 272 413 272 413 238 373 c 0,73,74
 205 335 205 335 189 315 c 0,75,76
 184 303 184 303 196 294 c 128,-1,77
 208 285 208 285 227 288 c 0,78,79
 237 289 237 289 242.5 293 c 128,-1,80
 248 297 248 297 253 308 c 0,67,68
267 194 m 0,81,82
 275 206 275 206 275 211.5 c 128,-1,83
 275 217 275 217 267.5 217 c 128,-1,84
 260 217 260 217 260 201 c 0,85,86
 260 188 260 188 262 188 c 0,87,88
 263 188 263 188 267 194 c 0,81,82
EndSplineSet
EndChar

StartChar: five
Encoding: 53 53 26
Width: 582
GlyphClass: 2
Flags: W
LayerCount: 2
Fore
SplineSet
464 608.5 m 128,-1,1
 495 631 495 631 510 638 c 0,2,3
 531 649 531 649 561.5 654.5 c 128,-1,4
 592 660 592 660 615 656.5 c 128,-1,5
 638 653 638 653 636 644 c 0,6,7
 635 638 635 638 624 629 c 128,-1,8
 613 620 613 620 600 613 c 0,9,10
 561 593 561 593 521 560 c 0,11,12
 476 523 476 523 462.5 522 c 128,-1,13
 449 521 449 521 420 508 c 0,14,15
 390 497 390 497 371 496 c 0,16,17
 353 496 353 496 316 484 c 0,18,19
 293 477 293 477 283.5 469.5 c 128,-1,20
 274 462 274 462 267 447 c 0,21,22
 258 425 258 425 237 392 c 0,23,24
 219 363 219 363 227 354.5 c 128,-1,25
 235 346 235 346 286 341 c 0,26,27
 316 339 316 339 336 335 c 256,28,29
 356 331 356 331 373 324.5 c 128,-1,30
 390 318 390 318 403 309 c 128,-1,31
 416 300 416 300 430 285 c 0,32,33
 453 261 453 261 457 251.5 c 128,-1,34
 461 242 461 242 459 219 c 0,35,36
 450 156 450 156 441 135 c 0,37,38
 431 115 431 115 383 64 c 0,39,40
 290 -38 290 -38 266 -38 c 0,41,42
 257 -38 257 -38 237 -54 c 0,43,44
 224 -65 224 -65 204 -67 c 0,45,46
 184 -68 184 -68 110 -67 c 0,47,48
 31 -66 31 -66 15 -63 c 256,49,50
 -1 -60 -1 -60 -17 -45 c 0,51,52
 -60 2 -60 2 0 22 c 0,53,54
 30 31 30 31 40 22 c 0,55,56
 51 14 51 14 110 10 c 0,57,58
 135 6 135 6 153.5 8.5 c 128,-1,59
 172 11 172 11 182.5 15 c 128,-1,60
 193 19 193 19 220 36 c 0,61,62
 302 84 302 84 346 162 c 0,63,64
 388 234 388 234 354 261 c 0,65,66
 350 265 350 265 343 268 c 0,67,68
 325 275 325 275 289 271.5 c 128,-1,69
 253 268 253 268 237 257 c 0,70,71
 219 245 219 245 208 245 c 0,72,73
 198 245 198 245 172 218 c 0,74,75
 122 166 122 166 88 213 c 0,76,77
 74 233 74 233 73 245.5 c 128,-1,78
 72 258 72 258 83 280 c 0,79,80
 110 333 110 333 135 400 c 256,81,82
 160 467 160 467 157 475 c 0,83,84
 149 483 149 483 157 497 c 0,85,86
 162 507 162 507 187.5 515 c 128,-1,87
 213 523 213 523 288 540 c 0,88,89
 317 545 317 545 333 550 c 128,-1,90
 349 555 349 555 368 563 c 256,91,92
 387 571 387 571 405 577 c 0,93,0
 433 586 433 586 464 608.5 c 128,-1,1
EndSplineSet
EndChar

StartChar: six
Encoding: 54 54 27
Width: 518
GlyphClass: 2
Flags: W
LayerCount: 2
Fore
SplineSet
254 606 m 0,0,1
 279 613 279 613 288 619 c 0,2,3
 297 628 297 628 317 625.5 c 128,-1,4
 337 623 337 623 348 612 c 0,5,6
 357 602 357 602 357.5 595.5 c 128,-1,7
 358 589 358 589 349 573 c 0,8,9
 337 548 337 548 307 509 c 0,10,11
 284 482 284 482 262 441 c 0,12,13
 240 402 240 402 225 379 c 0,14,15
 200 343 200 343 200 333 c 128,-1,16
 200 323 200 323 189 314 c 0,17,18
 178 306 178 306 162 272 c 0,19,20
 146 236 146 236 128 178 c 128,-1,21
 110 120 110 120 113 114 c 0,22,23
 114 113 114 113 123 119 c 0,24,25
 133 124 133 124 149 136 c 256,26,27
 165 148 165 148 183 162 c 0,28,29
 248 215 248 215 288 234 c 0,30,31
 314 245 314 245 330 247.5 c 128,-1,32
 346 250 346 250 388 246 c 0,33,34
 448 241 448 241 465.5 227.5 c 128,-1,35
 483 214 483 214 483 173 c 2,36,-1
 483 134 l 1,37,-1
 408 64 l 2,38,39
 335 -5 335 -5 321 -7 c 0,40,41
 309 -7 309 -7 299 -18 c 0,42,43
 282 -39 282 -39 189 -49 c 0,44,45
 143 -55 143 -55 129 -61 c 0,46,47
 103 -75 103 -75 73.5 -56 c 128,-1,48
 44 -37 44 -37 49 -10 c 0,49,50
 52 9 52 9 43 49 c 0,51,52
 33 88 33 88 33 116.5 c 128,-1,53
 33 145 33 145 44 187 c 0,54,55
 55 227 55 227 65 252 c 256,56,57
 75 277 75 277 112 352 c 0,58,59
 159 447 159 447 192 500 c 0,60,61
 209 528 209 528 219 565 c 0,62,63
 226 587 226 587 231.5 594 c 128,-1,64
 237 601 237 601 254 606 c 0,0,1
303 72 m 0,65,66
 371 120 371 120 374 133 c 0,67,68
 375 140 375 140 370 143 c 128,-1,69
 365 146 365 146 347 145 c 0,70,71
 321 145 321 145 278.5 121 c 128,-1,72
 236 97 236 97 201 63 c 0,73,74
 155 19 155 19 182 18 c 0,75,76
 217 16 217 16 303 72 c 0,65,66
EndSplineSet
EndChar

StartChar: seven
Encoding: 55 55 28
Width: 708
GlyphClass: 2
Flags: W
LayerCount: 2
Fore
SplineSet
516 633 m 0,0,1
 553 640 553 640 574 653 c 0,2,3
 575 654 575 654 578 656 c 128,-1,4
 581 658 581 658 584 660 c 0,5,6
 590 664 590 664 592 665 c 0,7,8
 594 667 594 667 599 669.5 c 128,-1,9
 604 672 604 672 608 673 c 128,-1,10
 612 674 612 674 617.5 675.5 c 128,-1,11
 623 677 623 677 629 677 c 2,12,-1
 644 677 l 2,13,14
 665 678 665 678 668.5 674 c 128,-1,15
 672 670 672 670 672 651 c 0,16,17
 672 627 672 627 650 601 c 256,18,19
 628 575 628 575 547 501 c 0,20,21
 478 442 478 442 400.5 352 c 128,-1,22
 323 262 323 262 298 213 c 0,23,24
 208 47 208 47 208 27 c 0,25,26
 208 9 208 9 188 -19 c 0,27,28
 165 -52 165 -52 135.5 -54 c 128,-1,29
 106 -56 106 -56 102 -23 c 0,30,31
 99 -6 99 -6 130 56 c 0,32,33
 146 87 146 87 157 114 c 128,-1,34
 168 141 168 141 177 159 c 0,35,36
 187 178 187 178 209 213 c 0,37,38
 245 272 245 272 245 276 c 0,39,40
 245 281 245 281 306 364 c 256,41,42
 367 447 367 447 397 483 c 0,43,44
 436 527 436 527 436 535 c 0,45,46
 436 539 436 539 424.5 540 c 128,-1,47
 413 541 413 541 401.5 539 c 128,-1,48
 390 537 390 537 386 533 c 0,49,50
 382 525 382 525 362 525 c 0,51,52
 344 525 344 525 319 514 c 0,53,54
 294 502 294 502 250 491 c 0,55,56
 140 465 140 465 108 436 c 0,57,58
 96 426 96 426 92 426 c 128,-1,59
 88 426 88 426 81 436 c 0,60,61
 71 450 71 450 54 460 c 0,62,63
 36 468 36 468 33 485 c 0,64,65
 31 502 31 502 50.5 513.5 c 128,-1,66
 70 525 70 525 102 525 c 0,67,68
 173 525 173 525 235 552 c 0,69,70
 255 562 255 562 283 568 c 0,71,72
 309 572 309 572 318 578 c 0,73,74
 327 586 327 586 368 592 c 0,75,76
 390 596 390 596 417 605 c 0,77,78
 449 615 449 615 469 621 c 0,79,80
 496 629 496 629 516 633 c 0,0,1
EndSplineSet
EndChar

StartChar: eight
Encoding: 56 56 29
Width: 600
GlyphClass: 2
Flags: W
LayerCount: 2
Fore
SplineSet
634 654 m 0,0,1
 640 654 640 654 660 680 c 0,2,3
 675 699 675 699 685 703 c 128,-1,4
 695 707 695 707 730 707 c 0,5,6
 779 707 779 707 779 698 c 0,7,8
 779 692 779 692 751 667 c 128,-1,9
 723 642 723 642 681.5 610.5 c 128,-1,10
 640 579 640 579 604 554 c 0,11,12
 537 511 537 511 502.5 479 c 128,-1,13
 468 447 468 447 428 396 c 0,14,15
 369 321 369 321 356 306 c 0,16,17
 336 280 336 280 336 273.5 c 128,-1,18
 336 267 336 267 360 223 c 0,19,20
 387 170 387 170 379.5 122 c 128,-1,21
 372 74 372 74 326 22 c 0,22,23
 273 -38 273 -38 239 -54 c 128,-1,24
 205 -70 205 -70 153 -58 c 0,25,26
 121 -50 121 -50 90 -45 c 0,27,28
 68 -41 68 -41 49 -21.5 c 128,-1,29
 30 -2 30 -2 35 11 c 0,30,31
 39 33 39 33 42 52 c 0,32,33
 44 69 44 69 63 91 c 128,-1,34
 82 113 82 113 142 170 c 0,35,36
 246 266 246 266 235 277 c 1,37,-1
 225 280 l 1,38,39
 198 280 198 280 158 364 c 0,40,41
 134 414 134 414 134 458 c 128,-1,42
 134 502 134 502 158 555 c 0,43,44
 176 590 176 590 186 601 c 128,-1,45
 196 612 196 612 228 626 c 0,46,47
 293 655 293 655 332.5 642.5 c 128,-1,48
 372 630 372 630 402 572 c 0,49,50
 410 557 410 557 398 535 c 0,51,52
 387 512 387 512 361 488 c 0,53,54
 326 456 326 456 321 460 c 0,55,56
 312 465 312 465 309.5 488.5 c 128,-1,57
 307 512 307 512 313 520 c 0,58,59
 325 534 325 534 313 544 c 128,-1,60
 301 554 301 554 280 550 c 0,61,62
 259 547 259 547 247 538 c 0,63,64
 243 535 243 535 237.5 521 c 128,-1,65
 232 507 232 507 226.5 490.5 c 128,-1,66
 221 474 221 474 218 456.5 c 128,-1,67
 215 439 215 439 215 429.5 c 128,-1,68
 215 420 215 420 228.5 398 c 128,-1,69
 242 376 242 376 258 359 c 128,-1,70
 274 342 274 342 283 342 c 0,71,72
 294 340 294 340 343 404 c 0,73,74
 380 449 380 449 413 484 c 0,75,76
 447 520 447 520 481.5 549 c 128,-1,77
 516 578 516 578 557 606 c 0,78,79
 630 654 630 654 634 654 c 0,0,1
234 55 m 0,80,81
 298 110 298 110 298 167 c 0,82,83
 298 186 298 186 294.5 195 c 128,-1,84
 291 204 291 204 284 203.5 c 128,-1,85
 277 203 277 203 266.5 194.5 c 128,-1,86
 256 186 256 186 238 166 c 0,87,88
 204 126 204 126 178.5 84 c 128,-1,89
 153 42 153 42 156 31 c 0,90,91
 161 16 161 16 183 22.5 c 128,-1,92
 205 29 205 29 234 55 c 0,80,81
EndSplineSet
EndChar

StartChar: nine
Encoding: 57 57 30
Width: 458
GlyphClass: 2
Flags: W
LayerCount: 2
Fore
SplineSet
330 623.5 m 128,-1,1
 337 626 337 626 350 638 c 0,2,3
 370 657 370 657 389.5 652.5 c 128,-1,4
 409 648 409 648 418 634.5 c 128,-1,5
 427 621 427 621 423 604 c 0,6,7
 419 592 419 592 414 569 c 0,8,9
 409 547 409 547 404 529 c 0,10,11
 399 512 399 512 390 496 c 0,12,13
 374 462 374 462 374 443.5 c 128,-1,14
 374 425 374 425 366 412 c 0,15,16
 359 398 359 398 354 345 c 0,17,18
 352 310 352 310 346 283 c 0,19,20
 340 254 340 254 333 225 c 0,21,22
 325 194 325 194 321 161 c 0,23,24
 298 -3 298 -3 288 -24 c 0,25,26
 282 -39 282 -39 263 -37 c 128,-1,27
 244 -35 244 -35 233 -21 c 0,28,29
 223 -6 223 -6 221.5 37 c 128,-1,30
 220 80 220 80 229 89 c 0,31,32
 233 94 233 94 240 150 c 0,33,34
 246 206 246 206 248 254 c 256,35,36
 250 302 250 302 246 315 c 0,37,38
 240 321 240 321 192 306 c 0,39,40
 157 295 157 295 132 292 c 0,41,42
 107 290 107 290 89 296.5 c 128,-1,43
 71 303 71 303 59 317.5 c 128,-1,44
 47 332 47 332 39 357 c 0,45,46
 29 387 29 387 37.5 438.5 c 128,-1,47
 46 490 46 490 65 519 c 0,48,49
 85 551 85 551 113.5 578 c 128,-1,50
 142 605 142 605 169 618 c 0,51,52
 197 631 197 631 240 633.5 c 128,-1,53
 283 636 283 636 310 627 c 0,54,0
 323 621 323 621 330 623.5 c 128,-1,1
279 522 m 0,55,56
 276 526 276 526 274 531 c 0,57,58
 268 551 268 551 246 550 c 0,59,60
 222 549 222 549 203 539 c 128,-1,61
 184 529 184 529 157 502 c 0,62,63
 124 469 124 469 118 436 c 0,64,65
 113 405 113 405 123.5 394 c 128,-1,66
 134 383 134 383 166 387 c 0,67,68
 200 393 200 393 220 406.5 c 128,-1,69
 240 420 240 420 256 449 c 0,70,71
 276 484 276 484 288 499 c 0,72,73
 300 512 300 512 291 512 c 0,74,75
 288 512 288 512 285 514.5 c 128,-1,76
 282 517 282 517 279 522 c 0,55,56
EndSplineSet
EndChar

StartChar: colon
Encoding: 58 58 31
Width: 241
GlyphClass: 2
Flags: W
LayerCount: 2
Fore
SplineSet
48 67 m 0,0,1
 48 94 48 94 65 103 c 0,2,3
 88 117 88 117 124 113.5 c 128,-1,4
 160 110 160 110 177 91 c 0,5,6
 192 75 192 75 193 68 c 128,-1,7
 194 61 194 61 183 40 c 0,8,9
 151 -25 151 -25 85 16 c 0,10,11
 71 25 71 25 63 32.5 c 128,-1,12
 55 40 55 40 51.5 47.5 c 128,-1,13
 48 55 48 55 48 67 c 0,0,1
72.5 361.5 m 128,-1,15
 89 381 89 381 115 385 c 0,16,17
 121 387 121 387 131 388 c 0,18,19
 142 389 142 389 148 390 c 256,20,21
 154 391 154 391 156 391 c 0,22,23
 163 391 163 391 170 383.5 c 128,-1,24
 177 376 177 376 182.5 364 c 128,-1,25
 188 352 188 352 188 341.5 c 128,-1,26
 188 331 188 331 175.5 314 c 128,-1,27
 163 297 163 297 146.5 284 c 128,-1,28
 130 271 130 271 119 271 c 0,29,30
 102 271 102 271 87 285.5 c 128,-1,31
 72 300 72 300 63 321 c 0,32,14
 56 342 56 342 72.5 361.5 c 128,-1,15
EndSplineSet
EndChar

StartChar: semicolon
Encoding: 59 59 32
Width: 309
GlyphClass: 2
Flags: W
LayerCount: 2
Fore
SplineSet
78.5 77.5 m 128,-1,1
 82 106 82 106 103 123 c 0,2,3
 127 142 127 142 146.5 142 c 128,-1,4
 166 142 166 142 195 123 c 0,5,6
 217 110 217 110 222 101 c 128,-1,7
 227 92 227 92 227 68 c 0,8,9
 227 34 227 34 208 -27 c 128,-1,10
 189 -88 189 -88 170 -112 c 0,11,12
 153 -135 153 -135 135.5 -135 c 128,-1,13
 118 -135 118 -135 94 -113 c 0,14,15
 68 -88 68 -88 74 -73 c 0,16,17
 97 -21 97 -21 100.5 -1 c 128,-1,18
 104 19 104 19 93 31 c 0,19,0
 75 49 75 49 78.5 77.5 c 128,-1,1
155 359 m 0,20,21
 93 423 93 423 168 445 c 0,22,23
 205 457 205 457 213 457 c 0,24,25
 222 458 222 458 243 437.5 c 128,-1,26
 264 417 264 417 264 407 c 0,27,28
 264 394 264 394 235 361 c 128,-1,29
 206 328 206 328 195 328 c 256,30,31
 184 328 184 328 155 359 c 0,20,21
EndSplineSet
EndChar

StartChar: less
Encoding: 60 60 33
Width: 413
GlyphClass: 2
Flags: W
LayerCount: 2
Fore
SplineSet
288 295 m 0,0,1
 274 279 274 279 257.5 264 c 128,-1,2
 241 249 241 249 212.5 223 c 128,-1,3
 184 197 184 197 170 185 c 1,4,5
 323 132 323 132 333 129 c 0,6,7
 356 120 356 120 371.5 75 c 128,-1,8
 387 30 387 30 371 12 c 0,9,10
 365 5 365 5 350.5 1.5 c 128,-1,11
 336 -2 336 -2 326 1 c 0,12,13
 311 5 311 5 276 34 c 0,14,15
 193 102 193 102 79 115 c 0,16,17
 65 116 65 116 50.5 124 c 128,-1,18
 36 132 36 132 33 141 c 0,19,20
 31 151 31 151 38 166 c 128,-1,21
 45 181 45 181 55 190 c 0,22,23
 104 232 104 232 245 346 c 0,24,25
 259 358 259 358 274 356 c 128,-1,26
 289 354 289 354 296 339 c 0,27,28
 301 331 301 331 298 316.5 c 128,-1,29
 295 302 295 302 288 295 c 0,0,1
EndSplineSet
EndChar

StartChar: equal
Encoding: 61 61 34
Width: 489
GlyphClass: 2
Flags: W
LayerCount: 2
Fore
SplineSet
422 146 m 0,0,1
 426 146 426 146 431 143 c 128,-1,2
 436 140 436 140 443 135 c 128,-1,3
 450 130 450 130 454 128 c 1,4,5
 431 81 431 81 379 89 c 0,6,7
 231 111 231 111 112 92 c 0,8,9
 85 88 85 88 72 99.5 c 128,-1,10
 59 111 59 111 57 146 c 1,11,12
 344 146 344 146 422 146 c 0,0,1
111 209 m 0,13,14
 83 206 83 206 70 221 c 128,-1,15
 57 236 57 236 60 271 c 1,16,17
 340 271 340 271 384 271 c 0,18,19
 424 270 424 270 441 226 c 1,20,21
 436 224 436 224 428.5 219.5 c 128,-1,22
 421 215 421 215 416 212.5 c 128,-1,23
 411 210 411 210 407 211 c 0,24,25
 383 216 383 216 356.5 218.5 c 128,-1,26
 330 221 330 221 309.5 222 c 128,-1,27
 289 223 289 223 257.5 221 c 128,-1,28
 226 219 226 219 210.5 218 c 128,-1,29
 195 217 195 217 159 213.5 c 128,-1,30
 123 210 123 210 111 209 c 0,13,14
EndSplineSet
EndChar

StartChar: greater
Encoding: 62 62 35
Width: 418
GlyphClass: 2
Flags: W
LayerCount: 2
Fore
SplineSet
33 59 m 1,0,1
 61 90 61 90 253 302 c 1,2,3
 238 306 238 306 208.5 312 c 128,-1,4
 179 318 179 318 164.5 322.5 c 128,-1,5
 150 327 150 327 129.5 336.5 c 128,-1,6
 109 346 109 346 95.5 361.5 c 128,-1,7
 82 377 82 377 73 399 c 1,8,9
 79 400 79 400 91 402.5 c 128,-1,10
 103 405 103 405 107.5 405.5 c 128,-1,11
 112 406 112 406 121 404 c 0,12,13
 147 390 147 390 188.5 378.5 c 128,-1,14
 230 367 230 367 261.5 359.5 c 128,-1,15
 293 352 293 352 327.5 332 c 128,-1,16
 362 312 362 312 383 281 c 1,17,18
 342 236 342 236 256.5 143 c 128,-1,19
 171 50 171 50 125 0 c 1,20,21
 117 5 117 5 85.5 25.5 c 128,-1,22
 54 46 54 46 33 59 c 1,0,1
EndSplineSet
EndChar

StartChar: question
Encoding: 63 63 36
Width: 645
GlyphClass: 2
Flags: W
LayerCount: 2
Fore
SplineSet
171 -48.5 m 128,-1,1
 173 -41 173 -41 187 -31 c 0,2,3
 207 -15 207 -15 221 -14.5 c 128,-1,4
 235 -14 235 -14 257 -28 c 0,5,6
 278 -41 278 -41 281 -64.5 c 128,-1,7
 284 -88 284 -88 266.5 -94.5 c 128,-1,8
 249 -101 249 -101 216 -90.5 c 128,-1,9
 183 -80 183 -80 175 -67 c 0,10,0
 169 -56 169 -56 171 -48.5 c 128,-1,1
385 690 m 0,11,12
 429 691 429 691 437 696 c 0,13,14
 443 701 443 701 450 701 c 0,15,16
 457 700 457 700 493 692 c 0,17,18
 525 686 525 686 562 658.5 c 128,-1,19
 599 631 599 631 608 609 c 0,20,21
 615 591 615 591 603.5 546.5 c 128,-1,22
 592 502 592 502 567 450.5 c 128,-1,23
 542 399 542 399 490 336.5 c 128,-1,24
 438 274 438 274 412 263 c 0,25,26
 323 228 323 228 301.5 205.5 c 128,-1,27
 280 183 280 183 309 154 c 0,28,29
 332 130 332 130 325.5 108 c 128,-1,30
 319 86 319 86 285 76 c 0,31,32
 266 71 266 71 236 98 c 128,-1,33
 206 125 206 125 191 159 c 0,34,35
 171 207 171 207 208 256 c 128,-1,36
 245 305 245 305 332 348 c 0,37,38
 355 360 355 360 382 385 c 0,39,40
 410 409 410 409 435 439 c 0,41,42
 459 469 459 469 471 493 c 0,43,44
 487 525 487 525 488 564 c 0,45,46
 489 591 489 591 485 598 c 128,-1,47
 481 605 481 605 464 612 c 0,48,49
 435 621 435 621 417 612 c 0,50,51
 396 600 396 600 367 596 c 0,52,53
 353 592 353 592 340.5 584 c 128,-1,54
 328 576 328 576 313.5 559.5 c 128,-1,55
 299 543 299 543 278 513 c 0,56,57
 261 489 261 489 229 489 c 0,58,59
 199 489 199 489 194 499.5 c 128,-1,60
 189 510 189 510 202 548 c 0,61,62
 245 679 245 679 385 690 c 0,11,12
EndSplineSet
Substitution2: "'aalt' Access All Alternates lookup 0 subtable" question.alt1
EndChar

StartChar: at
Encoding: 64 64 37
Width: 838
GlyphClass: 2
Flags: W
LayerCount: 2
Fore
SplineSet
343 544 m 0,0,1
 387 567 387 567 445 584 c 0,2,3
 564 622 564 622 658 590 c 0,4,5
 698 576 698 576 736.5 532.5 c 128,-1,6
 775 489 775 489 780 450 c 0,7,8
 787 415 787 415 796 400 c 0,9,10
 804 383 804 383 804 361 c 0,11,12
 804 340 804 340 793 298 c 0,13,14
 783 256 783 256 768 216 c 0,15,16
 754 176 754 176 743 160 c 0,17,18
 705 105 705 105 731 78 c 0,19,20
 738 70 738 70 734.5 61.5 c 128,-1,21
 731 53 731 53 723.5 46.5 c 128,-1,22
 716 40 716 40 709 40 c 0,23,24
 701 40 701 40 664 8 c 0,25,26
 623 -26 623 -26 544 -63 c 0,27,28
 513 -77 513 -77 464 -87 c 128,-1,29
 415 -97 415 -97 395 -94 c 0,30,31
 345 -84 345 -84 296 -51 c 128,-1,32
 247 -18 247 -18 247 6 c 0,33,34
 247 24 247 24 233 53 c 0,35,36
 213 90 213 90 221 131 c 128,-1,37
 229 172 229 172 271 257 c 0,38,39
 284 282 284 282 284 296 c 0,40,41
 284 308 284 308 330 357 c 2,42,-1
 378 404 l 1,43,-1
 462 398 l 2,44,45
 499 396 499 396 518.5 393 c 128,-1,46
 538 390 538 390 549 385.5 c 128,-1,47
 560 381 560 381 569 373 c 0,48,49
 585 358 585 358 587.5 345 c 128,-1,50
 590 332 590 332 586 291 c 0,51,52
 580 201 580 201 547 139 c 0,53,54
 537 121 537 121 537 114 c 128,-1,55
 537 107 537 107 548 97 c 0,56,57
 569 73 569 73 561 61 c 0,58,59
 560 59 560 59 556 59 c 0,60,61
 551 59 551 59 533 73 c 0,62,63
 522 84 522 84 514 82 c 128,-1,64
 506 80 506 80 479 59 c 0,65,66
 452 36 452 36 419 27 c 128,-1,67
 386 18 386 18 372 28 c 0,68,69
 354 40 354 40 337.5 68 c 128,-1,70
 321 96 321 96 321 111 c 0,71,72
 321 135 321 135 359 197 c 0,73,74
 396 262 396 262 439 286 c 0,75,76
 456 296 456 296 467 307 c 0,77,78
 478 317 478 317 477 321 c 0,79,80
 474 330 474 330 439 329 c 128,-1,81
 404 328 404 328 384 317 c 0,82,83
 370 309 370 309 337 254.5 c 128,-1,84
 304 200 304 200 293 164 c 0,85,86
 281 127 281 127 272 115 c 0,87,88
 262 104 262 104 275 53 c 0,89,90
 281 20 281 20 290 8.5 c 128,-1,91
 299 -3 299 -3 322 -17 c 0,92,93
 350 -30 350 -30 399 -34 c 128,-1,94
 448 -38 448 -38 454 -26 c 0,95,96
 461 -18 461 -18 498 -13 c 0,97,98
 537 -9 537 -9 600.5 36 c 128,-1,99
 664 81 664 81 690 122 c 0,100,101
 718 164 718 164 738 209.5 c 128,-1,102
 758 255 758 255 755 266 c 0,103,104
 751 276 751 276 759 297.5 c 128,-1,105
 767 319 767 319 756 362 c 0,106,107
 752 385 752 385 739 444 c 0,108,109
 726 505 726 505 666.5 532.5 c 128,-1,110
 607 560 607 560 527 542 c 0,111,112
 489 534 489 534 458.5 522 c 128,-1,113
 428 510 428 510 342 470 c 0,114,115
 296 450 296 450 219 374 c 0,116,117
 144 299 144 299 144 291 c 128,-1,118
 144 283 144 283 114 229 c 0,119,120
 82 174 82 174 77 122 c 0,121,122
 73 88 73 88 77 69 c 128,-1,123
 81 50 81 50 102 6 c 0,124,125
 183 -160 183 -160 347 -158 c 0,126,127
 402 -159 402 -159 402 -167 c 0,128,129
 399 -180 399 -180 371 -182 c 0,130,131
 345 -184 345 -184 333 -193 c 0,132,133
 314 -209 314 -209 252 -180 c 128,-1,134
 190 -151 190 -151 147 -108 c 0,135,136
 107 -67 107 -67 70 6 c 0,137,138
 43 57 43 57 37.5 77 c 128,-1,139
 32 97 32 97 35 140 c 0,140,141
 36 159 36 159 40 178 c 256,142,143
 44 197 44 197 48 211.5 c 128,-1,144
 52 226 52 226 59 244 c 128,-1,145
 66 262 66 262 71 273 c 0,146,147
 76 285 76 285 84 303 c 0,148,149
 93 321 93 321 97 330 c 0,150,151
 118 373 118 373 152 395 c 0,152,153
 190 420 190 420 222 460 c 0,154,155
 237 478 237 478 252 491.5 c 128,-1,156
 267 505 267 505 275 509.5 c 128,-1,157
 283 514 283 514 309 526 c 0,158,159
 335 539 335 539 343 544 c 0,0,1
446 150 m 0,160,161
 491 188 491 188 482 210 c 0,162,163
 478 226 478 226 465 226 c 0,164,165
 456 226 456 226 434.5 203 c 128,-1,166
 413 180 413 180 413 170 c 0,167,168
 413 164 413 164 408 147 c 0,169,170
 406 140 406 140 407.5 136.5 c 128,-1,171
 409 133 409 133 416 134 c 0,172,173
 429 135 429 135 446 150 c 0,160,161
EndSplineSet
EndChar

StartChar: A
Encoding: 65 65 38
AltUni2: 0000c5.ffffffff.0 0000c4.ffffffff.0 0000c3.ffffffff.0 0000c2.ffffffff.0 0000c1.ffffffff.0 0000c0.ffffffff.0
Width: 679
GlyphClass: 2
Flags: W
LayerCount: 2
Fore
SplineSet
689 104 m 0,0,1
 706 118 706 118 719 115.5 c 128,-1,2
 732 113 732 113 732 90 c 0,3,4
 733 84 733 84 729.5 77 c 128,-1,5
 726 70 726 70 722 64.5 c 128,-1,6
 718 59 718 59 710.5 52.5 c 128,-1,7
 703 46 703 46 698.5 43 c 128,-1,8
 694 40 694 40 685 34 c 128,-1,9
 676 28 676 28 674 27 c 0,10,11
 655 14 655 14 636 6 c 0,12,13
 633 5 633 5 622.5 -1 c 128,-1,14
 612 -7 612 -7 602 -12.5 c 128,-1,15
 592 -18 592 -18 577.5 -24.5 c 128,-1,16
 563 -31 563 -31 552 -34.5 c 128,-1,17
 541 -38 541 -38 529.5 -39.5 c 128,-1,18
 518 -41 518 -41 513 -36 c 1,19,20
 484 -35 484 -35 436 -7 c 0,21,22
 372 30 372 30 364 64 c 0,23,24
 357 88 357 88 348 88 c 0,25,26
 340 88 340 88 261 23 c 0,27,28
 195 -28 195 -28 164.5 -40 c 128,-1,29
 134 -52 134 -52 107 -36 c 0,30,31
 79 -23 79 -23 56 6.5 c 128,-1,32
 33 36 33 36 33 57 c 0,33,34
 33 82 33 82 47 133 c 128,-1,35
 61 184 61 184 68 192 c 0,36,37
 79 203 79 203 79 228 c 0,38,39
 79 242 79 242 93 267 c 128,-1,40
 107 292 107 292 107 307 c 0,41,42
 107 328 107 328 116 334 c 128,-1,43
 125 340 125 340 154 400 c 0,44,45
 182 461 182 461 192 501 c 0,46,47
 202 534 202 534 220.5 561.5 c 128,-1,48
 239 589 239 589 246.5 584.5 c 128,-1,49
 254 580 254 580 320 633 c 0,50,51
 372 676 372 676 405.5 695.5 c 128,-1,52
 439 715 439 715 493 732 c 0,53,54
 541 746 541 746 552 745 c 128,-1,55
 563 744 563 744 594 718 c 0,56,57
 615 701 615 701 621.5 689.5 c 128,-1,58
 628 678 628 678 628 654 c 0,59,60
 628 616 628 616 591 528 c 0,61,62
 582 509 582 509 562 451 c 0,63,64
 543 393 543 393 525 362 c 0,65,66
 509 336 509 336 503 296 c 0,67,68
 497 261 497 261 488 241 c 0,69,70
 485 236 485 236 460 166 c 0,71,72
 446 126 446 126 445 113 c 128,-1,73
 444 100 444 100 455 80 c 0,74,75
 471 51 471 51 491 51 c 0,76,77
 514 48 514 48 537 28 c 2,78,79
 537 28 537 28 542 24 c 1,80,81
 550 28 550 28 568.5 34.5 c 128,-1,82
 587 41 587 41 594 44 c 0,83,84
 654 76 654 76 689 104 c 0,0,1
404 334 m 0,85,86
 430 375 430 375 443 415 c 0,87,88
 462 472 462 472 475 492 c 0,89,90
 488 510 488 510 488 531 c 0,91,92
 488 551 488 551 497 557 c 0,93,94
 504 561 504 561 525 599 c 128,-1,95
 546 637 546 637 537 645 c 128,-1,96
 528 653 528 653 493 644 c 128,-1,97
 458 635 458 635 431 620 c 0,98,99
 406 604 406 604 372.5 566 c 128,-1,100
 339 528 339 528 339 517 c 0,101,102
 339 507 339 507 297.5 458.5 c 128,-1,103
 256 410 256 410 256 398 c 128,-1,104
 256 386 256 386 224 341 c 0,105,106
 191 292 191 292 182 254 c 0,107,108
 169 209 169 209 162 197 c 0,109,110
 154 180 154 180 154 168 c 0,111,112
 154 155 154 155 138 126 c 0,113,114
 125 100 125 100 130.5 89.5 c 128,-1,115
 136 79 136 79 163 79 c 0,116,117
 181 79 181 79 216 102 c 128,-1,118
 251 125 251 125 266 148 c 0,119,120
 269 150 269 150 274.5 157 c 128,-1,121
 280 164 280 164 287.5 174.5 c 128,-1,122
 295 185 295 185 302 195 c 0,123,124
 377 292 377 292 404 334 c 0,85,86
EndSplineSet
EndChar

StartChar: B
Encoding: 66 66 39
Width: 711
GlyphClass: 2
Flags: W
LayerCount: 2
Fore
SplineSet
312 720 m 0,0,1
 337 739 337 739 373 761 c 0,2,3
 408 786 408 786 430 786 c 128,-1,4
 452 786 452 786 464.5 770 c 128,-1,5
 477 754 477 754 469 734 c 0,6,7
 462 706 462 706 487 707 c 0,8,9
 503 709 503 709 532 723 c 0,10,11
 567 742 567 742 611 743.5 c 128,-1,12
 655 745 655 745 685 731 c 0,13,14
 714 715 714 715 738 678 c 0,15,16
 755 653 755 653 757.5 639 c 128,-1,17
 760 625 760 625 751 588 c 0,18,19
 729 480 729 480 614 376 c 1,20,-1
 555 326 l 1,21,-1
 577 288 l 2,22,23
 598 253 598 253 605 202 c 0,24,25
 609 182 609 182 607 166 c 128,-1,26
 605 150 605 150 600 138 c 128,-1,27
 595 126 595 126 580 104 c 0,28,29
 538 43 538 43 467 3 c 128,-1,30
 396 -37 396 -37 329 -39 c 0,31,32
 297 -39 297 -39 276.5 -32 c 128,-1,33
 256 -25 256 -25 223 -1 c 2,34,-1
 166 39 l 1,35,-1
 135 10 l 2,36,37
 113 -12 113 -12 106.5 -13 c 128,-1,38
 100 -14 100 -14 84 1 c 0,39,40
 69 12 69 12 66 25 c 0,41,42
 64 37 64 37 68 68 c 0,43,44
 72 100 72 100 70 110 c 128,-1,45
 68 120 68 120 53 128 c 0,46,47
 33 139 33 139 33 150 c 0,48,49
 33 169 33 169 55 184 c 128,-1,50
 77 199 77 199 101 199 c 0,51,52
 113 199 113 199 120 201 c 0,53,54
 128 202 128 202 135 208 c 128,-1,55
 142 214 142 214 149 223 c 0,56,57
 157 234 157 234 167 248 c 0,58,59
 175 260 175 260 181 276 c 128,-1,60
 187 292 187 292 190 305.5 c 128,-1,61
 193 319 193 319 198 335.5 c 128,-1,62
 203 352 203 352 208 365 c 0,63,64
 213 374 213 374 219 385 c 128,-1,65
 225 396 225 396 232 407 c 128,-1,66
 239 418 239 418 243 427 c 0,67,68
 253 446 253 446 253.5 466.5 c 128,-1,69
 254 487 254 487 251.5 510 c 128,-1,70
 249 533 249 533 252 549 c 0,71,72
 253 559 253 559 267.5 598.5 c 128,-1,73
 282 638 282 638 286 639 c 1,74,75
 233 625 233 625 206 632 c 0,76,77
 167 645 167 645 169.5 669 c 128,-1,78
 172 693 172 693 204 706 c 0,79,80
 218 712 218 712 257.5 710.5 c 128,-1,81
 297 709 297 709 312 720 c 0,0,1
506 199 m 0,82,83
 506 250 506 250 486 267 c 0,84,85
 474 278 474 278 454 279 c 128,-1,86
 434 280 434 280 406 277 c 128,-1,87
 378 274 378 274 361 275 c 0,88,89
 313 280 313 280 298 272 c 0,90,91
 276 260 276 260 264.5 177.5 c 128,-1,92
 253 95 253 95 272 77 c 0,93,94
 284 64 284 64 302 60 c 128,-1,95
 320 56 320 56 338.5 58.5 c 128,-1,96
 357 61 357 61 376.5 68 c 128,-1,97
 396 75 396 75 411 83.5 c 128,-1,98
 426 92 426 92 439 102 c 0,99,100
 506 151 506 151 506 199 c 0,82,83
608 618 m 0,101,102
 587 643 587 643 558 647 c 0,103,104
 514 654 514 654 460.5 616 c 128,-1,105
 407 578 407 578 373 525 c 128,-1,106
 339 472 339 472 342 435 c 0,107,108
 348 372 348 372 424 383 c 0,109,110
 496 394 496 394 566 451 c 0,111,112
 623 498 623 498 627 539 c 0,113,114
 633 589 633 589 608 618 c 0,101,102
EndSplineSet
EndChar

StartChar: C
Encoding: 67 67 40
AltUni2: 0000c7.ffffffff.0
Width: 580
GlyphClass: 2
Flags: W
LayerCount: 2
Fore
SplineSet
391 698 m 0,0,1
 426 722 426 722 441 722 c 0,2,3
 449 722 449 722 469.5 731 c 128,-1,4
 490 740 490 740 509.5 746.5 c 128,-1,5
 529 753 529 753 540 751 c 0,6,7
 560 746 560 746 595 742 c 0,8,9
 648 734 648 734 664.5 685 c 128,-1,10
 681 636 681 636 651 575 c 0,11,12
 643 558 643 558 629 525 c 0,13,14
 619 499 619 499 578 472 c 128,-1,15
 537 445 537 445 513 449 c 0,16,17
 496 453 496 453 475 471.5 c 128,-1,18
 454 490 454 490 439 513.5 c 128,-1,19
 424 537 424 537 424 553 c 0,20,21
 424 581 424 581 416 586 c 0,22,23
 409 590 409 590 381 562 c 0,24,25
 353 535 353 535 319 494 c 0,26,27
 287 454 287 454 269 424 c 0,28,29
 104 133 104 133 169 79 c 0,30,31
 182 70 182 70 182 58 c 0,32,33
 182 45 182 45 204.5 26 c 128,-1,34
 227 7 227 7 249 3 c 0,35,36
 275 -4 275 -4 311 7 c 0,37,38
 331 12 331 12 360 30 c 128,-1,39
 389 48 389 48 411 67 c 128,-1,40
 433 86 433 86 433 94 c 0,41,42
 433 117 433 117 467 124 c 128,-1,43
 501 131 501 131 520 110 c 0,44,45
 544 83 544 83 510 38 c 128,-1,46
 476 -7 476 -7 405 -42 c 0,47,48
 373 -58 373 -58 350 -63.5 c 128,-1,49
 327 -69 327 -69 285 -69 c 0,50,51
 239 -69 239 -69 220 -64 c 0,52,53
 202 -59 202 -59 173 -41 c 0,54,55
 125 -9 125 -9 98 37 c 0,56,57
 75 71 75 71 70.5 90.5 c 128,-1,58
 66 110 66 110 65 169 c 0,59,60
 63 220 63 220 66 238.5 c 128,-1,61
 69 257 69 257 82.5 279.5 c 128,-1,62
 96 302 96 302 104 322 c 0,63,64
 121 364 121 364 145 401 c 0,65,66
 210 496 210 496 210 520 c 0,67,68
 210 531 210 531 282 602 c 128,-1,69
 354 673 354 673 391 698 c 0,0,1
566.5 607.5 m 128,-1,71
 573 619 573 619 573 623 c 0,72,73
 573 640 573 640 549 622 c 0,74,75
 537 611 537 611 529 596 c 0,76,77
 501 554 501 554 527 554 c 0,78,79
 529 554 529 554 537 563.5 c 128,-1,80
 545 573 545 573 552.5 584.5 c 128,-1,70
 560 596 560 596 566.5 607.5 c 128,-1,71
EndSplineSet
EndChar

StartChar: D
Encoding: 68 68 41
Width: 763
GlyphClass: 2
Flags: W
LayerCount: 2
Fore
SplineSet
291.5 670.5 m 128,-1,1
 306 689 306 689 351 727 c 0,2,3
 358 733 358 733 369.5 743.5 c 128,-1,4
 381 754 381 754 389 761 c 128,-1,5
 397 768 397 768 408 776 c 128,-1,6
 419 784 419 784 430 789 c 0,7,8
 499 821 499 821 614 800 c 0,9,10
 699 785 699 785 730 724 c 0,11,12
 751 684 751 684 781 645 c 0,13,14
 814 606 814 606 822.5 565 c 128,-1,15
 831 524 831 524 821 458 c 0,16,17
 809 388 809 388 801 378.5 c 128,-1,18
 793 369 793 369 793 346 c 0,19,20
 793 326 793 326 783 307 c 256,21,22
 773 288 773 288 736 234 c 0,23,24
 678 149 678 149 624.5 109 c 128,-1,25
 571 69 571 69 483 42 c 0,26,27
 425 25 425 25 416 17 c 0,28,29
 402 9 402 9 358 24 c 0,30,31
 311 40 311 40 309 40 c 0,32,33
 304 40 304 40 271 8 c 0,34,35
 243 -17 243 -17 214.5 -27 c 128,-1,36
 186 -37 186 -37 135 -38 c 0,37,38
 104 -40 104 -40 95.5 -34 c 128,-1,39
 87 -28 87 -28 67 11 c 0,40,41
 41 63 41 63 41 82 c 0,42,43
 41 106 41 106 63.5 144 c 128,-1,44
 86 182 86 182 104 189 c 0,45,46
 129 198 129 198 168 196.5 c 128,-1,47
 207 195 207 195 223 183 c 0,48,49
 260 156 260 156 269 186 c 0,50,51
 270 190 270 190 275 200.5 c 128,-1,52
 280 211 280 211 286.5 229 c 128,-1,53
 293 247 293 247 297 260 c 0,54,55
 326 331 326 331 326.5 354 c 128,-1,56
 327 377 327 377 302 409 c 0,57,58
 275 443 275 443 259 500 c 0,59,60
 249 538 249 538 250 554.5 c 128,-1,61
 251 571 251 571 265 614 c 0,62,0
 277 652 277 652 291.5 670.5 c 128,-1,1
212.5 84.5 m 128,-1,64
 211 91 211 91 194 108 c 0,65,66
 170 132 170 132 162 132 c 0,67,68
 152 132 152 132 138.5 106.5 c 128,-1,69
 125 81 125 81 129 67 c 0,70,71
 135 49 135 49 160.5 48.5 c 128,-1,72
 186 48 186 48 203 66 c 0,73,63
 214 78 214 78 212.5 84.5 c 128,-1,64
690 632 m 0,74,75
 656 681 656 681 649 703 c 0,76,77
 646 713 646 713 639.5 722.5 c 128,-1,78
 633 732 633 732 624 738 c 128,-1,79
 615 744 615 744 606 744 c 0,80,81
 603 743 603 743 545 736 c 0,82,83
 508 732 508 732 489.5 723.5 c 128,-1,84
 471 715 471 715 437 685 c 0,85,86
 389 644 389 644 369.5 617.5 c 128,-1,87
 350 591 350 591 343 560 c 0,88,89
 338 534 338 534 346 505 c 128,-1,90
 354 476 354 476 366 476 c 0,91,92
 373 476 373 476 382 490.5 c 128,-1,93
 391 505 391 505 398 528.5 c 128,-1,94
 405 552 405 552 406 575 c 0,95,96
 408 585 408 585 408.5 596 c 128,-1,97
 409 607 409 607 409 611 c 128,-1,98
 409 615 409 615 410.5 621.5 c 128,-1,99
 412 628 412 628 413 630 c 128,-1,100
 414 632 414 632 419 636 c 128,-1,101
 424 640 424 640 428 642.5 c 128,-1,102
 432 645 432 645 441 652 c 0,103,104
 466 665 466 665 488.5 664.5 c 128,-1,105
 511 664 511 664 522.5 649.5 c 128,-1,106
 534 635 534 635 524 615 c 0,107,108
 511 588 511 588 501 545 c 0,109,110
 486 491 486 491 458 438 c 0,111,112
 437 396 437 396 435 386 c 128,-1,113
 433 376 433 376 446 367 c 0,114,115
 465 355 465 355 525 360 c 0,116,117
 573 365 573 365 600 357.5 c 128,-1,118
 627 350 627 350 627 331 c 0,119,120
 627 311 627 311 597.5 304.5 c 128,-1,121
 568 298 568 298 500 302 c 0,122,123
 478 303 478 303 467 304 c 0,124,125
 457 305 457 305 443 304 c 256,126,127
 429 303 429 303 425 303 c 0,128,129
 420 302 420 302 412 298 c 128,-1,130
 404 294 404 294 402 291 c 128,-1,131
 400 288 400 288 396 278.5 c 128,-1,132
 392 269 392 269 390 262 c 256,133,134
 388 255 388 255 385 239 c 0,135,136
 373 191 373 191 355 161 c 0,137,138
 338 131 338 131 344 112 c 0,139,140
 347 100 347 100 354.5 97.5 c 128,-1,141
 362 95 362 95 384 99 c 0,142,143
 421 104 421 104 442 104 c 0,144,145
 469 104 469 104 495 131 c 0,146,147
 520 156 520 156 550 169 c 0,148,149
 579 182 579 182 579 188 c 128,-1,150
 579 194 579 194 628 249 c 0,151,152
 670 298 670 298 689.5 337.5 c 128,-1,153
 709 377 709 377 723 451 c 0,154,155
 738 519 738 519 732 553 c 128,-1,156
 726 587 726 587 690 632 c 0,74,75
EndSplineSet
EndChar

StartChar: E
Encoding: 69 69 42
AltUni2: 0000cb.ffffffff.0 0000ca.ffffffff.0 0000c9.ffffffff.0 0000c8.ffffffff.0
Width: 492
GlyphClass: 2
Flags: W
LayerCount: 2
Fore
SplineSet
571.5 675 m 128,-1,1
 582 658 582 658 582 644 c 128,-1,2
 582 630 582 630 571 613.5 c 128,-1,3
 560 597 560 597 544 587.5 c 128,-1,4
 528 578 528 578 512 578 c 0,5,6
 468 578 468 578 382 638 c 0,7,8
 335 674 335 674 264 613 c 0,9,10
 232 588 232 588 223 588 c 0,11,12
 218 588 218 588 209.5 573.5 c 128,-1,13
 201 559 201 559 195 539 c 256,14,15
 189 519 189 519 186.5 498.5 c 128,-1,16
 184 478 184 478 185.5 463 c 128,-1,17
 187 448 187 448 194 447 c 0,18,19
 195 447 195 447 203 446 c 0,20,21
 210 445 210 445 225 445 c 0,22,23
 240 444 240 444 251 444 c 0,24,25
 274 443 274 443 286.5 440.5 c 128,-1,26
 299 438 299 438 307.5 432 c 128,-1,27
 316 426 316 426 326 413 c 0,28,29
 347 388 347 388 363 351 c 0,30,31
 368 337 368 337 368 325.5 c 128,-1,32
 368 314 368 314 364.5 307.5 c 128,-1,33
 361 301 361 301 351 294 c 128,-1,34
 341 287 341 287 334.5 284 c 128,-1,35
 328 281 328 281 314 275.5 c 128,-1,36
 300 270 300 270 295 268 c 0,37,38
 280 262 280 262 255.5 253.5 c 128,-1,39
 231 245 231 245 220 239.5 c 128,-1,40
 209 234 209 234 191 220 c 128,-1,41
 173 206 173 206 156 184 c 0,42,43
 129 151 129 151 132 129 c 0,44,45
 138 89 138 89 173 73.5 c 128,-1,46
 208 58 208 58 255.5 64.5 c 128,-1,47
 303 71 303 71 354 87 c 128,-1,48
 405 103 405 103 444.5 122 c 128,-1,49
 484 141 484 141 500 154 c 0,50,51
 519 169 519 169 532.5 166.5 c 128,-1,52
 546 164 546 164 546 140 c 0,53,54
 547 131 547 131 539 118 c 128,-1,55
 531 105 531 105 523 96 c 128,-1,56
 515 87 515 87 501 73 c 128,-1,57
 487 59 487 59 485 56 c 0,58,59
 431 -3 431 -3 288 -26 c 0,60,61
 158 -48 158 -48 80 7 c 0,62,63
 57 23 57 23 45.5 41.5 c 128,-1,64
 34 60 34 60 33.5 83 c 128,-1,65
 33 106 33 106 36 123 c 128,-1,66
 39 140 39 140 47 169 c 0,67,68
 54 194 54 194 96 270 c 0,69,70
 141 344 141 344 155 336 c 1,71,72
 116 387 116 387 95 432 c 128,-1,73
 74 477 74 477 79 525 c 0,74,75
 85 572 85 572 107 609.5 c 128,-1,76
 129 647 129 647 170 681 c 0,77,78
 199 704 199 704 232 717.5 c 128,-1,79
 265 731 265 731 334 745 c 0,80,81
 356 750 356 750 361.5 754.5 c 128,-1,82
 367 759 367 759 365 775 c 0,83,84
 364 782 364 782 366 789 c 128,-1,85
 368 796 368 796 372.5 802.5 c 128,-1,86
 377 809 377 809 383 815 c 128,-1,87
 389 821 389 821 396 825.5 c 128,-1,88
 403 830 403 830 410.5 833 c 128,-1,89
 418 836 418 836 425 836 c 0,90,91
 439 836 439 836 475.5 821 c 128,-1,92
 512 806 512 806 512 799 c 0,93,94
 512 793 512 793 492 769 c 0,95,96
 475 747 475 747 478.5 737.5 c 128,-1,97
 482 728 482 728 512 721 c 0,98,99
 529 717 529 717 545 704.5 c 128,-1,0
 561 692 561 692 571.5 675 c 128,-1,1
EndSplineSet
EndChar

StartChar: F
Encoding: 70 70 43
Width: 737
GlyphClass: 2
Flags: W
LayerCount: 2
Fore
SplineSet
295 764 m 128,-1,1
 327 793 327 793 349 800 c 0,2,3
 393 811 393 811 442 790 c 128,-1,4
 491 769 491 769 500 735 c 0,5,6
 503 721 503 721 511 704 c 0,7,8
 519 689 519 689 524 674 c 0,9,10
 525 664 525 664 530 656.5 c 128,-1,11
 535 649 535 649 538 649 c 0,12,13
 549 649 549 649 587 609 c 0,14,15
 603 593 603 593 612.5 585.5 c 128,-1,16
 622 578 622 578 636 572.5 c 128,-1,17
 650 567 650 567 666 568 c 0,18,19
 680 568 680 568 711 570 c 0,20,21
 735 571 735 571 780.5 584 c 128,-1,22
 826 597 826 597 837 606 c 0,23,24
 847 613 847 613 905 645 c 0,25,26
 966 676 966 676 976 666 c 0,27,28
 985 657 985 657 973 635 c 128,-1,29
 961 613 961 613 941 602 c 0,30,31
 939 601 939 601 908 580 c 0,32,33
 796 507 796 507 723 507 c 0,34,35
 705 505 705 505 697 505 c 128,-1,36
 689 505 689 505 679 499.5 c 128,-1,37
 669 494 669 494 665.5 489.5 c 128,-1,38
 662 485 662 485 655 467 c 128,-1,39
 648 449 648 449 645 432 c 0,40,41
 641 415 641 415 632 379 c 0,42,43
 613 295 613 295 603 282 c 0,44,45
 592 261 592 261 604 260 c 0,46,47
 610 260 610 260 616 263 c 128,-1,48
 622 266 622 266 628 270.5 c 128,-1,49
 634 275 634 275 639 276 c 0,50,51
 654 281 654 281 678 277 c 0,52,53
 717 270 717 270 740 240 c 0,54,55
 745 234 745 234 745 229 c 0,56,57
 745 220 745 220 731 213 c 0,58,59
 710 201 710 201 699 200 c 0,60,61
 688 198 688 198 681.5 201.5 c 128,-1,62
 675 205 675 205 673 210 c 128,-1,63
 671 215 671 215 667 220.5 c 128,-1,64
 663 226 663 226 657 227 c 0,65,66
 653 229 653 229 643 220 c 0,67,68
 632 210 632 210 597 195 c 0,69,70
 576 187 576 187 559 170.5 c 128,-1,71
 542 154 542 154 529 131.5 c 128,-1,72
 516 109 516 109 506.5 88.5 c 128,-1,73
 497 68 497 68 486 41.5 c 128,-1,74
 475 15 475 15 467 0 c 0,75,76
 459 -14 459 -14 448 -24 c 128,-1,77
 437 -34 437 -34 427 -39 c 128,-1,78
 417 -44 417 -44 399.5 -46.5 c 128,-1,79
 382 -49 382 -49 372.5 -49 c 128,-1,80
 363 -49 363 -49 342 -49 c 128,-1,81
 321 -49 321 -49 313 -49 c 0,82,83
 260 -49 260 -49 237 -43 c 0,84,85
 222 -40 222 -40 205.5 -30.5 c 128,-1,86
 189 -21 189 -21 174 -10 c 128,-1,87
 159 1 159 1 146 15.5 c 128,-1,88
 133 30 133 30 123 44 c 128,-1,89
 113 58 113 58 107.5 72 c 128,-1,90
 102 86 102 86 102 98 c 0,91,92
 102 112 102 112 95 124 c 1,93,94
 86 131 86 131 76 170 c 0,95,96
 63 211 63 211 48 230 c 0,97,98
 32 252 32 252 33 262.5 c 128,-1,99
 34 273 34 273 55 278 c 0,100,101
 87 287 87 287 119 247 c 0,102,103
 136 229 136 229 173 224 c 256,104,105
 210 219 210 219 323 220 c 2,106,-1
 480 221 l 1,107,-1
 500 245 l 2,108,109
 520 266 520 266 520 279 c 256,110,111
 520 292 520 292 527 308 c 0,112,113
 537 326 537 326 549.5 388 c 128,-1,114
 562 450 562 450 558 461 c 0,115,116
 552 476 552 476 567 502 c 0,117,118
 580 530 580 530 580 531 c 0,119,120
 580 534 580 534 546 557 c 0,121,122
 511 582 511 582 495 607 c 0,123,124
 480 631 480 631 473 631 c 0,125,126
 464 631 464 631 420 592 c 0,127,128
 343 528 343 528 310 567 c 0,129,130
 297 582 297 582 268 597 c 0,131,132
 236 613 236 613 224 635 c 0,133,134
 216 650 216 650 218.5 660 c 128,-1,135
 221 670 221 670 241 701 c 0,136,0
 263 735 263 735 295 764 c 128,-1,1
388 51 m 0,137,138
 409 64 409 64 437 121 c 0,139,140
 465 179 465 179 459 183 c 0,141,142
 454 185 454 185 430 173 c 256,143,144
 406 161 406 161 381 166 c 0,145,146
 365 169 365 169 309 171 c 0,147,148
 252 173 252 173 203 173 c 256,149,150
 154 173 154 173 154 169 c 0,151,152
 154 162 154 162 180.5 99 c 128,-1,153
 207 36 207 36 212 30 c 0,154,155
 224 17 224 17 294.5 25 c 128,-1,156
 365 33 365 33 388 51 c 0,137,138
427.5 702.5 m 128,-1,158
 430 707 430 707 419 719 c 0,159,160
 401 739 401 739 372 733 c 128,-1,161
 343 727 343 727 324.5 699.5 c 128,-1,162
 306 672 306 672 314.5 661 c 128,-1,163
 323 650 323 650 353 665 c 0,164,165
 369 675 369 675 400 688 c 0,166,157
 425 698 425 698 427.5 702.5 c 128,-1,158
EndSplineSet
EndChar

StartChar: G
Encoding: 71 71 44
Width: 880
GlyphClass: 2
Flags: W
LayerCount: 2
Fore
SplineSet
899 145 m 0,0,1
 917 160 917 160 930.5 157 c 128,-1,2
 944 154 944 154 944 131 c 0,3,4
 944 125 944 125 942 119 c 128,-1,5
 940 113 940 113 935.5 107.5 c 128,-1,6
 931 102 931 102 927 97 c 128,-1,7
 923 92 923 92 916 87 c 128,-1,8
 909 82 909 82 904.5 79 c 128,-1,9
 900 76 900 76 893 71 c 128,-1,10
 886 66 886 66 883 65 c 0,11,12
 806 11 806 11 758 2 c 0,13,14
 733 -5 733 -5 674 1.5 c 128,-1,15
 615 8 615 8 589.5 5 c 128,-1,16
 564 2 564 2 553 -9 c 0,17,18
 534 -25 534 -25 507.5 -25 c 128,-1,19
 481 -25 481 -25 457 -41 c 0,20,21
 435 -57 435 -57 366 -63 c 0,22,23
 318 -65 318 -65 299 -60.5 c 128,-1,24
 280 -56 280 -56 231 -27 c 0,25,26
 215 -18 215 -18 182.5 -6 c 128,-1,27
 150 6 150 6 125.5 16.5 c 128,-1,28
 101 27 101 27 76.5 42.5 c 128,-1,29
 52 58 52 58 41 82 c 128,-1,30
 30 106 30 106 36 137 c 0,31,32
 41 169 41 169 66 206 c 0,33,34
 80 228 80 228 94 238 c 128,-1,35
 108 248 108 248 120 248 c 128,-1,36
 132 248 132 248 146 244.5 c 128,-1,37
 160 241 160 241 173.5 236 c 128,-1,38
 187 231 187 231 203.5 231 c 128,-1,39
 220 231 220 231 238 237 c 0,40,41
 262 247 262 247 284.5 284 c 128,-1,42
 307 321 307 321 314 350 c 0,43,44
 317 365 317 365 317.5 376.5 c 128,-1,45
 318 388 318 388 316 396 c 128,-1,46
 314 404 314 404 310 410.5 c 128,-1,47
 306 417 306 417 301 422 c 128,-1,48
 296 427 296 427 290 433.5 c 128,-1,49
 284 440 284 440 278.5 446.5 c 128,-1,50
 273 453 273 453 267 463 c 128,-1,51
 261 473 261 473 256 485 c 0,52,53
 252 498 252 498 253 522 c 0,54,55
 254 554 254 554 264.5 595 c 128,-1,56
 275 636 275 636 294.5 678 c 128,-1,57
 314 720 314 720 341.5 746 c 128,-1,58
 369 772 369 772 404 775.5 c 128,-1,59
 439 779 439 779 481 744 c 0,60,61
 506 723 506 723 510 695.5 c 128,-1,62
 514 668 514 668 501 601 c 0,63,64
 490 543 490 543 501 534 c 128,-1,65
 512 525 512 525 563 550 c 0,66,67
 616 575 616 575 624 575 c 0,68,69
 642 575 642 575 724 676 c 0,70,71
 768 730 768 730 794.5 739 c 128,-1,72
 821 748 821 748 847 719 c 0,73,74
 871 694 871 694 868 637 c 128,-1,75
 865 580 865 580 839 546 c 0,76,77
 816 515 816 515 807 484 c 0,78,79
 802 458 802 458 781 414 c 0,80,81
 761 370 761 370 730.5 311 c 128,-1,82
 700 252 700 252 692 236 c 0,83,84
 674 198 674 198 644 154 c 0,85,86
 598 87 598 87 635 75 c 0,87,88
 652 70 652 70 668 60 c 0,89,90
 690 49 690 49 728 54 c 0,91,92
 730 55 730 55 732 55 c 0,93,94
 744 62 744 62 768 70.5 c 128,-1,95
 792 79 792 79 799 83 c 0,96,97
 862 116 862 116 899 145 c 0,0,1
380.5 604 m 128,-1,99
 364 584 364 584 369 579 c 0,100,101
 375 572 375 572 394.5 585 c 128,-1,102
 414 598 414 598 414 609 c 0,103,104
 414 624 414 624 407 624 c 0,105,98
 397 624 397 624 380.5 604 c 128,-1,99
315 25 m 0,106,107
 330 28 330 28 315 36 c 0,108,109
 312 38 312 38 305 41 c 0,110,111
 282 50 282 50 274 60 c 0,112,113
 268 71 268 71 259 71 c 128,-1,114
 250 71 250 71 245 61 c 0,115,116
 242 56 242 56 255 46.5 c 128,-1,117
 268 37 268 37 286.5 30 c 128,-1,118
 305 23 305 23 315 25 c 0,106,107
566.5 194.5 m 128,-1,120
 597 247 597 247 624 303.5 c 128,-1,121
 651 360 651 360 663 395.5 c 128,-1,122
 675 431 675 431 701 471 c 0,123,124
 725 507 725 507 719 517 c 0,125,126
 704 543 704 543 667 503 c 0,127,128
 652 486 652 486 594 466 c 0,129,130
 537 445 537 445 531 442 c 0,131,132
 506 430 506 430 485 430 c 0,133,134
 470 430 470 430 432.5 390 c 128,-1,135
 395 350 395 350 395 332 c 0,136,137
 395 323 395 323 378 297 c 0,138,139
 298 177 298 177 298 170 c 0,140,141
 298 156 298 156 336.5 126.5 c 128,-1,142
 375 97 375 97 407 86 c 0,143,144
 451 71 451 71 471 77 c 128,-1,145
 491 83 491 83 517 116 c 0,146,119
 536 142 536 142 566.5 194.5 c 128,-1,120
EndSplineSet
EndChar

StartChar: H
Encoding: 72 72 45
Width: 734
GlyphClass: 2
Flags: W
LayerCount: 2
Fore
SplineSet
382 679 m 0,0,1
 402 616 402 616 391 547 c 0,2,3
 384 510 384 510 369 473 c 0,4,5
 368 469 368 469 358.5 450.5 c 128,-1,6
 349 432 349 432 342.5 416 c 128,-1,7
 336 400 336 400 330 381 c 128,-1,8
 324 362 324 362 326.5 347.5 c 128,-1,9
 329 333 329 333 340 327 c 0,10,11
 346 324 346 324 356 324 c 0,12,13
 369 324 369 324 396 297.5 c 128,-1,14
 423 271 423 271 434 249 c 0,15,16
 446 228 446 228 457.5 229 c 128,-1,17
 469 230 469 230 475 254 c 0,18,19
 480 280 480 280 493 290 c 0,20,21
 504 298 504 298 510 327 c 0,22,23
 515 350 515 350 555 435 c 0,24,25
 593 515 593 515 593 525 c 0,26,27
 593 534 593 534 619 584 c 0,28,29
 644 626 644 626 647 644 c 0,30,31
 647 659 647 659 661 687 c 0,32,33
 685 725 685 725 738 704 c 0,34,35
 746 701 746 701 748 691.5 c 128,-1,36
 750 682 750 682 747 668.5 c 128,-1,37
 744 655 744 655 738 639.5 c 128,-1,38
 732 624 732 624 724 607.5 c 128,-1,39
 716 591 716 591 709.5 578 c 128,-1,40
 703 565 703 565 696.5 553.5 c 128,-1,41
 690 542 690 542 689 540 c 0,42,43
 677 516 677 516 674 503 c 0,44,45
 673 499 673 499 670.5 487.5 c 128,-1,46
 668 476 668 476 666 470 c 0,47,48
 664 463 664 463 659 455 c 128,-1,49
 654 447 654 447 648 438 c 128,-1,50
 642 429 642 429 639 423 c 0,51,52
 629 404 629 404 613 364 c 128,-1,53
 597 324 597 324 588 307 c 0,54,55
 586 303 586 303 578 287.5 c 128,-1,56
 570 272 570 272 565.5 263 c 128,-1,57
 561 254 561 254 557 240.5 c 128,-1,58
 553 227 553 227 553 218 c 0,59,60
 555 200 555 200 593 203 c 0,61,62
 601 203 601 203 611 204 c 0,63,64
 663 210 663 210 710 240 c 0,65,66
 758 271 758 271 762 280 c 0,67,68
 768 290 768 290 798 290 c 0,69,70
 823 290 823 290 836 274.5 c 128,-1,71
 849 259 849 259 841 236 c 0,72,73
 836 220 836 220 804.5 197 c 128,-1,74
 773 174 773 174 731 156 c 128,-1,75
 689 138 689 138 658 135 c 0,76,77
 616 130 616 130 604 121 c 0,78,79
 588 110 588 110 514 128 c 0,80,81
 501 132 501 132 487 104.5 c 128,-1,82
 473 77 473 77 467 41 c 0,83,84
 459 9 459 9 451.5 4 c 128,-1,85
 444 -1 444 -1 444 -24 c 0,86,87
 444 -38 444 -38 436 -54.5 c 128,-1,88
 428 -71 428 -71 416.5 -83 c 128,-1,89
 405 -95 405 -95 396 -95 c 0,90,91
 384 -95 384 -95 369 -74 c 0,92,93
 360 -59 360 -59 358 -41 c 128,-1,94
 356 -23 356 -23 360 20 c 0,95,96
 365 94 365 94 356 106 c 0,97,98
 354 111 354 111 343.5 114.5 c 128,-1,99
 333 118 333 118 317 120 c 0,100,101
 300 122 300 122 289 123 c 0,102,103
 277 123 277 123 258 124 c 0,104,105
 238 125 238 125 236 125 c 0,106,107
 215 127 215 127 207 121 c 128,-1,108
 199 115 199 115 183 84 c 0,109,110
 159 40 159 40 148 1 c 0,111,112
 132 -52 132 -52 115 -73.5 c 128,-1,113
 98 -95 98 -95 73 -95 c 0,114,115
 46 -95 46 -95 37.5 -83.5 c 128,-1,116
 29 -72 29 -72 36 -46 c 0,117,118
 44 -18 44 -18 48.5 -3.5 c 128,-1,119
 53 11 53 11 61 34 c 128,-1,120
 69 57 69 57 78 75 c 0,121,122
 84 88 84 88 96 108 c 128,-1,123
 108 128 108 128 117 145.5 c 128,-1,124
 126 163 126 163 130 180 c 0,125,126
 134 199 134 199 134 233 c 2,127,-1
 134 292 l 1,128,-1
 175 324 l 2,129,130
 215 353 215 353 240 403 c 0,131,132
 266 459 266 459 279 484 c 0,133,134
 293 514 293 514 300.5 575 c 128,-1,135
 308 636 308 636 298 642 c 0,136,137
 290 647 290 647 260 589 c 0,138,139
 257 583 257 583 253 576 c 0,140,141
 232 534 232 534 218.5 511.5 c 128,-1,142
 205 489 205 489 192.5 475.5 c 128,-1,143
 180 462 180 462 163 451 c 0,144,145
 143 438 143 438 116.5 441.5 c 128,-1,146
 90 445 90 445 76 461 c 0,147,148
 64 476 64 476 67 529 c 128,-1,149
 70 582 70 582 85 606 c 0,150,151
 107 641 107 641 142.5 671 c 128,-1,152
 178 701 178 701 209 711 c 0,153,154
 246 724 246 724 291 724.5 c 128,-1,155
 336 725 336 725 356 715 c 0,156,157
 374 706 374 706 382 679 c 0,0,1
154 548 m 128,-1,159
 169 558 169 558 176 581 c 0,160,161
 190 616 190 616 173 615 c 0,162,163
 160 612 160 612 143 591 c 0,164,165
 118 559 118 559 128.5 548.5 c 128,-1,158
 139 538 139 538 154 548 c 128,-1,159
328 202 m 0,166,167
 338 205 338 205 338 213 c 0,168,169
 334 223 334 223 307.5 234 c 128,-1,170
 281 245 281 245 274 239 c 0,171,172
 269 233 269 233 284 218 c 0,173,174
 300 199 300 199 328 202 c 0,166,167
EndSplineSet
EndChar

StartChar: I
Encoding: 73 73 46
AltUni2: 0000cf.ffffffff.0 0000ce.ffffffff.0 0000cd.ffffffff.0 0000cc.ffffffff.0
Width: 728
GlyphClass: 2
Flags: W
LayerCount: 2
Fore
SplineSet
419.5 693.5 m 128,-1,1
 454 737 454 737 481 751 c 0,2,3
 517 768 517 768 541.5 766 c 128,-1,4
 566 764 566 764 588 742 c 0,5,6
 638 690 638 690 647 608 c 128,-1,7
 656 526 656 526 620 454 c 0,8,9
 595 397 595 397 568 356 c 0,10,11
 544 323 544 323 532.5 299.5 c 128,-1,12
 521 276 521 276 517 258 c 256,13,14
 513 240 513 240 515 225 c 0,15,16
 521 196 521 196 530.5 190.5 c 128,-1,17
 540 185 540 185 636 202 c 0,18,19
 708 214 708 214 723 214 c 128,-1,20
 738 214 738 214 753 198 c 0,21,22
 796 155 796 155 705 143 c 0,23,24
 661 139 661 139 610 124 c 0,25,26
 561 108 561 108 533 107 c 2,27,-1
 532 107 l 2,28,29
 510 106 510 106 508 95.5 c 128,-1,30
 506 85 506 85 514 29 c 0,31,32
 514 23 514 23 515 19 c 0,33,34
 518 -9 518 -9 516 -22 c 128,-1,35
 514 -35 514 -35 504 -46 c 0,36,37
 474 -79 474 -79 433 -50 c 0,38,39
 411 -35 411 -35 416 -17 c 0,40,41
 419 -8 419 -8 418.5 -2 c 128,-1,42
 418 4 418 4 414 7 c 0,43,44
 405 12 405 12 361 -5 c 128,-1,45
 317 -22 317 -22 294 -41 c 0,46,47
 265 -65 265 -65 230 -75 c 128,-1,48
 195 -85 195 -85 176 -77 c 0,49,50
 173 -74 173 -74 159 -69 c 0,51,52
 145 -63 145 -63 135 -59 c 0,53,54
 124 -54 124 -54 110 -47 c 0,55,56
 97 -40 97 -40 88 -34 c 0,57,58
 78 -28 78 -28 74 -22 c 0,59,60
 64 -11 64 -11 54 54 c 0,61,62
 53 60 53 60 47.5 85 c 128,-1,63
 42 110 42 110 39 130.5 c 128,-1,64
 36 151 36 151 34 175.5 c 128,-1,65
 32 200 32 200 37 216 c 128,-1,66
 42 232 42 232 55 236 c 1,67,68
 49 247 49 247 48 255.5 c 128,-1,69
 47 264 47 264 54 270 c 128,-1,70
 61 276 61 276 68 280 c 128,-1,71
 75 284 75 284 86.5 286.5 c 128,-1,72
 98 289 98 289 106.5 290 c 128,-1,73
 115 291 115 291 124 292 c 0,74,75
 154 294 154 294 166 290.5 c 128,-1,76
 178 287 178 287 203 270 c 0,77,78
 205 268 205 268 217.5 259 c 128,-1,79
 230 250 230 250 239.5 243.5 c 128,-1,80
 249 237 249 237 265 227 c 128,-1,81
 281 217 281 217 293.5 211 c 128,-1,82
 306 205 306 205 319.5 201 c 128,-1,83
 333 197 333 197 343.5 198.5 c 128,-1,84
 354 200 354 200 360 208 c 0,85,86
 370 221 370 221 363 245 c 0,87,88
 361 248 361 248 359 253.5 c 128,-1,89
 357 259 357 259 355.5 263 c 128,-1,90
 354 267 354 267 352.5 272 c 128,-1,91
 351 277 351 277 350 281 c 0,92,93
 349 282 349 282 349.5 298.5 c 128,-1,94
 350 315 350 315 350 316 c 0,95,96
 350 326 350 326 349.5 360 c 128,-1,97
 349 394 349 394 349 406.5 c 128,-1,98
 349 419 349 419 350 447.5 c 128,-1,99
 351 476 351 476 353.5 493.5 c 128,-1,100
 356 511 356 511 361 534.5 c 128,-1,101
 366 558 366 558 374 580 c 0,102,103
 382 603 382 603 385 628 c 0,104,0
 385 650 385 650 419.5 693.5 c 128,-1,1
276 126 m 0,105,106
 264 151 264 151 247 157 c 0,107,108
 243 158 243 158 232 165 c 0,109,110
 221 171 221 171 207 179 c 0,111,112
 194 185 194 185 179 192 c 0,113,114
 165 198 165 198 154 197 c 128,-1,115
 143 196 143 196 137 188 c 0,116,117
 130 177 130 177 142.5 115 c 128,-1,118
 155 53 155 53 168 36 c 0,119,120
 187 11 187 11 205 15.5 c 128,-1,121
 223 20 223 20 253 56 c 0,122,123
 279 88 279 88 282.5 98 c 128,-1,124
 286 108 286 108 276 126 c 0,105,106
553 588 m 0,125,126
 547 645 547 645 536 658 c 256,127,128
 525 671 525 671 518 671 c 128,-1,129
 511 671 511 671 500 651.5 c 128,-1,130
 489 632 489 632 479 603 c 128,-1,131
 469 574 469 574 466 550 c 0,132,133
 458 502 458 502 445.5 484 c 128,-1,134
 433 466 433 466 432.5 433 c 128,-1,135
 432 400 432 400 443 378 c 0,136,137
 447 369 447 369 449 366.5 c 128,-1,138
 451 364 451 364 455 364.5 c 128,-1,139
 459 365 459 365 462.5 368.5 c 128,-1,140
 466 372 466 372 476 382 c 0,141,142
 499 403 499 403 499 420 c 128,-1,143
 499 437 499 437 509 442 c 0,144,145
 517 448 517 448 539 489 c 0,146,147
 551 515 551 515 554 533 c 128,-1,148
 557 551 557 551 553 588 c 0,125,126
EndSplineSet
EndChar

StartChar: J
Encoding: 74 74 47
Width: 670
GlyphClass: 2
Flags: W
LayerCount: 2
Fore
SplineSet
690 131 m 0,0,1
 707 145 707 145 720 142.5 c 128,-1,2
 733 140 733 140 733 118 c 0,3,4
 733 111 733 111 729.5 104 c 128,-1,5
 726 97 726 97 722.5 92 c 128,-1,6
 719 87 719 87 711 80.5 c 128,-1,7
 703 74 703 74 698.5 70.5 c 128,-1,8
 694 67 694 67 685 61 c 128,-1,9
 676 55 676 55 674 54 c 0,10,11
 656 41 656 41 636 33 c 0,12,13
 599 16 599 16 485 -13 c 128,-1,14
 371 -42 371 -42 331 -23 c 0,15,16
 321 -18 321 -18 311 -18 c 128,-1,17
 301 -18 301 -18 293.5 -21 c 128,-1,18
 286 -24 286 -24 278 -31 c 128,-1,19
 270 -38 270 -38 264 -45.5 c 128,-1,20
 258 -53 258 -53 251.5 -64 c 128,-1,21
 245 -75 245 -75 240 -84.5 c 128,-1,22
 235 -94 235 -94 228.5 -105.5 c 128,-1,23
 222 -117 222 -117 217 -124 c 0,24,25
 170 -198 170 -198 152 -210 c 0,26,27
 126 -228 126 -228 95 -254 c 0,28,29
 71 -274 71 -274 53 -277 c 256,30,31
 35 -280 35 -280 -37 -281 c 2,32,-1
 -136 -283 l 1,33,-1
 -136 -217 l 2,34,35
 -136 -172 -136 -172 -131.5 -156 c 128,-1,36
 -127 -140 -127 -140 -103 -111 c 0,37,38
 -73 -73 -73 -73 5 -16 c 0,39,40
 79 37 79 37 86 51 c 0,41,42
 91 64 91 64 144 80 c 0,43,44
 204 100 204 100 214 113 c 0,45,46
 224 120 224 120 215.5 150.5 c 128,-1,47
 207 181 207 181 195 208 c 128,-1,48
 183 235 183 235 169 265 c 128,-1,49
 155 295 155 295 153 303 c 0,50,51
 108 451 108 451 136 588 c 0,52,53
 158 701 158 701 222 759 c 1,54,55
 222 759 222 759 222.5 759.5 c 128,-1,56
 223 760 223 760 223 760 c 2,57,58
 273 806 273 806 341 806 c 128,-1,59
 409 806 409 806 456 756 c 0,60,61
 472 737 472 737 472 650 c 0,62,63
 472 591 472 591 465 542 c 128,-1,64
 458 493 458 493 435 395 c 0,65,66
 411 285 411 285 402 236 c 2,67,-1
 396 195 l 1,68,-1
 438 202 l 2,69,70
 464 205 464 205 476 202 c 128,-1,71
 488 199 488 199 507 183 c 2,72,-1
 533 161 l 1,73,-1
 513 141 l 2,74,75
 493 120 493 120 448 112 c 0,76,77
 435 109 435 109 416 101 c 128,-1,78
 397 93 397 93 378 80 c 128,-1,79
 359 67 359 67 356.5 52 c 128,-1,80
 354 37 354 37 373 21 c 0,81,82
 383 14 383 14 396.5 11.5 c 128,-1,83
 410 9 410 9 428 13 c 128,-1,84
 446 17 446 17 459.5 21 c 128,-1,85
 473 25 473 25 495.5 33 c 128,-1,86
 518 41 518 41 528 44 c 0,87,88
 537 50 537 50 549.5 54.5 c 128,-1,89
 562 59 562 59 575 63.5 c 128,-1,90
 588 68 588 68 594 71 c 0,91,92
 655 103 655 103 690 131 c 0,0,1
127 -109 m 0,93,94
 194 -15 194 -15 194 1 c 0,95,96
 194 34 194 34 113 -36 c 1,97,-1
 107 -43 l 1,98,99
 62 -82 62 -82 50 -82 c 0,100,101
 32 -82 32 -82 -12 -129.5 c 128,-1,102
 -56 -177 -56 -177 -60 -198 c 0,103,104
 -61 -218 -61 -218 -57 -222 c 128,-1,105
 -53 -226 -53 -226 -34 -223 c 0,106,107
 -3 -221 -3 -221 46.5 -185 c 128,-1,108
 96 -149 96 -149 127 -109 c 0,93,94
334 298 m 0,109,110
 412 673 412 673 380 713 c 0,111,112
 368 725 368 725 339 725 c 0,113,114
 330 725 330 725 322.5 724 c 128,-1,115
 315 723 315 723 308 717 c 128,-1,116
 301 711 301 711 293 702 c 256,117,118
 285 693 285 693 273 679 c 0,119,120
 241 640 241 640 227.5 595 c 128,-1,121
 214 550 214 550 207 469 c 0,122,123
 203 419 203 419 205 402 c 128,-1,124
 207 385 207 385 220 368 c 0,125,126
 240 339 240 339 249 287 c 0,127,128
 260 234 260 234 269 229 c 0,129,130
 277 223 277 223 277 204 c 0,131,132
 277 170 277 170 295 196 c 0,133,134
 319 230 319 230 334 298 c 0,109,110
EndSplineSet
EndChar

StartChar: K
Encoding: 75 75 48
Width: 697
GlyphClass: 2
Flags: W
LayerCount: 2
Fore
SplineSet
690 96 m 0,0,1
 706 109 706 109 718.5 106.5 c 128,-1,2
 731 104 731 104 732 83 c 0,3,4
 732 76 732 76 729 69 c 128,-1,5
 726 62 726 62 722 57.5 c 128,-1,6
 718 53 718 53 710.5 46.5 c 128,-1,7
 703 40 703 40 698.5 37 c 128,-1,8
 694 34 694 34 685.5 28 c 128,-1,9
 677 22 677 22 675 21 c 0,10,11
 649 3 649 3 620 -8 c 1,12,13
 603 -19 603 -19 570 -21 c 0,14,15
 558 -22 558 -22 549 -21 c 0,16,17
 543 -21 543 -21 541 -21 c 0,18,19
 487 -20 487 -20 459.5 -4.5 c 128,-1,20
 432 11 432 11 364 76 c 0,21,22
 276 162 276 162 265 157 c 0,23,24
 254 153 254 153 230.5 117 c 128,-1,25
 207 81 207 81 207 69 c 256,26,27
 207 57 207 57 186 24 c 0,28,29
 165 -8 165 -8 158 -31 c 0,30,31
 152 -57 152 -57 133.5 -66 c 128,-1,32
 115 -75 115 -75 98 -59.5 c 128,-1,33
 81 -44 81 -44 82.5 -31 c 128,-1,34
 84 -18 84 -18 108 33 c 0,35,36
 130 79 130 79 129.5 93 c 128,-1,37
 129 107 129 107 105 107 c 0,38,39
 85 107 85 107 60 129 c 0,40,41
 42 142 42 142 37.5 152.5 c 128,-1,42
 33 163 33 163 33 185 c 0,43,44
 35 272 35 272 53 304 c 0,45,46
 61 318 61 318 72 320.5 c 128,-1,47
 83 323 83 323 129 321 c 0,48,49
 195 316 195 316 208 309 c 0,50,51
 243 296 243 296 278 352 c 128,-1,52
 313 408 313 408 313 474 c 0,53,54
 313 526 313 526 301 529.5 c 128,-1,55
 289 533 289 533 261 490 c 0,56,57
 239 456 239 456 212 448 c 0,58,59
 197 444 197 444 177 447.5 c 128,-1,60
 157 451 157 451 140.5 461.5 c 128,-1,61
 124 472 124 472 117 485 c 0,62,63
 108 501 108 501 110.5 539.5 c 128,-1,64
 113 578 113 578 124 605 c 0,65,66
 135 631 135 631 135 640 c 128,-1,67
 135 649 135 649 174 693 c 0,68,69
 209 735 209 735 245 759.5 c 128,-1,70
 281 784 281 784 329 794 c 0,71,72
 357 800 357 800 373 795 c 0,73,74
 401 787 401 787 415 755 c 0,75,76
 444 688 444 688 429 566 c 0,77,78
 422 508 422 508 413 499 c 0,79,80
 405 492 405 492 405 457 c 0,81,82
 405 428 405 428 384.5 385.5 c 128,-1,83
 364 343 364 343 336 313 c 0,84,85
 309 285 309 285 322 272 c 0,86,87
 326 270 326 270 332.5 270 c 128,-1,88
 339 270 339 270 388 312 c 0,89,90
 438 356 438 356 495 413 c 0,91,92
 546 464 546 464 577 507 c 128,-1,93
 608 550 608 550 608 570 c 0,94,95
 610 590 610 590 617 601 c 0,96,97
 623 611 623 611 643.5 611 c 128,-1,98
 664 611 664 611 678 601 c 0,99,100
 699 586 699 586 679 537 c 128,-1,101
 659 488 659 488 609 430 c 0,102,103
 564 377 564 377 484 303 c 128,-1,104
 404 229 404 229 385 221 c 0,105,106
 364 214 364 214 370.5 190 c 128,-1,107
 377 166 377 166 409 134 c 0,108,109
 450 95 450 95 450 84 c 0,110,111
 450 74 450 74 468 57 c 0,112,113
 473 53 473 53 479 50 c 128,-1,114
 485 47 485 47 491 45 c 128,-1,115
 497 43 497 43 506 42.5 c 128,-1,116
 515 42 515 42 521.5 41.5 c 128,-1,117
 528 41 528 41 538 42 c 128,-1,118
 548 43 548 43 554 43.5 c 128,-1,119
 560 44 560 44 570.5 46 c 128,-1,120
 581 48 581 48 585.5 48.5 c 128,-1,121
 590 49 590 49 600 51 c 128,-1,122
 610 53 610 53 611 53 c 0,123,124
 643 59 643 59 690 96 c 0,0,1
245 581 m 0,125,126
 295 628 295 628 268 655 c 0,127,128
 257 666 257 666 242 665.5 c 128,-1,129
 227 665 227 665 218 655 c 0,130,131
 204 637 204 637 192 604 c 128,-1,132
 180 571 180 571 184 561 c 0,133,134
 195 531 195 531 245 581 c 0,125,126
175.5 210.5 m 128,-1,136
 188 221 188 221 186 227 c 0,137,138
 183 239 183 239 160.5 240 c 128,-1,139
 138 241 138 241 128 231 c 0,140,141
 119 222 119 222 117.5 210 c 128,-1,142
 116 198 116 198 126 193 c 0,143,144
 131 189 131 189 147 194.5 c 128,-1,135
 163 200 163 200 175.5 210.5 c 128,-1,136
EndSplineSet
EndChar

StartChar: L
Encoding: 76 76 49
Width: 749
GlyphClass: 2
Flags: W
LayerCount: 2
Fore
SplineSet
752 151 m 0,0,1
 753 151 753 151 754 152 c 128,-1,2
 755 153 755 153 755 153 c 2,3,4
 774 169 774 169 786 163 c 0,5,6
 794 159 794 159 796 147 c 0,7,8
 802 117 802 117 756 83 c 0,9,10
 690 35 690 35 621 -8 c 0,11,12
 610 -14 610 -14 605 -16 c 0,13,14
 597 -17 597 -17 582 -13 c 0,15,16
 537 -1 537 -1 439 29 c 0,17,18
 397 39 397 39 373 44 c 0,19,20
 331 52 331 52 317 60 c 0,21,22
 304 68 304 68 267 45 c 0,23,24
 224 19 224 19 185.5 9 c 128,-1,25
 147 -1 147 -1 108 13.5 c 128,-1,26
 69 28 69 28 42 71 c 0,27,28
 39 78 39 78 36.5 84.5 c 128,-1,29
 34 91 34 91 33.5 98.5 c 128,-1,30
 33 106 33 106 33 111.5 c 128,-1,31
 33 117 33 117 34.5 126.5 c 128,-1,32
 36 136 36 136 36.5 140 c 128,-1,33
 37 144 37 144 40 155 c 128,-1,34
 43 166 43 166 43 168 c 0,35,36
 49 195 49 195 64.5 218.5 c 128,-1,37
 80 242 80 242 100 249 c 0,38,39
 126 258 126 258 169.5 254 c 128,-1,40
 213 250 213 250 229 236 c 0,41,42
 274 202 274 202 299.5 211 c 128,-1,43
 325 220 325 220 354 281 c 0,44,45
 370 313 370 313 397 369 c 0,46,47
 451 479 451 479 334 468 c 0,48,49
 293 465 293 465 264 481 c 0,50,51
 212 509 212 509 178 519 c 0,52,53
 156 525 156 525 146.5 539.5 c 128,-1,54
 137 554 137 554 146 566 c 0,55,56
 155 576 155 576 174 568 c 0,57,58
 214 550 214 550 240 542 c 0,59,60
 267 534 267 534 292 531 c 0,61,62
 317 529 317 529 353 530 c 0,63,64
 429 530 429 530 448 542 c 0,65,66
 456 549 456 549 467.5 568 c 128,-1,67
 479 587 479 587 487.5 611.5 c 128,-1,68
 496 636 496 636 500 657 c 0,69,70
 502 678 502 678 529 715 c 128,-1,71
 556 752 556 752 584 770 c 0,72,73
 617 793 617 793 673 760 c 0,74,75
 693 748 693 748 697 738.5 c 128,-1,76
 701 729 701 729 700 695 c 0,77,78
 699 651 699 651 688 618.5 c 128,-1,79
 677 586 677 586 653 562 c 128,-1,80
 629 538 629 538 591 519 c 0,81,82
 555 501 555 501 538 476 c 128,-1,83
 521 451 521 451 489 366 c 0,84,85
 434 224 434 224 400 168 c 0,86,87
 381 136 381 136 391 115.5 c 128,-1,88
 401 95 401 95 440 92 c 0,89,90
 491 88 491 88 552 68 c 0,91,92
 590 55 590 55 636 72 c 0,93,94
 678 88 678 88 746 146 c 0,95,96
 750 149 750 149 752 151 c 0,0,1
574 666 m 0,97,98
 542 613 542 613 573 612 c 0,99,100
 583 612 583 612 599 627 c 128,-1,101
 615 642 615 642 624.5 660 c 128,-1,102
 634 678 634 678 630 686 c 0,103,104
 612 721 612 721 574 666 c 0,97,98
206 113 m 0,105,106
 239 131 239 131 238.5 143.5 c 128,-1,107
 238 156 238 156 203 169 c 0,108,109
 171 182 171 182 164.5 181.5 c 128,-1,110
 158 181 158 181 139 166 c 0,111,112
 122 151 122 151 123 138.5 c 128,-1,113
 124 126 124 126 146 110 c 0,114,115
 163 97 163 97 170 97.5 c 128,-1,116
 177 98 177 98 206 113 c 0,105,106
EndSplineSet
EndChar

StartChar: M
Encoding: 77 77 50
Width: 910
GlyphClass: 2
Flags: W
LayerCount: 2
Fore
SplineSet
167 756 m 0,0,1
 217 785 217 785 223 789 c 0,2,3
 238 804 238 804 254 788 c 0,4,5
 265 777 265 777 285 788 c 0,6,7
 304 797 304 797 333 784 c 0,8,9
 351 774 351 774 357.5 763 c 128,-1,10
 364 752 364 752 368 720 c 0,11,12
 375 677 375 677 385.5 668.5 c 128,-1,13
 396 660 396 660 418 680 c 0,14,15
 437 701 437 701 450.5 701 c 128,-1,16
 464 701 464 701 487 716 c 0,17,18
 526 742 526 742 562.5 715.5 c 128,-1,19
 599 689 599 689 599 635 c 0,20,21
 599 606 599 606 608 605 c 128,-1,22
 617 604 617 604 645 626 c 0,23,24
 717 685 717 685 756.5 695.5 c 128,-1,25
 796 706 796 706 833 674 c 2,26,-1
 864 648 l 1,27,-1
 858 575 l 2,28,29
 850 500 850 500 826 453 c 0,30,31
 803 403 803 403 803 394.5 c 128,-1,32
 803 386 803 386 790 359 c 0,33,34
 765 311 765 311 770.5 220 c 128,-1,35
 776 129 776 129 805 119 c 0,36,37
 825 115 825 115 858 134 c 0,38,39
 890 155 890 155 915 155 c 0,40,41
 936 155 936 155 953 136.5 c 128,-1,42
 970 118 970 118 963 102 c 256,43,44
 956 86 956 86 916.5 66.5 c 128,-1,45
 877 47 877 47 839 41 c 0,46,47
 812 39 812 39 798.5 41.5 c 128,-1,48
 785 44 785 44 765 58 c 0,49,50
 724 89 724 89 710 125.5 c 128,-1,51
 696 162 696 162 696 239 c 0,52,53
 696 334 696 334 704 364 c 0,54,55
 721 416 721 416 734 474 c 128,-1,56
 747 532 747 532 751 566 c 0,57,58
 754 600 754 600 747 604 c 1,59,60
 720 604 720 604 625 485.5 c 128,-1,61
 530 367 530 367 519 317 c 0,62,63
 513 291 513 291 480 215 c 128,-1,64
 447 139 447 139 414 76 c 0,65,66
 397 46 397 46 374 39.5 c 128,-1,67
 351 33 351 33 337.5 54 c 128,-1,68
 324 75 324 75 332 109 c 0,69,70
 336 137 336 137 355 176 c 0,71,72
 375 212 375 212 375 231.5 c 128,-1,73
 375 251 375 251 394 276 c 0,74,75
 415 302 415 302 417 325.5 c 128,-1,76
 419 349 419 349 434 367 c 0,77,78
 455 389 455 389 489 494.5 c 128,-1,79
 523 600 523 600 515 615 c 0,80,81
 511 622 511 622 472 602.5 c 128,-1,82
 433 583 433 583 433 574 c 128,-1,83
 433 565 433 565 378 474 c 0,84,85
 322 389 322 389 300 324 c 0,86,87
 277 263 277 263 253 228 c 0,88,89
 228 190 228 190 228 180 c 0,90,91
 227 165 227 165 191 97.5 c 128,-1,92
 155 30 155 30 144 25 c 0,93,94
 130 18 130 18 120 25 c 0,95,96
 68 59 68 59 107 129 c 0,97,98
 130 170 130 170 141 191 c 0,99,100
 164 231 164 231 174 253 c 0,101,102
 195 297 195 297 219.5 386 c 128,-1,103
 244 475 244 475 261 515 c 0,104,105
 285 569 285 569 289 590 c 128,-1,106
 293 611 293 611 289 649 c 2,107,-1
 282 706 l 1,108,-1
 247 703 l 2,109,110
 214 699 214 699 199.5 686 c 128,-1,111
 185 673 185 673 198 658 c 0,112,113
 224 627 224 627 162 562 c 0,114,115
 94 491 94 491 54 515 c 0,116,117
 33 526 33 526 33 567.5 c 128,-1,118
 33 609 33 609 52 655 c 0,119,120
 67 688 67 688 86.5 705.5 c 128,-1,121
 106 723 106 723 167 756 c 0,0,1
EndSplineSet
EndChar

StartChar: N
Encoding: 78 78 51
AltUni2: 0000d1.ffffffff.0
Width: 941
GlyphClass: 2
Flags: W
LayerCount: 2
Fore
SplineSet
950 168 m 0,0,1
 969 184 969 184 983.5 181 c 128,-1,2
 998 178 998 178 998 153 c 256,3,4
 998 128 998 128 970.5 101.5 c 128,-1,5
 943 75 943 75 903 56 c 128,-1,6
 863 37 863 37 826.5 24 c 128,-1,7
 790 11 790 11 766 7 c 0,8,9
 686 -9 686 -9 610.5 8.5 c 128,-1,10
 535 26 535 26 497 87 c 0,11,12
 462 143 462 143 469 211.5 c 128,-1,13
 476 280 476 280 529 395 c 0,14,15
 558 459 558 459 565 487 c 0,16,17
 571 510 571 510 597 558 c 0,18,19
 634 624 634 624 605 623 c 0,20,21
 584 621 584 621 543 585 c 0,22,23
 509 555 509 555 475 528 c 0,24,25
 451 512 451 512 385.5 421.5 c 128,-1,26
 320 331 320 331 304 295 c 0,27,28
 289 258 289 258 260 217 c 0,29,30
 212 145 212 145 163 55 c 0,31,32
 138 6 138 6 129 6 c 0,33,34
 123 6 123 6 100 0 c 0,35,36
 78 -6 78 -6 55 26 c 2,37,-1
 33 58 l 1,38,-1
 62 102 l 2,39,40
 81 130 81 130 120.5 201.5 c 128,-1,41
 160 273 160 273 179 299 c 0,42,43
 193 321 193 321 214 360 c 256,44,45
 235 399 235 399 253 439 c 0,46,47
 270 478 270 478 276 499 c 0,48,49
 284 525 284 525 306 566 c 0,50,51
 322 595 322 595 326 632 c 128,-1,52
 330 669 330 669 319 680 c 0,53,54
 316 684 316 684 294 676 c 128,-1,55
 272 668 272 668 247 655 c 256,56,57
 222 642 222 642 197 627 c 0,58,59
 173 613 173 613 164 602 c 0,60,61
 145 582 145 582 128.5 582.5 c 128,-1,62
 112 583 112 583 90 608 c 0,63,64
 66 634 66 634 66 637 c 0,65,66
 66 649 66 649 165.5 706 c 128,-1,67
 265 763 265 763 313 780 c 0,68,69
 336 788 336 788 371 785 c 128,-1,70
 406 782 406 782 424 770 c 0,71,72
 434 764 434 764 438.5 756 c 128,-1,73
 443 748 443 748 444 734 c 0,74,75
 446 720 446 720 446 693 c 2,76,-1
 446 633 l 1,77,-1
 507 680 l 2,78,79
 548 712 548 712 567.5 720.5 c 128,-1,80
 587 729 587 729 625 729 c 0,81,82
 669 731 669 731 678.5 725.5 c 128,-1,83
 688 720 688 720 696 693 c 0,84,85
 710 659 710 659 702 610 c 0,86,87
 692 548 692 548 668.5 468.5 c 128,-1,88
 645 389 645 389 625 351 c 0,89,90
 600 302 600 302 600 277 c 0,91,92
 600 254 600 254 586 243 c 0,93,94
 562 223 562 223 560 186.5 c 128,-1,95
 558 150 558 150 575.5 119.5 c 128,-1,96
 593 89 593 89 622 82 c 0,97,98
 662 74 662 74 715.5 77.5 c 128,-1,99
 769 81 769 81 819 92 c 0,100,101
 837 98 837 98 845 102 c 0,102,103
 912 137 912 137 950 168 c 0,0,1
EndSplineSet
EndChar

StartChar: O
Encoding: 79 79 52
AltUni2: 0000d8.ffffffff.0 0000d6.ffffffff.0 0000d5.ffffffff.0 0000d4.ffffffff.0 0000d3.ffffffff.0 0000d2.ffffffff.0
Width: 625
GlyphClass: 2
Flags: W
LayerCount: 2
Fore
SplineSet
399 699 m 128,-1,1
 406 701 406 701 427 717 c 0,2,3
 460 742 460 742 517 750 c 0,4,5
 529 750 529 750 570 713 c 0,6,7
 665 625 665 625 607 510 c 0,8,9
 571 440 571 440 587 436 c 0,10,11
 588 436 588 436 591 437 c 0,12,13
 627 453 627 453 650 460 c 128,-1,14
 673 467 673 467 687.5 468 c 128,-1,15
 702 469 702 469 708 462.5 c 128,-1,16
 714 456 714 456 714 441 c 0,17,18
 714 416 714 416 685.5 394 c 128,-1,19
 657 372 657 372 608 361 c 0,20,21
 574 353 574 353 559.5 344.5 c 128,-1,22
 545 336 545 336 533 317 c 0,23,24
 195 -221 195 -221 60 56 c 0,25,26
 43 93 43 93 36 145.5 c 128,-1,27
 29 198 29 198 38 221 c 0,28,29
 56 266 56 266 80 398 c 0,30,31
 92 452 92 452 115 495 c 0,32,33
 137 545 137 545 137 551 c 0,34,35
 137 564 137 564 211.5 623.5 c 128,-1,36
 286 683 286 683 322 700 c 0,37,38
 352 714 352 714 362.5 715.5 c 128,-1,39
 373 717 373 717 382 708 c 0,40,0
 392 697 392 697 399 699 c 128,-1,1
355 532 m 0,41,42
 342 551 342 551 342 576 c 0,43,44
 342 603 342 603 332.5 604 c 128,-1,45
 323 605 323 605 291 580 c 0,46,47
 198 506 198 506 174 449 c 0,48,49
 153 402 153 402 126.5 283.5 c 128,-1,50
 100 165 100 165 105 143 c 0,51,52
 109 118 109 118 109 91 c 0,53,54
 109 70 109 70 125.5 53 c 128,-1,55
 142 36 142 36 162 36 c 0,56,57
 208 36 208 36 300 126 c 0,58,59
 392 217 392 217 441 310 c 2,60,-1
 466 359 l 1,61,-1
 423 400 l 2,62,63
 380 444 380 444 373 478 c 0,64,65
 367 514 367 514 355 532 c 0,41,42
547.5 580.5 m 128,-1,67
 554 621 554 621 542 639 c 0,68,69
 535 648 535 648 507.5 648 c 128,-1,70
 480 648 480 648 472 626 c 0,71,72
 468 615 468 615 461.5 608.5 c 128,-1,73
 455 602 455 602 450 602 c 0,74,75
 437 602 437 602 433.5 571.5 c 128,-1,76
 430 541 430 541 439 504 c 0,77,78
 448 466 448 466 464 448 c 0,79,80
 471 440 471 440 475.5 437 c 128,-1,81
 480 434 480 434 486.5 440 c 128,-1,82
 493 446 493 446 500.5 458.5 c 128,-1,83
 508 471 508 471 520 497 c 0,84,66
 541 540 541 540 547.5 580.5 c 128,-1,67
EndSplineSet
EndChar

StartChar: P
Encoding: 80 80 53
Width: 705
GlyphClass: 2
Flags: W
LayerCount: 2
Fore
SplineSet
270 449 m 0,0,1
 317 551 317 551 317 567 c 0,2,3
 317 576 317 576 323 582 c 0,4,5
 328 588 328 588 333 595 c 0,6,7
 338 601 338 601 338 610 c 0,8,9
 332 628 332 628 298 617.5 c 128,-1,10
 264 607 264 607 255 598 c 0,11,12
 223 573 223 573 186 582.5 c 128,-1,13
 149 592 149 592 149 627 c 0,14,15
 149 640 149 640 181.5 664 c 128,-1,16
 214 688 214 688 234 688 c 0,17,18
 246 688 246 688 287.5 706 c 128,-1,19
 329 724 329 724 332 724 c 0,20,21
 350 728 350 728 454.5 724.5 c 128,-1,22
 559 721 559 721 611 713 c 0,23,24
 659 707 659 707 715 662 c 0,25,26
 787 610 787 610 785.5 554 c 128,-1,27
 784 498 784 498 711 393 c 0,28,29
 675 342 675 342 654 316 c 256,30,31
 633 290 633 290 620 279.5 c 128,-1,32
 607 269 607 269 595 269 c 0,33,34
 574 269 574 269 556 251 c 0,35,36
 524 215 524 215 439.5 184.5 c 128,-1,37
 355 154 355 154 305 160 c 0,38,39
 291 160 291 160 280.5 161.5 c 128,-1,40
 270 163 270 163 260 157 c 256,41,42
 250 151 250 151 242.5 145 c 128,-1,43
 235 139 235 139 227 123 c 0,44,45
 219 108 219 108 211 90 c 0,46,47
 204 72 204 72 194 42 c 0,48,49
 180 3 180 3 172.5 -13 c 128,-1,50
 165 -29 165 -29 157.5 -35 c 128,-1,51
 150 -41 150 -41 138 -41 c 0,52,53
 113 -41 113 -41 98 -14 c 0,54,55
 88 5 88 5 91 21 c 0,56,57
 95 37 95 37 122 94 c 0,58,59
 159 175 159 175 155 184 c 0,60,61
 149 191 149 191 94 187 c 0,62,63
 55 184 55 184 43 187.5 c 128,-1,64
 31 191 31 191 19 211 c 0,65,66
 6 231 6 231 6 238.5 c 128,-1,67
 6 246 6 246 21 266 c 0,68,69
 39 291 39 291 100 311 c 128,-1,70
 161 331 161 331 177 318 c 0,71,72
 188 311 188 311 205.5 319.5 c 128,-1,73
 223 328 223 328 223 342 c 0,74,75
 223 352 223 352 270 449 c 0,0,1
676 607 m 128,-1,77
 669 616 669 616 645 630 c 0,78,79
 619 643 619 643 559 649 c 0,80,81
 475 656 475 656 443 640.5 c 128,-1,82
 411 625 411 625 411 577 c 0,83,84
 411 542 411 542 400.5 536 c 128,-1,85
 390 530 390 530 390 512 c 0,86,87
 390 490 390 490 290 287 c 0,88,89
 268 241 268 241 314 241 c 0,90,91
 344 241 344 241 390 260 c 0,92,93
 562 330 562 330 653 472 c 0,94,95
 680 510 680 510 686.5 529 c 128,-1,96
 693 548 693 548 689 567 c 0,97,76
 683 598 683 598 676 607 c 128,-1,77
EndSplineSet
EndChar

StartChar: Q
Encoding: 81 81 54
Width: 591
GlyphClass: 2
Flags: W
LayerCount: 2
Fore
SplineSet
693 101 m 0,0,1
 690 78 690 78 678 60 c 0,2,3
 648 16 648 16 594 -7 c 0,4,5
 543 -29 543 -29 489.5 -17.5 c 128,-1,6
 436 -6 436 -6 398 35 c 2,7,-1
 350 86 l 1,8,-1
 311 48 l 2,9,10
 270 10 270 10 238 -5 c 128,-1,11
 206 -20 206 -20 162 -20 c 0,12,13
 113 -20 113 -20 92 -4 c 128,-1,14
 71 12 71 12 53 61 c 0,15,16
 39 93 39 93 36 124 c 128,-1,17
 33 155 33 155 33 224 c 0,18,19
 34 302 34 302 40 338 c 256,20,21
 46 374 46 374 61 385 c 0,22,23
 71 389 71 389 71 404 c 256,24,25
 71 419 71 419 105 490 c 0,26,27
 133 550 133 550 195.5 617.5 c 128,-1,28
 258 685 258 685 307 711 c 0,29,30
 354 736 354 736 404.5 730 c 128,-1,31
 455 724 455 724 493 688 c 0,32,33
 513 670 513 670 519.5 657 c 128,-1,34
 526 644 526 644 526 621 c 0,35,36
 526 586 526 586 534 579 c 0,37,38
 543 575 543 575 550 532 c 0,39,40
 554 507 554 507 549.5 486 c 128,-1,41
 545 465 545 465 528 422 c 0,42,43
 499 353 499 353 499 329 c 128,-1,44
 499 305 499 305 489.5 300 c 128,-1,45
 480 295 480 295 480 275 c 0,46,47
 480 257 480 257 442 200 c 2,48,-1
 402 143 l 1,49,-1
 426 101 l 2,50,51
 442 72 442 72 451 65.5 c 128,-1,52
 460 59 460 59 491 56 c 0,53,54
 535 53 535 53 583 73 c 0,55,56
 601 82 601 82 616 85 c 1,57,58
 639 99 639 99 656 113 c 0,59,60
 680 129 680 129 688 124.5 c 128,-1,61
 696 120 696 120 693 101 c 0,0,1
390 254.5 m 128,-1,63
 404 278 404 278 413.5 309.5 c 128,-1,64
 423 341 423 341 423 365 c 0,65,66
 423 394 423 394 452 449 c 0,67,68
 480 502 480 502 480 522 c 0,69,70
 480 536 480 536 464 564.5 c 128,-1,71
 448 593 448 593 441 593 c 0,72,73
 435 593 435 593 426 623 c 0,74,75
 421 646 421 646 409.5 652 c 128,-1,76
 398 658 398 658 371 651 c 0,77,78
 360 650 360 650 341.5 636 c 128,-1,79
 323 622 323 622 302 601.5 c 128,-1,80
 281 581 281 581 259 556.5 c 128,-1,81
 237 532 237 532 219 507 c 256,82,83
 201 482 201 482 190 462 c 0,84,85
 182 447 182 447 160 408 c 0,86,87
 138 370 138 370 132 358 c 0,88,89
 117 331 117 331 112 303.5 c 128,-1,90
 107 276 107 276 104 214 c 0,91,92
 97 121 97 121 105 90.5 c 128,-1,93
 113 60 113 60 145 53 c 0,94,95
 165 49 165 49 176 52 c 256,96,97
 187 55 187 55 204 69 c 0,98,99
 231 92 231 92 243 92 c 0,100,101
 256 92 256 92 290 134 c 0,102,103
 314 163 314 163 317 172 c 128,-1,104
 320 181 320 181 311 189 c 0,105,106
 302 200 302 200 289.5 200.5 c 128,-1,107
 277 201 277 201 244 193 c 0,108,109
 200 184 200 184 181.5 191.5 c 128,-1,110
 163 199 163 199 163 222 c 0,111,112
 163 232 163 232 169 239 c 128,-1,113
 175 246 175 246 186.5 252.5 c 128,-1,114
 198 259 198 259 213.5 263.5 c 128,-1,115
 229 268 229 268 248 271 c 0,116,117
 274 274 274 274 288.5 271 c 128,-1,118
 303 268 303 268 324 254 c 0,119,120
 357 230 357 230 365 230 c 0,121,62
 376 231 376 231 390 254.5 c 128,-1,63
EndSplineSet
EndChar

StartChar: R
Encoding: 82 82 55
Width: 795
GlyphClass: 2
Flags: W
LayerCount: 2
Fore
SplineSet
813 205 m 1,0,1
 843 214 843 214 840 185 c 0,2,3
 838 172 838 172 831 155 c 0,4,5
 816 125 816 125 786 101 c 128,-1,6
 756 77 756 77 725 64 c 128,-1,7
 694 51 694 51 665 42.5 c 128,-1,8
 636 34 636 34 617 32 c 2,9,-1
 599 29 l 1,10,11
 539 36 539 36 484 55 c 128,-1,12
 429 74 429 74 388.5 100 c 128,-1,13
 348 126 348 126 322.5 147 c 128,-1,14
 297 168 297 168 276 190 c 1,15,16
 268 185 268 185 266 183 c 0,17,18
 259 177 259 177 250 162 c 0,19,20
 242 147 242 147 235 129 c 0,21,22
 227 110 227 110 217 82 c 0,23,24
 204 43 204 43 197 28 c 0,25,26
 193 20 193 20 189.5 14.5 c 128,-1,27
 186 9 186 9 182 6 c 0,28,29
 175 0 175 0 163 0 c 0,30,31
 138 0 138 0 124 26 c 0,32,33
 113 45 113 45 117 61.5 c 128,-1,34
 121 78 121 78 147 133 c 0,35,36
 184 213 184 213 179 221 c 0,37,38
 173 229 173 229 119 224 c 0,39,40
 81 221 81 221 69.5 224.5 c 128,-1,41
 58 228 58 228 46 248 c 0,42,43
 33 268 33 268 33 275.5 c 128,-1,44
 33 283 33 283 47 302 c 0,45,46
 65 327 65 327 125 346.5 c 128,-1,47
 185 366 185 366 201 353 c 0,48,49
 212 346 212 346 229.5 354.5 c 128,-1,50
 247 363 247 363 247 376 c 0,51,52
 247 387 247 387 292 482 c 0,53,54
 339 582 339 582 339 598 c 0,55,56
 339 607 339 607 344 612 c 0,57,58
 350 619 350 619 354 625 c 0,59,60
 360 632 360 632 360 640 c 0,61,62
 354 658 354 658 320 647.5 c 128,-1,63
 286 637 286 637 277 628 c 0,64,65
 247 604 247 604 210 613.5 c 128,-1,66
 173 623 173 623 173 656 c 0,67,68
 173 670 173 670 205.5 693 c 128,-1,69
 238 716 238 716 257 716 c 0,70,71
 269 716 269 716 310 734 c 128,-1,72
 351 752 351 752 354 752 c 0,73,74
 371 756 371 756 473.5 752.5 c 128,-1,75
 576 749 576 749 628 741 c 0,76,77
 674 735 674 735 730 692 c 0,78,79
 800 640 800 640 799 585 c 128,-1,80
 798 530 798 530 726 426 c 0,81,82
 690 376 690 376 670 351 c 0,83,84
 650 325 650 325 636.5 315 c 128,-1,85
 623 305 623 305 612 305 c 0,86,87
 591 305 591 305 573 287 c 0,88,89
 544 254 544 254 466 225 c 1,90,-1
 465 224 l 1,91,92
 408 198 408 198 414 186 c 2,93,-1
 416 183 l 2,94,95
 435 149 435 149 466.5 130 c 128,-1,96
 498 111 498 111 529 108.5 c 128,-1,97
 560 106 560 106 588.5 108.5 c 128,-1,98
 617 111 617 111 635 117 c 2,99,-1
 653 122 l 1,100,101
 661 132 661 132 678 137 c 128,-1,102
 695 142 695 142 709 143 c 2,103,-1
 723 144 l 1,104,-1
 813 205 l 1,0,1
325 265 m 0,105,106
 354 265 354 265 400 284 c 0,107,108
 568 353 568 353 657 492 c 0,109,110
 684 531 684 531 690.5 549 c 128,-1,111
 697 567 697 567 693 586 c 0,112,113
 687 617 687 617 680.5 625.5 c 128,-1,114
 674 634 674 634 650 648 c 0,115,116
 624 661 624 661 565 667 c 0,117,118
 483 674 483 674 451.5 658.5 c 128,-1,119
 420 643 420 643 420 596 c 0,120,121
 420 561 420 561 410 555.5 c 128,-1,122
 400 550 400 550 400 532 c 0,123,124
 400 510 400 510 301 311 c 0,125,126
 280 265 280 265 325 265 c 0,105,106
EndSplineSet
EndChar

StartChar: S
Encoding: 83 83 56
Width: 776
GlyphClass: 2
Flags: W
LayerCount: 2
Fore
SplineSet
861 138 m 256,0,1
 861 115 861 115 821 87 c 1,2,3
 812 67 812 67 789 52 c 0,4,5
 750 27 750 27 721 21 c 0,6,7
 616 -11 616 -11 557 -21.5 c 128,-1,8
 498 -32 498 -32 446 -29 c 0,9,10
 431 -28 431 -28 420.5 -28.5 c 128,-1,11
 410 -29 410 -29 401.5 -31 c 128,-1,12
 393 -33 393 -33 385 -37 c 128,-1,13
 377 -41 377 -41 369 -48 c 0,14,15
 332 -74 332 -74 261 -65.5 c 128,-1,16
 190 -57 190 -57 151 -20 c 0,17,18
 126 3 126 3 113 6.5 c 128,-1,19
 100 10 100 10 81 -2 c 0,20,21
 52 -19 52 -19 38.5 2 c 128,-1,22
 25 23 25 23 44 55 c 0,23,24
 55 73 55 73 43 124.5 c 128,-1,25
 31 176 31 176 41 185.5 c 128,-1,26
 51 195 51 195 93 171 c 2,27,-1
 138 146 l 1,28,-1
 179 187 l 2,29,30
 208 215 208 215 278.5 299.5 c 128,-1,31
 349 384 349 384 370 406 c 2,32,-1
 407 444 l 1,33,-1
 402 505 l 2,34,35
 397 566 397 566 382 593 c 0,36,37
 360 635 360 635 371 673.5 c 128,-1,38
 382 712 382 712 432 765 c 0,39,40
 452 785 452 785 465.5 792 c 128,-1,41
 479 799 479 799 498 799 c 0,42,43
 521 799 521 799 556 782.5 c 128,-1,44
 591 766 591 766 592 756 c 0,45,46
 603 686 603 686 591 674 c 0,47,48
 585 667 585 667 568 613 c 0,49,50
 551 563 551 563 523 526 c 0,51,52
 498 489 498 489 498 480 c 0,53,54
 498 469 498 469 485 456 c 0,55,56
 472 440 472 440 480 394 c 0,57,58
 526 158 526 158 489 83 c 0,59,60
 472 47 472 47 480 42 c 0,61,62
 487 36 487 36 527 47 c 0,63,64
 559 55 559 55 618 64 c 0,65,66
 632 67 632 67 646.5 72 c 128,-1,67
 661 77 661 77 676.5 83.5 c 128,-1,68
 692 90 692 90 704 93 c 0,69,70
 719 97 719 97 724 101 c 0,71,72
 728 104 728 104 734.5 111 c 128,-1,73
 741 118 741 118 745 120 c 0,74,75
 753 127 753 127 766.5 132 c 128,-1,76
 780 137 780 137 795 142 c 128,-1,77
 810 147 810 147 818 152 c 0,78,79
 833 163 833 163 847 162 c 128,-1,80
 861 161 861 161 861 138 c 256,0,1
433 144 m 128,-1,82
 442 174 442 174 436 250 c 0,83,84
 428 337 428 337 419 341 c 0,85,86
 411 344 411 344 368 295 c 0,87,88
 337 260 337 260 273 190 c 0,89,90
 219 134 219 134 219 118 c 0,91,92
 219 106 219 106 256 82.5 c 128,-1,93
 293 59 293 59 323 51 c 0,94,95
 339 47 339 47 350.5 52.5 c 128,-1,96
 362 58 362 58 385 77 c 0,97,81
 424 114 424 114 433 144 c 128,-1,82
463 568 m 0,98,99
 472 572 472 572 499 637.5 c 128,-1,100
 526 703 526 703 521 712 c 0,101,102
 513 737 513 737 483 711 c 0,103,104
 461 693 461 693 452 665 c 0,105,106
 439 625 439 625 451 581 c 0,107,108
 457 568 457 568 463 568 c 0,98,99
EndSplineSet
EndChar

StartChar: T
Encoding: 84 84 57
Width: 926
GlyphClass: 2
Flags: W
LayerCount: 2
Fore
SplineSet
1025 692 m 0,0,1
 1054 664 1054 664 1020 630 c 0,2,3
 1000 612 1000 612 953 602 c 256,4,5
 906 592 906 592 791 583 c 2,6,-1
 707 576 l 1,7,-1
 684 501 l 2,8,9
 661 424 661 424 648 410 c 0,10,11
 632 388 632 388 620 364 c 0,12,13
 560 232 560 232 560 211 c 0,14,15
 560 194 560 194 537 165 c 0,16,17
 514 137 514 137 515.5 125 c 128,-1,18
 517 113 517 113 542 88 c 0,19,20
 543 87 543 87 544 86 c 2,21,-1
 546 84 l 1,22,23
 596 112 596 112 628 138 c 0,24,25
 649 155 649 155 665 152 c 128,-1,26
 681 149 681 149 681 121 c 0,27,28
 681 113 681 113 677 104 c 128,-1,29
 673 95 673 95 668.5 89 c 128,-1,30
 664 83 664 83 654.5 75 c 128,-1,31
 645 67 645 67 639.5 63 c 128,-1,32
 634 59 634 59 622.5 51.5 c 128,-1,33
 611 44 611 44 609 43 c 0,34,35
 565 13 565 13 476 -8 c 0,36,37
 454 -13 454 -13 433 -7 c 1,38,39
 345 -19 345 -19 276 -19 c 0,40,41
 237 -19 237 -19 218 -18 c 0,42,43
 199 -16 199 -16 187.5 -10.5 c 128,-1,44
 176 -5 176 -5 162 10 c 0,45,46
 129 39 129 39 101 44 c 0,47,48
 75 46 75 46 49 80 c 0,49,50
 33 101 33 101 33 108.5 c 128,-1,51
 33 116 33 116 46 131 c 0,52,53
 57 142 57 142 67 143.5 c 128,-1,54
 77 145 77 145 95 136 c 0,55,56
 123 123 123 123 152 123 c 128,-1,57
 181 123 181 123 186 111 c 0,58,59
 193 100 193 100 212.5 100 c 128,-1,60
 232 100 232 100 266 82 c 0,61,62
 291 69 291 69 301.5 71.5 c 128,-1,63
 312 74 312 74 344 97 c 0,64,65
 387 124 387 124 418 162 c 0,66,67
 439 186 439 186 488 284 c 128,-1,68
 537 382 537 382 537 398 c 0,69,70
 537 408 537 408 565 469 c 0,71,72
 596 537 596 537 596 558 c 128,-1,73
 596 579 596 579 560 597 c 0,74,75
 517 617 517 617 429 614 c 2,76,-1
 338 610 l 1,77,-1
 317 542 l 2,78,79
 282 433 282 433 224 433 c 0,80,81
 201 433 201 433 145 480 c 0,82,83
 108 511 108 511 100.5 525 c 128,-1,84
 93 539 93 539 96 566 c 0,85,86
 103 606 103 606 88 638 c 0,87,88
 75 671 75 671 88 695.5 c 128,-1,89
 101 720 101 720 110 720 c 0,90,91
 111 720 111 720 128 717 c 0,92,93
 147 715 147 715 178 711 c 0,94,95
 211 707 211 707 238 703 c 0,96,97
 357 687 357 687 408 697 c 0,98,99
 444 703 444 703 494.5 692 c 128,-1,100
 545 681 545 681 566 661 c 0,101,102
 586 641 586 641 736 654 c 128,-1,103
 886 667 886 667 935 694 c 0,104,105
 991 721 991 721 1025 692 c 0,0,1
236 549.5 m 128,-1,107
 250 575 250 575 250 594 c 0,108,109
 250 619 250 619 219 591 c 0,110,111
 180 558 180 558 188 535 c 0,112,113
 191 524 191 524 211 524 c 0,114,106
 222 524 222 524 236 549.5 c 128,-1,107
EndSplineSet
EndChar

StartChar: U
Encoding: 85 85 58
AltUni2: 0000dc.ffffffff.0 0000db.ffffffff.0 0000da.ffffffff.0 0000d9.ffffffff.0
Width: 664
GlyphClass: 2
Flags: W
LayerCount: 2
Fore
SplineSet
648 148 m 0,0,1
 667 163 667 163 680.5 160 c 128,-1,2
 694 157 694 157 695 133 c 0,3,4
 695 126 695 126 691.5 118.5 c 128,-1,5
 688 111 688 111 683.5 105.5 c 128,-1,6
 679 100 679 100 671 92.5 c 128,-1,7
 663 85 663 85 658 82 c 128,-1,8
 653 79 653 79 643.5 72.5 c 128,-1,9
 634 66 634 66 632 64 c 0,10,11
 624 59 624 59 618 53.5 c 128,-1,12
 612 48 612 48 605 40.5 c 128,-1,13
 598 33 598 33 593 29 c 0,14,15
 587 23 587 23 574 22 c 1,16,17
 564 15 564 15 537 12 c 0,18,19
 497 6 497 6 464 20 c 0,20,21
 462 20 462 20 458.5 20 c 128,-1,22
 455 20 455 20 453 20 c 0,23,24
 452 23 452 23 453 26 c 0,25,26
 452 27 452 27 449 28.5 c 128,-1,27
 446 30 446 30 444 31 c 0,28,29
 404 57 404 57 404 100 c 0,30,31
 404 150 404 150 372 92 c 0,32,33
 355 62 355 62 293.5 13.5 c 128,-1,34
 232 -35 232 -35 202 -42 c 0,35,36
 179 -46 179 -46 166 -40 c 128,-1,37
 153 -34 153 -34 113 1 c 0,38,39
 84 26 84 26 78.5 38 c 128,-1,40
 73 50 73 50 75 88 c 0,41,42
 76 141 76 141 99 187 c 0,43,44
 113 215 113 215 137 274 c 256,45,46
 161 333 161 333 181 370 c 0,47,48
 214 427 214 427 214 434 c 0,49,50
 214 443 214 443 227 472 c 0,51,52
 246 519 246 519 260 573.5 c 128,-1,53
 274 628 274 628 270 644 c 0,54,55
 264 676 264 676 247 683 c 0,56,57
 241 685 241 685 237 679 c 0,58,59
 230 671 230 671 241 665 c 0,60,61
 256 655 256 655 248.5 625 c 128,-1,62
 241 595 241 595 214 563 c 0,63,64
 167 507 167 507 151 493 c 128,-1,65
 135 479 135 479 109 476 c 0,66,67
 45 463 45 463 35 539 c 0,68,69
 32 562 32 562 36.5 576.5 c 128,-1,70
 41 591 41 591 58 617 c 0,71,72
 86 658 86 658 86 670 c 0,73,74
 86 676 86 676 101 692 c 0,75,76
 116 707 116 707 134 720 c 256,77,78
 152 733 152 733 161 733 c 0,79,80
 176 734 176 734 205 751 c 0,81,82
 233 766 233 766 240.5 766 c 128,-1,83
 248 766 248 766 275 751 c 0,84,85
 317 725 317 725 334 657 c 128,-1,86
 351 589 351 589 327 543 c 0,87,88
 299 486 299 486 281 409 c 0,89,90
 274 379 274 379 268 374 c 0,91,92
 261 370 261 370 243.5 332.5 c 128,-1,93
 226 295 226 295 205 242 c 0,94,95
 184 191 184 191 178 176 c 0,96,97
 149 113 149 113 147 93 c 128,-1,98
 145 73 145 73 162 53 c 2,99,-1
 184 32 l 1,100,-1
 208 52 l 2,101,102
 234 71 234 71 246 71 c 0,103,104
 255 71 255 71 266 85 c 256,105,106
 277 99 277 99 324 171 c 0,107,108
 353 213 353 213 392 290 c 128,-1,109
 431 367 431 367 431 380 c 0,110,111
 431 391 431 391 453.5 423 c 128,-1,112
 476 455 476 455 476 483 c 0,113,114
 476 510 476 510 494 543 c 0,115,116
 511 571 511 571 530 612 c 0,117,118
 544 642 544 642 569.5 665.5 c 128,-1,119
 595 689 595 689 606 684 c 0,120,121
 614 682 614 682 628 664 c 0,122,123
 636 652 636 652 634.5 644.5 c 128,-1,124
 633 637 633 637 622 621 c 0,125,126
 609 604 609 604 593.5 549 c 128,-1,127
 578 494 578 494 566 478 c 0,128,129
 551 456 551 456 537 411 c 0,130,131
 524 364 524 364 496 240 c 0,132,133
 477 163 477 163 474.5 129.5 c 128,-1,134
 472 96 472 96 484 84 c 0,135,136
 493 74 493 74 516 72 c 1,137,138
 537 79 537 79 544 83 c 0,139,140
 610 117 610 117 648 148 c 0,0,1
158 609 m 128,-1,142
 178 630 178 630 178 640 c 0,143,144
 178 665 178 665 148 635.5 c 128,-1,145
 118 606 118 606 124 591 c 0,146,147
 126 588 126 588 130 588 c 0,148,141
 138 588 138 588 158 609 c 128,-1,142
581 34 m 2,149,150
 582 34 582 34 582 34 c 1,151,-1
 581 34 l 2,149,150
EndSplineSet
EndChar

StartChar: V
Encoding: 86 86 59
Width: 764
GlyphClass: 2
Flags: W
LayerCount: 2
Fore
SplineSet
150 721 m 0,0,1
 178 735 178 735 197 751 c 0,2,3
 214 769 214 769 257.5 765 c 128,-1,4
 301 761 301 761 326 740 c 0,5,6
 364 704 364 704 383.5 653.5 c 128,-1,7
 403 603 403 603 386 584 c 0,8,9
 377 573 377 573 364 508 c 0,10,11
 352 446 352 446 326 361 c 0,12,13
 299 276 299 276 286 255 c 0,14,15
 271 236 271 236 271 208 c 128,-1,16
 271 180 271 180 260 150 c 0,17,18
 250 117 250 117 264.5 83.5 c 128,-1,19
 279 50 279 50 301 59 c 0,20,21
 320 68 320 68 339 72 c 0,22,23
 356 75 356 75 419 141.5 c 128,-1,24
 482 208 482 208 491 235 c 0,25,26
 498 254 498 254 509 314 c 0,27,28
 520 394 520 394 561 486 c 128,-1,29
 602 578 602 578 637 600 c 0,30,31
 665 617 665 617 709 662 c 0,32,33
 762 715 762 715 806 704 c 0,34,35
 842 696 842 696 829 647 c 0,36,37
 822 617 822 617 790 609 c 0,38,39
 754 603 754 603 707.5 560 c 128,-1,40
 661 517 661 517 637 472 c 0,41,42
 614 425 614 425 590 312 c 0,43,44
 580 262 580 262 573 236 c 256,45,46
 566 210 566 210 555 191.5 c 128,-1,47
 544 173 544 173 523 145 c 0,48,49
 476 82 476 82 468 65 c 0,50,51
 456 46 456 46 404 19.5 c 128,-1,52
 352 -7 352 -7 308 -13 c 0,53,54
 280 -17 280 -17 267 -13.5 c 128,-1,55
 254 -10 254 -10 233 6 c 0,56,57
 188 46 188 46 184.5 133.5 c 128,-1,58
 181 221 181 221 220 322 c 0,59,60
 268 445 268 445 296 574 c 0,61,62
 308 628 308 628 306.5 640.5 c 128,-1,63
 305 653 305 653 289 671 c 2,64,-1
 266 693 l 1,65,-1
 225 672 l 2,66,67
 182 652 182 652 151 615 c 0,68,69
 131 590 131 590 121.5 585.5 c 128,-1,70
 112 581 112 581 97 589 c 0,71,72
 65 606 65 606 82.5 650 c 128,-1,73
 100 694 100 694 150 721 c 0,0,1
EndSplineSet
EndChar

StartChar: W
Encoding: 87 87 60
Width: 932
GlyphClass: 2
Flags: W
LayerCount: 2
Fore
SplineSet
687 363 m 0,0,1
 715 399 715 399 715 414 c 0,2,3
 715 421 715 421 733.5 449.5 c 128,-1,4
 752 478 752 478 752 486 c 128,-1,5
 752 494 752 494 782 527 c 0,6,7
 811 559 811 559 849.5 592.5 c 128,-1,8
 888 626 888 626 909 638 c 0,9,10
 951 662 951 662 965.5 656.5 c 128,-1,11
 980 651 980 651 1023 662 c 0,12,13
 1098 682 1098 682 1090 624 c 0,14,15
 1089 612 1089 612 1083.5 607 c 128,-1,16
 1078 602 1078 602 1064.5 597 c 128,-1,17
 1051 592 1051 592 1016 586 c 0,18,19
 942 569 942 569 925 559 c 0,20,21
 905 548 905 548 849.5 478.5 c 128,-1,22
 794 409 794 409 774 370 c 0,23,24
 764 348 764 348 752 319 c 0,25,26
 740 289 740 289 729 265 c 0,27,28
 717 241 717 241 700 218 c 0,29,30
 672 182 672 182 652 140 c 0,31,32
 637 108 637 108 574.5 58.5 c 128,-1,33
 512 9 512 9 487 9 c 0,34,35
 456 9 456 9 420.5 30.5 c 128,-1,36
 385 52 385 52 375 75 c 0,37,38
 363 104 363 104 354 109.5 c 128,-1,39
 345 115 345 115 283 53 c 0,40,41
 221 -10 221 -10 211 -10 c 0,42,43
 185 -8 185 -8 147 8.5 c 128,-1,44
 109 25 109 25 97 41 c 0,45,46
 71 75 71 75 81 164 c 128,-1,47
 91 253 91 253 123 292 c 0,48,49
 162 340 162 340 222 515.5 c 128,-1,50
 282 691 282 691 263 702 c 0,51,52
 256 706 256 706 226 697.5 c 128,-1,53
 196 689 196 689 196 683 c 0,54,55
 196 679 196 679 205 663 c 0,56,57
 217 645 217 645 197 605 c 128,-1,58
 177 565 177 565 141.5 532.5 c 128,-1,59
 106 500 106 500 80.5 500 c 128,-1,60
 55 500 55 500 45 523.5 c 128,-1,61
 35 547 35 547 35 608 c 0,62,63
 35 636 35 636 37 649 c 128,-1,64
 39 662 39 662 45 671.5 c 128,-1,65
 51 681 51 681 66 696 c 0,66,67
 121 746 121 746 219 776 c 0,68,69
 260 788 260 788 279 784.5 c 128,-1,70
 298 781 298 781 320 759 c 0,71,72
 334 742 334 742 338 727.5 c 128,-1,73
 342 713 342 713 341 677 c 0,74,75
 341 631 341 631 324.5 565.5 c 128,-1,76
 308 500 308 500 294 458 c 0,77,78
 279 415 279 415 272 403 c 0,79,80
 267 391 267 391 228 321 c 0,81,82
 198 265 198 265 189 254 c 0,83,84
 174 234 174 234 142 98 c 0,85,86
 137 76 137 76 158 65 c 0,87,88
 170 59 170 59 181 63.5 c 128,-1,89
 192 68 192 68 217 91 c 0,90,91
 270 138 270 138 308.5 192 c 128,-1,92
 347 246 347 246 394 335 c 0,93,94
 453 450 453 450 473 477 c 0,95,96
 495 508 495 508 515 557 c 0,97,98
 539 619 539 619 558 644.5 c 128,-1,99
 577 670 577 670 595 670 c 0,100,101
 622 670 622 670 631 655.5 c 128,-1,102
 640 641 640 641 627 616 c 0,103,104
 623 609 623 609 601 549 c 0,105,106
 578 489 578 489 563 477 c 0,107,108
 544 460 544 460 544 446 c 0,109,110
 544 437 544 437 525.5 407.5 c 128,-1,111
 507 378 507 378 507 367 c 0,112,113
 507 350 507 350 497 344 c 0,114,115
 481 335 481 335 457 257 c 128,-1,116
 433 179 433 179 433 142 c 0,117,118
 434 126 434 126 439.5 110.5 c 128,-1,119
 445 95 445 95 454 85 c 128,-1,120
 463 75 463 75 471 75 c 0,121,122
 477 75 477 75 491.5 85 c 128,-1,123
 506 95 506 95 520 107.5 c 128,-1,124
 534 120 534 120 544 133.5 c 128,-1,125
 554 147 554 147 554 154 c 0,126,127
 554 171 554 171 586 202 c 0,128,129
 609 222 609 222 633.5 261 c 128,-1,130
 658 300 658 300 658 316 c 0,131,132
 658 325 658 325 687 363 c 0,0,1
EndSplineSet
EndChar

StartChar: X
Encoding: 88 88 61
Width: 964
GlyphClass: 2
Flags: W
LayerCount: 2
Fore
SplineSet
978 201 m 0,0,1
 997 217 997 217 1011 214 c 128,-1,2
 1025 211 1025 211 1025 187 c 0,3,4
 1025 179 1025 179 1021.5 171.5 c 128,-1,5
 1018 164 1018 164 1014 158.5 c 128,-1,6
 1010 153 1010 153 1001.5 146 c 128,-1,7
 993 139 993 139 988 135.5 c 128,-1,8
 983 132 983 132 973.5 125.5 c 128,-1,9
 964 119 964 119 962 118 c 0,10,11
 942 104 942 104 920 95 c 0,12,13
 917 94 917 94 898.5 84 c 128,-1,14
 880 74 880 74 867 67 c 0,15,16
 852 56 852 56 830 46 c 0,17,18
 746 9 746 9 644 49 c 0,19,20
 603 64 603 64 552 114 c 0,21,22
 510 156 510 156 495 156 c 0,23,24
 467 156 467 156 423 123 c 128,-1,25
 379 90 379 90 337 39 c 0,26,27
 276 -36 276 -36 263 -36 c 0,28,29
 245 -36 245 -36 230.5 -14.5 c 128,-1,30
 216 7 216 7 222 24 c 0,31,32
 226 44 226 44 275 94 c 0,33,34
 369 191 369 191 442 298 c 0,35,36
 470 343 470 343 474.5 358.5 c 128,-1,37
 479 374 479 374 474 430 c 0,38,39
 470 491 470 491 446.5 547.5 c 128,-1,40
 423 604 423 604 393 624 c 0,41,42
 330 666 330 666 236 566 c 0,43,44
 180 508 180 508 153 508 c 0,45,46
 99 508 99 508 130 570 c 0,47,48
 140 590 140 590 187 631.5 c 128,-1,49
 234 673 234 673 290 701 c 0,50,51
 330 721 330 721 349.5 725.5 c 128,-1,52
 369 730 369 730 407 726 c 0,53,54
 469 718 469 718 480 713 c 0,55,56
 506 704 506 704 539 617.5 c 128,-1,57
 572 531 572 531 573 473 c 0,58,59
 573 453 573 453 579 447 c 0,60,61
 583 443 583 443 656 520.5 c 128,-1,62
 729 598 729 598 729 608 c 128,-1,63
 729 618 729 618 769 661 c 0,64,65
 806 703 806 703 819 727 c 0,66,67
 829 746 829 746 834.5 748 c 128,-1,68
 840 750 840 750 861 740 c 0,69,70
 880 728 880 728 879.5 703 c 128,-1,71
 879 678 879 678 857 651 c 0,72,73
 834 623 834 623 820 594 c 0,74,75
 807 570 807 570 692 451 c 1,76,-1
 576 339 l 1,77,-1
 582 297 l 2,78,79
 597 184 597 184 636 159 c 0,80,81
 656 144 656 144 684 119 c 0,82,83
 702 100 702 100 733 98 c 128,-1,84
 764 96 764 96 797 106.5 c 128,-1,85
 830 117 830 117 847 124 c 128,-1,86
 864 131 864 131 875 137 c 0,87,88
 940 171 940 171 978 201 c 0,0,1
EndSplineSet
EndChar

StartChar: Y
Encoding: 89 89 62
AltUni2: 0000dd.ffffffff.0
Width: 556
GlyphClass: 2
Flags: W
LayerCount: 2
Fore
SplineSet
644 747 m 0,0,1
 660 734 660 734 660.5 696.5 c 128,-1,2
 661 659 661 659 645 636 c 0,3,4
 631 615 631 615 631 598 c 128,-1,5
 631 581 631 581 607 539 c 0,6,7
 597 521 597 521 592 510 c 0,8,9
 587 498 587 498 590 498 c 0,10,11
 596 498 596 498 582 483 c 0,12,13
 570 467 570 467 544 413 c 128,-1,14
 518 359 518 359 518 347 c 128,-1,15
 518 335 518 335 487 288 c 0,16,17
 454 238 454 238 454 232.5 c 128,-1,18
 454 227 454 227 437 205 c 0,19,20
 418 181 418 181 402 134 c 0,21,22
 402 133 402 133 400 127.5 c 128,-1,23
 398 122 398 122 397 119.5 c 128,-1,24
 396 117 396 117 394.5 111.5 c 128,-1,25
 393 106 393 106 393 103 c 128,-1,26
 393 100 393 100 392.5 95.5 c 128,-1,27
 392 91 392 91 393 87.5 c 128,-1,28
 394 84 394 84 396 81 c 0,29,30
 408 85 408 85 458 95 c 0,31,32
 465 97 465 97 483 105 c 128,-1,33
 501 113 501 113 509 115 c 0,34,35
 543 135 543 135 564 152 c 0,36,37
 581 166 581 166 594 163.5 c 128,-1,38
 607 161 607 161 607 138 c 0,39,40
 607 133 607 133 605 127 c 128,-1,41
 603 121 603 121 599 115.5 c 128,-1,42
 595 110 595 110 590.5 105.5 c 128,-1,43
 586 101 586 101 579.5 96.5 c 128,-1,44
 573 92 573 92 569 89 c 128,-1,45
 565 86 565 86 558 81.5 c 128,-1,46
 551 77 551 77 548 75 c 0,47,48
 530 62 530 62 510 54 c 0,49,50
 508 53 508 53 502.5 50 c 128,-1,51
 497 47 497 47 488.5 42.5 c 128,-1,52
 480 38 480 38 473 34 c 0,53,54
 451 11 451 11 435 -8 c 0,55,56
 385 -68 385 -68 372.5 -68 c 128,-1,57
 360 -68 360 -68 360 -78 c 0,58,59
 360 -86 360 -86 293 -156 c 0,60,61
 220 -231 220 -231 210 -247 c 0,62,63
 194 -272 194 -272 157 -278.5 c 128,-1,64
 120 -285 120 -285 95 -269 c 0,65,66
 80 -260 80 -260 77.5 -251.5 c 128,-1,67
 75 -243 75 -243 81 -225 c 128,-1,68
 87 -207 87 -207 88 -199 c 0,69,70
 93 -175 93 -175 148 -123 c 256,71,72
 203 -71 203 -71 203 -58 c 0,73,74
 203 -46 203 -46 225 11 c 0,75,76
 244 55 244 55 242.5 68 c 128,-1,77
 241 81 241 81 218 81 c 0,78,79
 198 81 198 81 170 108 c 0,80,81
 152 128 152 128 147 144 c 128,-1,82
 142 160 142 160 142 213 c 0,83,84
 142 289 142 289 162 331 c 0,85,86
 177 362 177 362 194 420 c 128,-1,87
 211 478 211 478 219 521 c 0,88,89
 223 546 223 546 232 560 c 0,90,91
 240 570 240 570 244 609.5 c 128,-1,92
 248 649 248 649 253 654.5 c 128,-1,93
 258 660 258 660 249 670 c 0,94,95
 240 682 240 682 216 670 c 0,96,97
 196 663 196 663 195 651.5 c 128,-1,98
 194 640 194 640 211 624 c 0,99,100
 243 595 243 595 193 521 c 0,101,102
 163 478 163 478 146.5 468.5 c 128,-1,103
 130 459 130 459 94 465 c 0,104,105
 51 470 51 470 41 479 c 0,106,107
 29 492 29 492 35 538.5 c 128,-1,108
 41 585 41 585 59 612 c 0,109,110
 86 652 86 652 136 701 c 128,-1,111
 186 750 186 750 200 750 c 0,112,113
 216 750 216 750 231 759 c 0,114,115
 244 768 244 768 252 766.5 c 128,-1,116
 260 765 260 765 285 752 c 0,117,118
 315 738 315 738 328.5 715.5 c 128,-1,119
 342 693 342 693 346 645 c 0,120,121
 350 614 350 614 346 588 c 128,-1,122
 342 562 342 562 323 507 c 0,123,124
 293 416 293 416 286.5 401.5 c 128,-1,125
 280 387 280 387 270 356 c 256,126,127
 260 325 260 325 250 292 c 0,128,129
 240 260 240 260 235 244 c 0,130,131
 222 209 222 209 222.5 195.5 c 128,-1,132
 223 182 223 182 241 172 c 0,133,134
 253 166 253 166 260.5 167.5 c 128,-1,135
 268 169 268 169 281 181 c 0,136,137
 296 196 296 196 335 231 c 0,138,139
 371 264 371 264 371 277 c 128,-1,140
 371 290 371 290 388 306 c 128,-1,141
 405 322 405 322 412 359 c 0,142,143
 418 395 418 395 431 407 c 0,144,145
 445 416 445 416 445 429 c 0,146,147
 445 440 445 440 458 446 c 0,148,149
 472 451 472 451 472 474 c 0,150,151
 472 498 472 498 481.5 503 c 128,-1,152
 491 508 491 508 491 554 c 0,153,154
 491 582 491 582 497.5 598.5 c 128,-1,155
 504 615 504 615 528 643 c 0,156,157
 565 689 565 689 565 705 c 0,158,159
 565 715 565 715 587 737 c 128,-1,160
 609 759 609 759 620 759 c 0,161,162
 625 759 625 759 644 747 c 0,0,1
177.5 622 m 128,-1,164
 185 632 185 632 185 640 c 0,165,166
 185 647 185 647 175.5 647 c 128,-1,167
 166 647 166 647 156 627.5 c 128,-1,168
 146 608 146 608 152 602 c 0,169,170
 154 599 154 599 162 605.5 c 128,-1,163
 170 612 170 612 177.5 622 c 128,-1,164
EndSplineSet
EndChar

StartChar: Z
Encoding: 90 90 63
Width: 679
GlyphClass: 2
Flags: W
LayerCount: 2
Fore
SplineSet
235 769 m 0,0,1
 294 798 294 798 344 813 c 0,2,3
 394 826 394 826 400 823 c 0,4,5
 470 794 470 794 487 771.5 c 128,-1,6
 504 749 504 749 504 690 c 0,7,8
 504 624 504 624 485 582 c 2,9,-1
 467 540 l 1,10,-1
 505 517 l 2,11,12
 525 505 525 505 536 493.5 c 128,-1,13
 547 482 547 482 554 463.5 c 128,-1,14
 561 445 561 445 560 420 c 0,15,16
 559 393 559 393 557 357 c 0,17,18
 551 288 551 288 525 228 c 0,19,20
 500 175 500 175 509 166 c 0,21,22
 516 159 516 159 553 170 c 128,-1,23
 590 181 590 181 613 196 c 0,24,25
 637 211 637 211 671 223 c 0,26,27
 692 231 692 231 701.5 231 c 128,-1,28
 711 231 711 231 719 224 c 0,29,30
 735 211 735 211 735 200 c 0,31,32
 735 185 735 185 698 156.5 c 128,-1,33
 661 128 661 128 623 116 c 0,34,35
 572 99 572 99 557 87 c 0,36,37
 543 74 543 74 535 74 c 0,38,39
 529 74 529 74 480 53 c 0,40,41
 448 38 448 38 435 25.5 c 128,-1,42
 422 13 422 13 410 -15 c 0,43,44
 388 -61 388 -61 336 -110 c 0,45,46
 279 -165 279 -165 201.5 -222 c 128,-1,47
 124 -279 124 -279 105 -279 c 256,48,49
 86 -279 86 -279 57 -244 c 0,50,51
 31 -214 31 -214 34 -187.5 c 128,-1,52
 37 -161 37 -161 68 -111 c 0,53,54
 91 -74 91 -74 145.5 -32.5 c 128,-1,55
 200 9 200 9 227 9 c 0,56,57
 235 9 235 9 285 33 c 0,58,59
 307 45 307 45 319 54 c 128,-1,60
 331 63 331 63 341 77 c 256,61,62
 351 91 351 91 365 119 c 0,63,64
 404 194 404 194 425.5 264 c 128,-1,65
 447 334 447 334 443 369 c 0,66,67
 438 412 438 412 431 418 c 0,68,69
 422 427 422 427 374.5 391.5 c 128,-1,70
 327 356 327 356 283 306 c 0,71,72
 228 241 228 241 196.5 227.5 c 128,-1,73
 165 214 165 214 145 244 c 0,74,75
 129 269 129 269 143.5 316 c 128,-1,76
 158 363 158 363 192 394 c 0,77,78
 229 427 229 427 239 427 c 0,79,80
 245 427 245 427 276 470 c 128,-1,81
 307 513 307 513 337 565 c 0,82,83
 367 616 367 616 372 636 c 0,84,85
 393 708 393 708 360 728 c 0,86,87
 351 735 351 735 332 729.5 c 128,-1,88
 313 724 313 724 292.5 712.5 c 128,-1,89
 272 701 272 701 250 683 c 128,-1,90
 228 665 228 665 216 648 c 0,91,92
 190 611 190 611 165.5 596.5 c 128,-1,93
 141 582 141 582 125 595 c 0,94,95
 97 619 97 619 138 674 c 0,96,97
 163 708 163 708 170 726 c 0,98,99
 175 740 175 740 235 769 c 0,0,1
EndSplineSet
EndChar

StartChar: bracketleft
Encoding: 91 91 64
Width: 429
GlyphClass: 2
Flags: W
LayerCount: 2
Fore
SplineSet
257 24 m 0,0,1
 224 19 224 19 33 0 c 1,2,3
 35 20 35 20 37 48 c 128,-1,4
 39 76 39 76 40.5 94.5 c 128,-1,5
 42 113 42 113 44.5 135.5 c 128,-1,6
 47 158 47 158 51 176 c 0,7,8
 81 334 81 334 127 528 c 0,9,10
 136 555 136 555 129 578.5 c 128,-1,11
 122 602 122 602 92 614 c 1,12,13
 191 656 191 656 268.5 656 c 128,-1,14
 346 656 346 656 394 614 c 1,15,16
 372 609 372 609 345 608.5 c 128,-1,17
 318 608 318 608 295.5 610 c 128,-1,18
 273 612 273 612 247.5 605 c 128,-1,19
 222 598 222 598 202 581 c 1,20,21
 133 325 133 325 95 81 c 1,22,23
 232 81 232 81 253 80 c 0,24,25
 258 80 258 80 264 76.5 c 128,-1,26
 270 73 270 73 277 67 c 128,-1,27
 284 61 284 61 288 59 c 1,28,29
 284 55 284 55 278 45.5 c 128,-1,30
 272 36 272 36 267 30 c 128,-1,31
 262 24 262 24 257 24 c 0,0,1
EndSplineSet
EndChar

StartChar: bracketright
Encoding: 93 93 65
Width: 427
GlyphClass: 2
Flags: W
LayerCount: 2
Fore
SplineSet
97 0 m 0,0,1
 83 0 83 0 73 2 c 128,-1,2
 63 4 63 4 52.5 9.5 c 128,-1,3
 42 15 42 15 37 27 c 128,-1,4
 32 39 32 39 34 58 c 1,5,6
 56 58 56 58 56 57 c 0,7,8
 85 54 85 54 102.5 52 c 128,-1,9
 120 50 120 50 138.5 50.5 c 128,-1,10
 157 51 157 51 167 53 c 128,-1,11
 177 55 177 55 187.5 62 c 128,-1,12
 198 69 198 69 203.5 77 c 128,-1,13
 209 85 209 85 215.5 101 c 128,-1,14
 222 117 222 117 226.5 134 c 128,-1,15
 231 151 231 151 236 177 c 0,16,17
 248 236 248 236 312 598 c 0,18,19
 312 599 312 599 309 622 c 1,20,21
 291 628 291 628 267 628 c 128,-1,22
 243 628 243 628 222 624.5 c 128,-1,23
 201 621 201 621 176 629 c 128,-1,24
 151 637 151 637 132 660 c 1,25,26
 159 662 159 662 197.5 669 c 128,-1,27
 236 676 236 676 261.5 681 c 128,-1,28
 287 686 287 686 325.5 688.5 c 128,-1,29
 364 691 364 691 393 685 c 1,30,31
 354 460 354 460 351 439 c 0,32,33
 344 404 344 404 331.5 339 c 128,-1,34
 319 274 319 274 314 249 c 0,35,36
 303 191 303 191 298 153 c 0,37,38
 297 145 297 145 284 24 c 1,39,40
 284 24 284 24 283 23.5 c 128,-1,41
 282 23 282 23 280.5 22 c 128,-1,42
 279 21 279 21 277 19.5 c 128,-1,43
 275 18 275 18 272 16.5 c 128,-1,44
 269 15 269 15 266.5 14 c 128,-1,45
 264 13 264 13 260.5 12 c 128,-1,46
 257 11 257 11 254 10 c 0,47,48
 152 -1 152 -1 97 0 c 0,0,1
EndSplineSet
EndChar

StartChar: asciicircum
Encoding: 94 94 66
Width: 432
GlyphClass: 2
Flags: W
LayerCount: 2
Fore
SplineSet
333 571 m 0,0,1
 321 588 321 588 309 607 c 128,-1,2
 297 626 297 626 277.5 659 c 128,-1,3
 258 692 258 692 249 708 c 1,4,5
 167 569 167 569 162 560 c 0,6,7
 149 539 149 539 102 532.5 c 128,-1,8
 55 526 55 526 40 545 c 0,9,10
 34 552 34 552 33.5 567 c 128,-1,11
 33 582 33 582 38 591 c 0,12,13
 41 596 41 596 44 600.5 c 128,-1,14
 47 605 47 605 53 610.5 c 128,-1,15
 59 616 59 616 61 618 c 128,-1,16
 63 620 63 620 71 626.5 c 128,-1,17
 79 633 79 633 80 634 c 0,18,19
 163 702 163 702 198 812 c 0,20,21
 201 820 201 820 206.5 829 c 128,-1,22
 212 838 212 838 219.5 844.5 c 128,-1,23
 227 851 227 851 233 851 c 0,24,25
 243 852 243 852 256.5 842 c 128,-1,26
 270 832 270 832 276 820 c 0,27,28
 308 764 308 764 392 603 c 0,29,30
 401 587 401 587 396.5 573 c 128,-1,31
 392 559 392 559 376 554 c 0,32,33
 370 552 370 552 361.5 554 c 128,-1,34
 353 556 353 556 345 561 c 128,-1,35
 337 566 337 566 333 571 c 0,0,1
EndSplineSet
EndChar

StartChar: a
Encoding: 97 97 67
AltUni2: 0000e5.ffffffff.0 0000e4.ffffffff.0 0000e3.ffffffff.0 0000e2.ffffffff.0 0000e1.ffffffff.0 0000e0.ffffffff.0
Width: 490
GlyphClass: 2
Flags: W
LayerCount: 2
Fore
SplineSet
502 96 m 0,0,1
 516 108 516 108 526.5 105.5 c 128,-1,2
 537 103 537 103 537 85 c 0,3,4
 538 80 538 80 536 75 c 128,-1,5
 534 70 534 70 530.5 66 c 128,-1,6
 527 62 527 62 523.5 58 c 128,-1,7
 520 54 520 54 515 50 c 128,-1,8
 510 46 510 46 506.5 43.5 c 128,-1,9
 503 41 503 41 497 37.5 c 128,-1,10
 491 34 491 34 489 32 c 0,11,12
 474 22 474 22 458 15 c 0,13,14
 456 14 456 14 439 5 c 2,15,-1
 434 1 l 2,16,17
 413 -19 413 -19 374 -24 c 0,18,19
 349 -27 349 -27 335 -24.5 c 128,-1,20
 321 -22 321 -22 297 -11 c 0,21,22
 261 7 261 7 249 17 c 0,23,24
 242 24 242 24 236 23 c 128,-1,25
 230 22 230 22 216 10 c 0,26,27
 192 -7 192 -7 163.5 -16.5 c 128,-1,28
 135 -26 135 -26 101 -29 c 0,29,30
 35 -33 35 -33 15 -2 c 0,31,32
 2 17 2 17 3 73.5 c 128,-1,33
 4 130 4 130 18 154 c 0,34,35
 29 176 29 176 36 185 c 0,36,37
 43 196 43 196 49 205 c 256,38,39
 55 214 55 214 71 232 c 0,40,41
 120 293 120 293 148 316 c 0,42,43
 170 333 170 333 199.5 345.5 c 128,-1,44
 229 358 229 358 262 361.5 c 128,-1,45
 295 365 295 365 320 352 c 0,46,47
 350 337 350 337 357 299 c 128,-1,48
 364 261 364 261 355.5 225 c 128,-1,49
 347 189 347 189 332 158 c 0,50,51
 318 128 318 128 311.5 93 c 128,-1,52
 305 58 305 58 312 47 c 0,53,54
 327 17 327 17 410 43 c 0,55,56
 413 44 413 44 416 44 c 0,57,58
 421 46 421 46 423 47 c 0,59,60
 473 73 473 73 502 96 c 0,0,1
265 243 m 0,61,62
 273 247 273 247 274 250.5 c 128,-1,63
 275 254 275 254 270 259 c 0,64,65
 261 269 261 269 243.5 272 c 128,-1,66
 226 275 226 275 210 270 c 0,67,68
 193 267 193 267 160 239.5 c 128,-1,69
 127 212 127 212 115 192 c 0,70,71
 100 169 100 169 89 151 c 0,72,73
 75 132 75 132 70.5 96 c 128,-1,74
 66 60 66 60 74 50 c 256,75,76
 82 40 82 40 109 40 c 128,-1,77
 136 40 136 40 159 49 c 0,78,79
 182 59 182 59 193 81 c 0,80,81
 212 119 212 119 223 141 c 0,82,83
 243 176 243 176 243 189 c 0,84,85
 243 197 243 197 250 205 c 128,-1,86
 257 213 257 213 254 222 c 0,87,88
 250 235 250 235 265 243 c 0,61,62
EndSplineSet
EndChar

StartChar: b
Encoding: 98 98 68
Width: 442
GlyphClass: 2
Flags: W
LayerCount: 2
Fore
SplineSet
492 152 m 0,0,1
 493 148 493 148 493 134 c 0,2,3
 493 104 493 104 467.5 94.5 c 128,-1,4
 442 85 442 85 373 89 c 2,5,-1
 298 93 l 1,6,-1
 273 46 l 2,7,8
 248 -3 248 -3 217.5 -25.5 c 128,-1,9
 187 -48 187 -48 136 -56 c 0,10,11
 82 -65 82 -65 50 -53 c 0,12,13
 -1 -33 -1 -33 -19.5 19.5 c 128,-1,14
 -38 72 -38 72 -29 130 c 0,15,16
 -21 174 -21 174 0 256.5 c 128,-1,17
 21 339 21 339 29 378 c 0,18,19
 41 444 41 444 57 480 c 0,20,21
 80 532 80 532 93 560 c 0,22,23
 106 586 106 586 125 623 c 0,24,25
 135 642 135 642 149 681 c 0,26,27
 159 706 159 706 164.5 718.5 c 128,-1,28
 170 731 170 731 181 750 c 128,-1,29
 192 769 192 769 207 782.5 c 128,-1,30
 222 796 222 796 243 806 c 0,31,32
 265 817 265 817 286.5 817 c 128,-1,33
 308 817 308 817 326 802 c 0,34,35
 344 783 344 783 346.5 747.5 c 128,-1,36
 349 712 349 712 342.5 683.5 c 128,-1,37
 336 655 336 655 325 627 c 0,38,39
 294 548 294 548 284 511 c 0,40,41
 275 477 275 477 261 454 c 0,42,43
 200 345 200 345 198 341 c 0,44,45
 165 282 165 282 111 209 c 0,46,47
 81 168 81 168 72.5 114.5 c 128,-1,48
 64 61 64 61 86 51 c 0,49,50
 87 49 87 49 94 46 c 0,51,52
 103 42 103 42 108 40 c 0,53,54
 115 37 115 37 120 33 c 0,55,56
 132 27 132 27 140 27.5 c 128,-1,57
 148 28 148 28 162 37 c 0,58,59
 177 48 177 48 202 95.5 c 128,-1,60
 227 143 227 143 227 164 c 0,61,62
 227 183 227 183 242.5 200 c 128,-1,63
 258 217 258 217 275 217 c 0,64,65
 296 217 296 217 330 181 c 0,66,67
 347 164 347 164 359.5 157 c 128,-1,68
 372 150 372 150 379.5 150 c 128,-1,69
 387 150 387 150 409 153 c 0,70,71
 430 156 430 156 449 158 c 0,72,73
 471 160 471 160 480.5 158 c 128,-1,74
 490 156 490 156 492 152 c 0,0,1
100 365 m 128,-1,76
 95 336 95 336 102 331 c 1,77,78
 110 331 110 331 128 373 c 0,79,80
 138 392 138 392 170.5 457 c 128,-1,81
 203 522 203 522 213 546 c 0,82,83
 244 621 244 621 244 629 c 0,84,85
 244 654 244 654 200 607 c 0,86,87
 173 575 173 575 173 565 c 0,88,89
 173 550 173 550 152 514 c 0,90,91
 136 485 136 485 120.5 439.5 c 128,-1,75
 105 394 105 394 100 365 c 128,-1,76
EndSplineSet
EndChar

StartChar: c
Encoding: 99 99 69
AltUni2: 0000e7.ffffffff.0
Width: 429
GlyphClass: 2
Flags: W
LayerCount: 2
Fore
SplineSet
421 96 m 0,0,1
 438 111 438 111 451 108.5 c 128,-1,2
 464 106 464 106 464 83 c 0,3,4
 464 76 464 76 461 69 c 128,-1,5
 458 62 458 62 454 57 c 128,-1,6
 450 52 450 52 442.5 45.5 c 128,-1,7
 435 39 435 39 430.5 36 c 128,-1,8
 426 33 426 33 417 27 c 128,-1,9
 408 21 408 21 406 20 c 0,10,11
 387 7 387 7 367 -1 c 0,12,13
 355 -7 355 -7 325 -17 c 128,-1,14
 295 -27 295 -27 249 -39 c 128,-1,15
 203 -51 203 -51 159 -48 c 128,-1,16
 115 -45 115 -45 93 -24 c 0,17,18
 80 -11 80 -11 64 16 c 128,-1,19
 48 43 48 43 42 59 c 0,20,21
 32 87 32 87 33 136 c 0,22,23
 40 284 40 284 160 389 c 0,24,25
 188 413 188 413 201 418 c 128,-1,26
 214 423 214 423 251 423 c 0,27,28
 319 423 319 423 354.5 393.5 c 128,-1,29
 390 364 390 364 382 315 c 0,30,31
 376 291 376 291 370.5 285 c 128,-1,32
 365 279 365 279 348 277 c 0,33,34
 324 274 324 274 302.5 286.5 c 128,-1,35
 281 299 281 299 285 313 c 0,36,37
 290 324 290 324 280 336.5 c 128,-1,38
 270 349 270 349 256 349 c 0,39,40
 231 349 231 349 178 294 c 128,-1,41
 125 239 125 239 125 213 c 0,42,43
 125 202 125 202 113 182 c 0,44,45
 101 165 101 165 102.5 123 c 128,-1,46
 104 81 104 81 116 64 c 0,47,48
 134 36 134 36 178.5 25.5 c 128,-1,49
 223 15 223 15 260 22 c 0,50,51
 280 25 280 25 302 34 c 0,52,53
 343 51 343 51 378 77 c 0,54,55
 405 97 405 97 415 92 c 0,56,57
 416 93 416 93 418 94.5 c 128,-1,58
 420 96 420 96 421 96 c 0,0,1
EndSplineSet
EndChar

StartChar: d
Encoding: 100 100 70
Width: 609
GlyphClass: 2
Flags: W
LayerCount: 2
Fore
SplineSet
609 120 m 0,0,1
 626 135 626 135 639 132 c 128,-1,2
 652 129 652 129 652 107 c 0,3,4
 652 101 652 101 650 95.5 c 128,-1,5
 648 90 648 90 644 84.5 c 128,-1,6
 640 79 640 79 636 74.5 c 128,-1,7
 632 70 632 70 625.5 65 c 128,-1,8
 619 60 619 60 614.5 57 c 128,-1,9
 610 54 610 54 603.5 49.5 c 128,-1,10
 597 45 597 45 594 43 c 0,11,12
 575 31 575 31 556 22 c 0,13,14
 552 21 552 21 544.5 16.5 c 128,-1,15
 537 12 537 12 533 10 c 0,16,17
 507 0 507 0 494 -2 c 0,18,19
 428 -10 428 -10 403.5 -5 c 128,-1,20
 379 0 379 0 349 28 c 0,21,22
 330 47 330 47 322 62.5 c 128,-1,23
 314 78 314 78 309 105 c 0,24,25
 300 148 300 148 291 149 c 0,26,27
 284 149 284 149 275 133 c 0,28,29
 262 111 262 111 230 75.5 c 128,-1,30
 198 40 198 40 177 26 c 0,31,32
 149 7 149 7 107 3 c 0,33,34
 79 0 79 0 70 2 c 128,-1,35
 61 4 61 4 53 17 c 0,36,37
 28 55 28 55 35.5 131 c 128,-1,38
 43 207 43 207 78 261 c 0,39,40
 98 291 98 291 133.5 324 c 128,-1,41
 169 357 169 357 208 379 c 0,42,43
 234 394 234 394 295 394 c 0,44,45
 320 395 320 395 335.5 404.5 c 128,-1,46
 351 414 351 414 357.5 424.5 c 128,-1,47
 364 435 364 435 374.5 458 c 128,-1,48
 385 481 385 481 394 495 c 0,49,50
 408 518 408 518 434.5 559.5 c 128,-1,51
 461 601 461 601 482.5 635.5 c 128,-1,52
 504 670 504 670 523 700 c 0,53,54
 526 704 526 704 533 716 c 0,55,56
 586 807 586 807 611 808 c 0,57,58
 626 809 626 809 634 780 c 0,59,60
 635 779 635 779 635 778 c 0,61,62
 644 743 644 743 627 695 c 128,-1,63
 610 647 610 647 585 609.5 c 128,-1,64
 560 572 560 572 526 524 c 128,-1,65
 492 476 492 476 480 456 c 0,66,67
 471 440 471 440 459.5 408.5 c 128,-1,68
 448 377 448 377 443 366 c 0,69,70
 376 218 376 218 388 117 c 0,71,72
 393 79 393 79 407.5 63 c 128,-1,73
 422 47 422 47 450 47 c 0,74,75
 470 47 470 47 500 56 c 0,76,77
 511 60 511 60 514 61 c 0,78,79
 574 92 574 92 609 120 c 0,0,1
201 151 m 0,80,81
 313 292 313 292 309 315 c 0,82,83
 306 332 306 332 280 331 c 128,-1,84
 254 330 254 330 229 313 c 0,85,86
 199 293 199 293 163.5 253 c 128,-1,87
 128 213 128 213 118 189 c 0,88,89
 106 163 106 163 106 125 c 0,90,91
 106 77 106 77 125 79 c 0,92,93
 147 82 147 82 201 151 c 0,80,81
EndSplineSet
EndChar

StartChar: e
Encoding: 101 101 71
AltUni2: 0000eb.ffffffff.0 0000ea.ffffffff.0 0000e9.ffffffff.0 0000e8.ffffffff.0
Width: 353
GlyphClass: 2
Flags: W
LayerCount: 2
Fore
SplineSet
370 120 m 0,0,1
 387 134 387 134 399.5 131.5 c 128,-1,2
 412 129 412 129 413 107 c 0,3,4
 413 100 413 100 409.5 93 c 128,-1,5
 406 86 406 86 402 80.5 c 128,-1,6
 398 75 398 75 390.5 68.5 c 128,-1,7
 383 62 383 62 378.5 59 c 128,-1,8
 374 56 374 56 365 50 c 128,-1,9
 356 44 356 44 354 43 c 0,10,11
 336 30 336 30 316 22 c 0,12,13
 314 21 314 21 308 18.5 c 128,-1,14
 302 16 302 16 297.5 14.5 c 128,-1,15
 293 13 293 13 293 13 c 2,16,17
 245 -7 245 -7 190 -10 c 0,18,19
 133 -13 133 -13 107 0 c 0,20,21
 104 1 104 1 82.5 11 c 128,-1,22
 61 21 61 21 51 27 c 0,23,24
 33 39 33 39 17 78 c 0,25,26
 -14 148 -14 148 -14 203 c 0,27,28
 -14 236 -14 236 -2 289 c 0,29,30
 13 355 13 355 25 372 c 0,31,32
 41 395 41 395 51 405 c 0,33,34
 94 449 94 449 158 444 c 0,35,36
 226 438 226 438 232 400 c 0,37,38
 236 369 236 369 227.5 336.5 c 128,-1,39
 219 304 219 304 207.5 283 c 128,-1,40
 196 262 196 262 174.5 228 c 128,-1,41
 153 194 153 194 143 177 c 0,42,43
 108 111 108 111 108 99 c 0,44,45
 108 88 108 88 128 70 c 0,46,47
 141 58 141 58 150.5 55.5 c 128,-1,48
 160 53 160 53 186 58 c 0,49,50
 227 64 227 64 274 78 c 0,51,52
 293 84 293 84 327.5 98.5 c 128,-1,53
 362 113 362 113 370 120 c 0,0,1
65 175 m 0,54,55
 72 175 72 175 104 236 c 128,-1,56
 136 297 136 297 136 310 c 0,57,58
 136 325 136 325 120 329 c 128,-1,59
 104 333 104 333 94 322 c 0,60,61
 86 312 86 312 78.5 293.5 c 128,-1,62
 71 275 71 275 66.5 255.5 c 128,-1,63
 62 236 62 236 59 218 c 256,64,65
 56 200 56 200 57.5 187.5 c 128,-1,66
 59 175 59 175 65 175 c 0,54,55
EndSplineSet
EndChar

StartChar: f
Encoding: 102 102 72
Width: 280
GlyphClass: 2
Flags: W
LayerCount: 2
Fore
SplineSet
330 107 m 0,0,1
 330 94 330 94 305 69.5 c 128,-1,2
 280 45 280 45 266 37 c 0,3,4
 254 30 254 30 238 22.5 c 128,-1,5
 222 15 222 15 210 10.5 c 128,-1,6
 198 6 198 6 188 2 c 128,-1,7
 178 -2 178 -2 177 -2 c 0,8,9
 154 -13 154 -13 129 -15.5 c 128,-1,10
 104 -18 104 -18 91.5 -19 c 128,-1,11
 79 -20 79 -20 66 -35.5 c 128,-1,12
 53 -51 53 -51 43 -87 c 0,13,14
 38 -107 38 -107 30 -162 c 128,-1,15
 22 -217 22 -217 9 -255 c 128,-1,16
 -4 -293 -4 -293 -30 -319 c 0,17,18
 -53 -341 -53 -341 -71.5 -346 c 128,-1,19
 -90 -351 -90 -351 -100.5 -341 c 128,-1,20
 -111 -331 -111 -331 -118 -314.5 c 128,-1,21
 -125 -298 -125 -298 -125.5 -276.5 c 128,-1,22
 -126 -255 -126 -255 -125 -237 c 0,23,24
 -119 -194 -119 -194 -104.5 -152.5 c 128,-1,25
 -90 -111 -90 -111 -64.5 -53 c 128,-1,26
 -39 5 -39 5 -30 27 c 0,27,28
 -19 56 -19 56 -9 97 c 0,29,30
 -8 103 -8 103 -5.5 117 c 128,-1,31
 -3 131 -3 131 0 141 c 128,-1,32
 3 151 3 151 8 158 c 0,33,34
 12 165 12 165 27 178 c 128,-1,35
 42 191 42 191 52.5 204 c 128,-1,36
 63 217 63 217 63 229 c 0,37,38
 63 250 63 250 88 318 c 0,39,40
 113 385 113 385 144 451 c 0,41,42
 200 572 200 572 206 586 c 0,43,44
 208 591 208 591 214 609.5 c 128,-1,45
 220 628 220 628 224.5 638.5 c 128,-1,46
 229 649 229 649 239 660 c 128,-1,47
 249 671 249 671 262 673 c 0,48,49
 287 677 287 677 301 658 c 128,-1,50
 315 639 315 639 314 613 c 0,51,52
 313 580 313 580 306 547 c 128,-1,53
 299 514 299 514 283 476.5 c 128,-1,54
 267 439 267 439 257 418.5 c 128,-1,55
 247 398 247 398 221.5 352 c 128,-1,56
 196 306 196 306 189 294 c 0,57,58
 168 253 168 253 121 178.5 c 128,-1,59
 74 104 74 104 68 93 c 0,60,61
 63 84 63 84 60.5 77.5 c 128,-1,62
 58 71 58 71 59 63 c 128,-1,63
 60 55 60 55 66 49 c 0,64,65
 74 41 74 41 118 37 c 0,66,67
 135 35 135 35 155 41 c 128,-1,68
 175 47 175 47 192.5 56.5 c 128,-1,69
 210 66 210 66 224 75 c 128,-1,70
 238 84 238 84 248 92 c 128,-1,71
 258 100 258 100 258 100 c 2,72,73
 276 111 276 111 287 120 c 0,74,75
 304 135 304 135 317 132 c 128,-1,76
 330 129 330 129 330 107 c 0,0,1
-40 -120 m 0,77,78
 -61 -191 -61 -191 -46 -210 c 1,79,80
 -28 -177 -28 -177 -22 -119 c 0,81,82
 -22 -112 -22 -112 -24 -109 c 0,83,84
 -29 -104 -29 -104 -35 -110 c 0,85,86
 -38 -113 -38 -113 -40 -120 c 0,77,78
EndSplineSet
EndChar

StartChar: g
Encoding: 103 103 73
Width: 367
GlyphClass: 2
Flags: W
LayerCount: 2
Fore
SplineSet
383 102 m 0,0,1
 401 116 401 116 413.5 113.5 c 128,-1,2
 426 111 426 111 426 89 c 0,3,4
 427 82 427 82 423.5 75 c 128,-1,5
 420 68 420 68 416 63 c 128,-1,6
 412 58 412 58 404.5 51.5 c 128,-1,7
 397 45 397 45 392.5 42 c 128,-1,8
 388 39 388 39 379 33 c 128,-1,9
 370 27 370 27 368 25 c 0,10,11
 349 12 349 12 330 4 c 0,12,13
 327 3 327 3 311.5 -5.5 c 128,-1,14
 296 -14 296 -14 278 -23 c 128,-1,15
 260 -32 260 -32 245 -36 c 1,16,17
 228 -48 228 -48 201 -63 c 0,18,19
 160 -86 160 -86 146 -117 c 0,20,21
 143 -125 143 -125 136 -137 c 256,22,23
 129 -149 129 -149 121 -161 c 256,24,25
 113 -173 113 -173 103 -187 c 0,26,27
 92 -202 92 -202 85 -214 c 0,28,29
 77 -226 77 -226 69 -237 c 0,30,31
 60 -248 60 -248 56 -254 c 0,32,33
 50 -263 50 -263 21 -281.5 c 128,-1,34
 -8 -300 -8 -300 -38 -315 c 0,35,36
 -101 -347 -101 -347 -118 -294 c 0,37,38
 -125 -271 -125 -271 -125 -259 c 0,39,40
 -125 -252 -125 -252 -122 -244.5 c 128,-1,41
 -119 -237 -119 -237 -112.5 -229.5 c 128,-1,42
 -106 -222 -106 -222 -101.5 -217 c 128,-1,43
 -97 -212 -97 -212 -88 -204 c 128,-1,44
 -79 -196 -79 -196 -77 -193 c 0,45,46
 -47 -164 -47 -164 3 -138 c 0,47,48
 18 -130 18 -130 45 -112 c 0,49,50
 81 -88 81 -88 87 -85 c 0,51,52
 105 -76 105 -76 130.5 -37 c 128,-1,53
 156 2 156 2 150 9 c 0,54,55
 145 12 145 12 109 1 c 0,56,57
 13 -32 13 -32 -14 71 c 0,58,59
 -22 99 -22 99 -8.5 145.5 c 128,-1,60
 5 192 5 192 30 230 c 0,61,62
 55 267 55 267 86.5 297.5 c 128,-1,63
 118 328 118 328 162.5 349.5 c 128,-1,64
 207 371 207 371 247 364 c 0,65,66
 322 350 322 350 299 255 c 0,67,68
 291 219 291 219 278.5 186 c 128,-1,69
 266 153 266 153 258 144 c 0,70,71
 248 131 248 131 248 123 c 0,72,73
 248 116 248 116 227 75 c 0,74,75
 207 32 207 32 207 15 c 0,76,77
 207 8 207 8 208 4 c 1,78,79
 210 8 210 8 225 15 c 128,-1,80
 240 22 240 22 260 30.5 c 128,-1,81
 280 39 280 39 288 43 c 0,82,83
 348 74 348 74 383 102 c 0,0,1
78 -152 m 0,84,85
 93 -126 93 -126 83 -126 c 0,86,87
 67 -126 67 -126 26 -160 c 128,-1,88
 -15 -194 -15 -194 -47.5 -231 c 128,-1,89
 -80 -268 -80 -268 -73 -275 c 0,90,91
 -57 -291 -57 -291 -5 -248.5 c 128,-1,92
 47 -206 47 -206 78 -152 c 0,84,85
146 104 m 0,93,94
 191 177 191 177 191 186 c 0,95,96
 191 203 191 203 202.5 220.5 c 128,-1,97
 214 238 214 238 216 262 c 0,98,99
 220 286 220 286 210 288 c 0,100,101
 200 291 200 291 169 272 c 128,-1,102
 138 253 138 253 128 238 c 0,103,104
 127 236 127 236 99 210.5 c 128,-1,105
 71 185 71 185 60 164 c 0,106,107
 35 109 35 109 41 84 c 0,108,109
 48 55 48 55 65.5 51.5 c 128,-1,110
 83 48 83 48 115 69 c 0,111,112
 130 79 130 79 146 104 c 0,93,94
EndSplineSet
EndChar

StartChar: h
Encoding: 104 104 74
Width: 506
GlyphClass: 2
Flags: W
LayerCount: 2
Fore
SplineSet
504 120 m 0,0,1
 521 135 521 135 533.5 132 c 128,-1,2
 546 129 546 129 547 107 c 0,3,4
 547 100 547 100 543.5 93 c 128,-1,5
 540 86 540 86 536 81 c 128,-1,6
 532 76 532 76 524.5 69.5 c 128,-1,7
 517 63 517 63 512.5 60 c 128,-1,8
 508 57 508 57 499 51 c 128,-1,9
 490 45 490 45 488 43 c 2,10,11
 488 43 488 43 486.5 42 c 128,-1,12
 485 41 485 41 484 41 c 0,13,14
 482 39 482 39 478 36.5 c 128,-1,15
 474 34 474 34 473 33 c 0,16,17
 460 24 460 24 448.5 17.5 c 128,-1,18
 437 11 437 11 425 7 c 0,19,20
 404 1 404 1 372 -2 c 0,21,22
 292 -10 292 -10 253 35.5 c 128,-1,23
 214 81 214 81 198 201 c 0,24,25
 193 240 193 240 188 240 c 256,26,27
 183 240 183 240 132 196 c 0,28,29
 103 169 103 169 90 153 c 0,30,31
 84 147 84 147 79.5 137 c 128,-1,32
 75 127 75 127 70 113 c 128,-1,33
 65 99 65 99 63 94 c 0,34,35
 60 85 60 85 52 68 c 2,36,-1
 40 39 l 2,37,38
 37 32 37 32 36 16 c 128,-1,39
 35 0 35 0 30 -9.5 c 128,-1,40
 25 -19 25 -19 11 -21 c 0,41,42
 -16 -25 -16 -25 -36 3 c 0,43,44
 -48 20 -48 20 -49 29 c 128,-1,45
 -50 38 -50 38 -40 61 c 0,46,47
 -38 66 -38 66 -36 71 c 0,48,49
 -11 145 -11 145 7 178 c 0,50,51
 22 205 22 205 29.5 260 c 128,-1,52
 37 315 37 315 39 323 c 0,53,54
 53 378 53 378 92 482 c 0,55,56
 99 501 99 501 108.5 541 c 128,-1,57
 118 581 118 581 127.5 615 c 128,-1,58
 137 649 137 649 151 685 c 128,-1,59
 165 721 165 721 188.5 746 c 128,-1,60
 212 771 212 771 244 779 c 0,61,62
 270 785 270 785 287 776 c 128,-1,63
 304 767 304 767 310.5 749 c 128,-1,64
 317 731 317 731 317.5 706.5 c 128,-1,65
 318 682 318 682 315 662 c 128,-1,66
 312 642 312 642 307 625 c 0,67,68
 299 596 299 596 280 557 c 0,69,70
 261 519 261 519 254 503 c 0,71,72
 243 473 243 473 224 441 c 0,73,74
 214 428 214 428 195.5 397 c 128,-1,75
 177 366 177 366 166 351 c 0,76,77
 149 330 149 330 130 309 c 0,78,79
 127 306 127 306 120 299.5 c 128,-1,80
 113 293 113 293 108 287 c 128,-1,81
 103 281 103 281 101 276 c 0,82,83
 101 273 101 273 102.5 270.5 c 128,-1,84
 104 268 104 268 107 268 c 0,85,86
 108 268 108 268 111 270 c 0,87,88
 117 274 117 274 128 285 c 128,-1,89
 139 296 139 296 148.5 302.5 c 128,-1,90
 158 309 158 309 169 310 c 0,91,92
 175 311 175 311 182 312 c 0,93,94
 215 315 215 315 236 305.5 c 128,-1,95
 257 296 257 296 271 269 c 0,96,97
 284 241 284 241 284 206 c 0,98,99
 284 175 284 175 294 132 c 0,100,101
 304 90 304 90 315 69 c 0,102,103
 322 56 322 56 331 54 c 128,-1,104
 340 52 340 52 366 55 c 0,105,106
 398 59 398 59 419 66 c 0,107,108
 472 95 472 95 504 120 c 0,0,1
200 599 m 0,109,110
 199 597 199 597 193 586 c 128,-1,111
 187 575 187 575 184 569 c 0,112,113
 167 532 167 532 157 494 c 0,114,115
 154 481 154 481 122 398 c 0,116,117
 118 386 118 386 123 382 c 0,118,119
 127 379 127 379 133 385 c 0,120,121
 145 397 145 397 153.5 412.5 c 128,-1,122
 162 428 162 428 170.5 448 c 128,-1,123
 179 468 179 468 185 479 c 0,124,125
 207 521 207 521 223 584 c 0,126,127
 224 588 224 588 228.5 598.5 c 128,-1,128
 233 609 233 609 236.5 617 c 128,-1,129
 240 625 240 625 241 635.5 c 128,-1,130
 242 646 242 646 237 649 c 0,131,132
 232 654 232 654 224 644 c 0,133,134
 218 637 218 637 207 615 c 0,135,136
 204 607 204 607 200 599 c 0,109,110
107 268 m 1024,137,-1
EndSplineSet
EndChar

StartChar: i
Encoding: 105 105 75
AltUni2: 0000ef.ffffffff.0 0000ee.ffffffff.0 0000ed.ffffffff.0 0000ec.ffffffff.0
Width: 262
GlyphClass: 2
Flags: W
LayerCount: 2
Fore
SplineSet
188 476 m 0,0,1
 166 470 166 470 145 491 c 0,2,3
 130 506 130 506 129.5 510.5 c 128,-1,4
 129 515 129 515 141 525 c 0,5,6
 157 536 157 536 182.5 536 c 128,-1,7
 208 536 208 536 217 525 c 0,8,9
 228 512 228 512 218.5 496.5 c 128,-1,10
 209 481 209 481 188 476 c 0,0,1
328 100 m 0,11,12
 334 91 334 91 328.5 82.5 c 128,-1,13
 323 74 323 74 300 54 c 0,14,15
 263 22 263 22 213 -3 c 0,16,17
 154 -29 154 -29 95.5 -11 c 128,-1,18
 37 7 37 7 -3 56 c 0,19,20
 -40 100 -40 100 -25 172 c 0,21,22
 -23 179 -23 179 -20 200 c 128,-1,23
 -17 221 -17 221 -14 239.5 c 128,-1,24
 -11 258 -11 258 -6.5 276 c 128,-1,25
 -2 294 -2 294 3 299 c 0,26,27
 18 312 18 312 47.5 312.5 c 128,-1,28
 77 313 77 313 101 295.5 c 128,-1,29
 125 278 125 278 113 253 c 0,30,31
 95 216 95 216 95 200 c 0,32,33
 95 187 95 187 79 166 c 0,34,35
 66 149 66 149 63 127 c 128,-1,36
 60 105 60 105 71 98 c 0,37,38
 79 95 79 95 79 78 c 0,39,40
 79 64 79 64 100 46 c 0,41,42
 114 33 114 33 122 31.5 c 128,-1,43
 130 30 130 30 152 35 c 0,44,45
 185 47 185 47 235 83 c 0,46,47
 274 112 274 112 295 116 c 128,-1,48
 316 120 316 120 328 100 c 0,11,12
EndSplineSet
EndChar

StartChar: j
Encoding: 106 106 76
Width: 208
GlyphClass: 2
Flags: W
LayerCount: 2
Fore
SplineSet
154 644 m 128,-1,1
 127 664 127 664 127 674 c 0,2,3
 127 681 127 681 162 681 c 0,4,5
 195 681 195 681 213 666.5 c 128,-1,6
 231 652 231 652 218 635 c 0,7,8
 206 624 206 624 192 624 c 0,9,0
 181 624 181 624 154 644 c 128,-1,1
204 101 m 0,10,11
 221 115 221 115 233.5 112.5 c 128,-1,12
 246 110 246 110 247 88 c 0,13,14
 247 81 247 81 243.5 74 c 128,-1,15
 240 67 240 67 236.5 62 c 128,-1,16
 233 57 233 57 225 50.5 c 128,-1,17
 217 44 217 44 212.5 40.5 c 128,-1,18
 208 37 208 37 199 31 c 128,-1,19
 190 25 190 25 188 24 c 0,20,21
 170 11 170 11 150 3 c 0,22,23
 148 2 148 2 129 -8 c 128,-1,24
 110 -18 110 -18 97 -25 c 1,25,26
 84 -38 84 -38 77 -46 c 0,27,28
 48 -76 48 -76 12 -110 c 0,29,30
 -25 -143 -25 -143 -39 -183 c 0,31,32
 -58 -232 -58 -232 -69 -251 c 128,-1,33
 -80 -270 -80 -270 -105 -294 c 0,34,35
 -126 -315 -126 -315 -138 -320.5 c 128,-1,36
 -150 -326 -150 -326 -178 -326 c 0,37,38
 -218 -326 -218 -326 -246 -307 c 128,-1,39
 -274 -288 -274 -288 -274 -258 c 0,40,41
 -274 -244 -274 -244 -265 -230.5 c 128,-1,42
 -256 -217 -256 -217 -231 -192 c 0,43,44
 -214 -177 -214 -177 -184 -148 c 0,45,46
 -99 -67 -99 -67 -73 -40 c 256,47,48
 -47 -13 -47 -13 -37 2 c 0,49,50
 -26 18 -26 18 -20 44 c 0,51,52
 -20 47 -20 47 -19.5 48 c 128,-1,53
 -19 49 -19 49 -18.5 52 c 128,-1,54
 -18 55 -18 55 -18 58 c 0,55,56
 -11 85 -11 85 5 138.5 c 128,-1,57
 21 192 21 192 27 218 c 0,58,59
 30 227 30 227 35 259.5 c 128,-1,60
 40 292 40 292 47 316.5 c 128,-1,61
 54 341 54 341 65 352 c 0,62,63
 78 367 78 367 78 381 c 0,64,65
 78 392 78 392 85 398 c 0,66,67
 94 403 94 403 116 449 c 0,68,69
 139 496 139 496 159 515 c 0,70,71
 180 534 180 534 204 532 c 0,72,73
 214 531 214 531 218.5 529.5 c 128,-1,74
 223 528 223 528 225.5 524 c 128,-1,75
 228 520 228 520 229 514.5 c 128,-1,76
 230 509 230 509 228 495 c 0,77,78
 224 439 224 439 184 348 c 0,79,80
 181 341 181 341 153 289 c 128,-1,81
 125 237 125 237 121 210 c 0,82,83
 119 198 119 198 99.5 153.5 c 128,-1,84
 80 109 80 109 65 70.5 c 128,-1,85
 50 32 50 32 55 27 c 0,86,87
 65 18 65 18 122 50 c 128,-1,88
 179 82 179 82 204 101 c 0,10,11
-132 -214.5 m 128,-1,90
 -101 -168 -101 -168 -109 -160 c 0,91,92
 -118 -152 -118 -152 -159 -196 c 0,93,94
 -204 -245 -204 -245 -192 -254 c 0,95,96
 -189 -257 -189 -257 -178 -258 c 0,97,89
 -163 -261 -163 -261 -132 -214.5 c 128,-1,90
EndSplineSet
Substitution2: "'aalt' Access All Alternates lookup 0 subtable" j.alt1
EndChar

StartChar: k
Encoding: 107 107 77
Width: 504
GlyphClass: 2
Flags: W
LayerCount: 2
Fore
SplineSet
594 107 m 0,0,1
 593 94 593 94 579 79 c 0,2,3
 544 37 544 37 491 14.5 c 128,-1,4
 438 -8 438 -8 382 -4 c 0,5,6
 370 -3 370 -3 362 0 c 0,7,8
 353 3 353 3 338 13 c 0,9,10
 289 47 289 47 190 116 c 0,11,12
 174 127 174 127 164 125 c 0,13,14
 153 124 153 124 143 108 c 0,15,16
 122 76 122 76 117 38 c 0,17,18
 116 23 116 23 113 18 c 0,19,20
 108 8 108 8 95 4.5 c 128,-1,21
 82 1 82 1 71 6 c 0,22,23
 52 14 52 14 39 41 c 0,24,25
 34 52 34 52 33 63.5 c 128,-1,26
 32 75 32 75 34.5 95.5 c 128,-1,27
 37 116 37 116 37 119 c 0,28,29
 37 128 37 128 41.5 146 c 128,-1,30
 46 164 46 164 46 172 c 0,31,32
 48 186 48 186 65.5 240.5 c 128,-1,33
 83 295 83 295 94 318 c 0,34,35
 124 378 124 378 133 434 c 0,36,37
 139 476 139 476 224 656 c 0,38,39
 240 690 240 690 281 714 c 0,40,41
 320 737 320 737 341 729 c 0,42,43
 359 722 359 722 366 701.5 c 128,-1,44
 373 681 373 681 370 657 c 0,45,46
 364 615 364 615 330 538 c 0,47,48
 277 417 277 417 260 379 c 1,49,50
 267 378 267 378 276 377.5 c 128,-1,51
 285 377 285 377 292 377.5 c 128,-1,52
 299 378 299 378 309 378.5 c 128,-1,53
 319 379 319 379 325 379 c 0,54,55
 366 380 366 380 384 360 c 0,56,57
 413 328 413 328 382 267 c 0,58,59
 345 193 345 193 278 135 c 1,60,61
 286 130 286 130 296.5 122.5 c 128,-1,62
 307 115 307 115 317.5 107.5 c 128,-1,63
 328 100 328 100 336 94 c 0,64,65
 372 69 372 69 394 63 c 0,66,67
 434 54 434 54 483 79 c 0,68,69
 497 87 497 87 523 103.5 c 128,-1,70
 549 120 549 120 562 127 c 0,71,72
 571 131 571 131 576 131 c 0,73,74
 584 131 584 131 589.5 124 c 128,-1,75
 595 117 595 117 594 108 c 2,76,77
 594 108 594 108 594 107 c 0,0,1
242 218 m 0,78,79
 264 238 264 238 260 252 c 0,80,81
 254 267 254 267 241 264.5 c 128,-1,82
 228 262 228 262 213 243 c 0,83,84
 191 214 191 214 203 204.5 c 128,-1,85
 215 195 215 195 242 218 c 0,78,79
EndSplineSet
AlternateSubs2: "'aalt' Access All Alternates lookup 1 subtable" k.alt1 k.alt2
EndChar

StartChar: l
Encoding: 108 108 78
Width: 303
GlyphClass: 2
Flags: W
LayerCount: 2
Fore
SplineSet
163 263 m 256,0,1
 137 232 137 232 118 204 c 0,2,3
 99 177 99 177 100 170 c 0,4,5
 100 157 100 157 123 113 c 0,6,7
 149 62 149 62 185 62 c 0,8,9
 192 62 192 62 232 74 c 0,10,11
 241 76 241 76 260 88 c 0,12,13
 285 103 285 103 307 120 c 0,14,15
 324 134 324 134 337 131.5 c 128,-1,16
 350 129 350 129 350 107 c 0,17,18
 350 100 350 100 347 93 c 128,-1,19
 344 86 344 86 340 81 c 128,-1,20
 336 76 336 76 328.5 69.5 c 128,-1,21
 321 63 321 63 316.5 60 c 128,-1,22
 312 57 312 57 303 51 c 128,-1,23
 294 45 294 45 292 43 c 0,24,25
 286 39 286 39 273.5 31.5 c 128,-1,26
 261 24 261 24 255 20 c 0,27,28
 228 2 228 2 200 -2 c 0,29,30
 174 -5 174 -5 160.5 -1.5 c 128,-1,31
 147 2 147 2 121 19 c 0,32,33
 88 41 88 41 68 67.5 c 128,-1,34
 48 94 48 94 40.5 119 c 128,-1,35
 33 144 33 144 33 176 c 128,-1,36
 33 208 33 208 37 233.5 c 128,-1,37
 41 259 41 259 47 296 c 128,-1,38
 53 333 53 333 54 360 c 0,39,40
 54 370 54 370 55.5 381 c 128,-1,41
 57 392 57 392 58 401 c 128,-1,42
 59 410 59 410 61.5 422 c 128,-1,43
 64 434 64 434 65.5 441.5 c 128,-1,44
 67 449 67 449 70.5 462.5 c 128,-1,45
 74 476 74 476 75 481.5 c 128,-1,46
 76 487 76 487 80.5 502.5 c 128,-1,47
 85 518 85 518 86 522 c 128,-1,48
 87 526 87 526 92 543 c 128,-1,49
 97 560 97 560 98 562 c 0,50,51
 107 591 107 591 113 605 c 0,52,53
 129 635 129 635 181 677 c 0,54,55
 187 681 187 681 202.5 694 c 128,-1,56
 218 707 218 707 224.5 712 c 128,-1,57
 231 717 231 717 243.5 726 c 128,-1,58
 256 735 256 735 267.5 741.5 c 128,-1,59
 279 748 279 748 292 755 c 0,60,61
 322 769 322 769 338 765 c 0,62,63
 364 759 364 759 371 728 c 0,64,65
 373 718 373 718 374.5 708.5 c 128,-1,66
 376 699 376 699 375 687.5 c 128,-1,67
 374 676 374 676 373.5 668 c 128,-1,68
 373 660 373 660 370 647 c 128,-1,69
 367 634 367 634 365.5 628 c 128,-1,70
 364 622 364 622 359.5 607.5 c 128,-1,71
 355 593 355 593 353.5 589 c 128,-1,72
 352 585 352 585 346 569 c 128,-1,73
 340 553 340 553 339 551 c 0,74,75
 320 498 320 498 309 482 c 0,76,77
 300 471 300 471 263 400 c 0,78,79
 225 328 225 328 210 314 c 0,80,81
 189 294 189 294 163 263 c 256,0,1
132 400.5 m 128,-1,83
 121 355 121 355 128 348 c 0,84,85
 132 344 132 344 141 354 c 128,-1,86
 150 364 150 364 163 385 c 128,-1,87
 176 406 176 406 189 435 c 0,88,89
 214 486 214 486 214 491 c 0,90,91
 214 493 214 493 239 544 c 0,92,93
 263 594 263 594 263 606 c 0,94,95
 263 628 263 628 242 611 c 0,96,97
 229 600 229 600 217 578 c 0,98,99
 197 542 197 542 179 520 c 0,100,101
 164 500 164 500 164 482 c 256,102,103
 164 464 164 464 153 454 c 0,104,82
 143 446 143 446 132 400.5 c 128,-1,83
EndSplineSet
Substitution2: "'aalt' Access All Alternates lookup 0 subtable" l.alt1
EndChar

StartChar: m
Encoding: 109 109 79
Width: 696
GlyphClass: 2
Flags: W
LayerCount: 2
Fore
SplineSet
694 119 m 0,0,1
 711 133 711 133 724 130.5 c 128,-1,2
 737 128 737 128 737 106 c 0,3,4
 737 100 737 100 735 94 c 128,-1,5
 733 88 733 88 729 83 c 128,-1,6
 725 78 725 78 720.5 73.5 c 128,-1,7
 716 69 716 69 709.5 64 c 128,-1,8
 703 59 703 59 699 56 c 128,-1,9
 695 53 695 53 688 48.5 c 128,-1,10
 681 44 681 44 679 42 c 0,11,12
 655 26 655 26 632 7 c 0,13,14
 601 -17 601 -17 568 -26 c 0,15,16
 530 -38 530 -38 508.5 -38.5 c 128,-1,17
 487 -39 487 -39 454 -30 c 0,18,19
 424 -22 424 -22 405.5 -9 c 128,-1,20
 387 4 387 4 377 24.5 c 128,-1,21
 367 45 367 45 366.5 75.5 c 128,-1,22
 366 106 366 106 373 146 c 0,23,24
 381 186 381 186 397 242 c 0,25,26
 402 256 402 256 394 256 c 0,27,28
 373 256 373 256 312 181 c 128,-1,29
 251 106 251 106 217 40 c 0,30,31
 194 -5 194 -5 178 -14.5 c 128,-1,32
 162 -24 162 -24 143 -5 c 0,33,34
 126 10 126 10 127 23.5 c 128,-1,35
 128 37 128 37 147 82 c 0,36,37
 164 114 164 114 164 127 c 0,38,39
 164 138 164 138 180 172 c 1,40,41
 192 212 192 212 187 214 c 0,42,43
 179 214 179 214 153.5 186.5 c 128,-1,44
 128 159 128 159 100 120 c 128,-1,45
 72 81 72 81 58 54 c 0,46,47
 36 13 36 13 18 2 c 128,-1,48
 0 -9 0 -9 -18 7 c 0,49,50
 -35 23 -35 23 -31 46 c 128,-1,51
 -27 69 -27 69 0 121 c 0,52,53
 8 138 8 138 15.5 169.5 c 128,-1,54
 23 201 23 201 29 215 c 0,55,56
 56 270 56 270 86 294 c 0,57,58
 93 299 93 299 101 303.5 c 128,-1,59
 109 308 109 308 117.5 309 c 128,-1,60
 126 310 126 310 128.5 304 c 128,-1,61
 131 298 131 298 128 283 c 0,62,63
 121 258 121 258 133 261 c 0,64,65
 143 262 143 262 156 282 c 0,66,67
 173 310 173 310 197 327 c 0,68,69
 207 333 207 333 213 336 c 0,70,71
 221 339 221 339 224 340 c 0,72,73
 228 342 228 342 235 341.5 c 128,-1,74
 242 341 242 341 244.5 340.5 c 128,-1,75
 247 340 247 340 257 337 c 256,76,77
 267 334 267 334 273 333 c 0,78,79
 295 328 295 328 295 320 c 0,80,81
 296 319 296 319 297 297 c 0,82,83
 298 286 298 286 300.5 281.5 c 128,-1,84
 303 277 303 277 310 277.5 c 128,-1,85
 317 278 317 278 327.5 283.5 c 128,-1,86
 338 289 338 289 358 301 c 0,87,88
 405 332 405 332 439 336 c 0,89,90
 464 339 464 339 470 335.5 c 128,-1,91
 476 332 476 332 483 317 c 0,92,93
 493 292 493 292 487.5 254.5 c 128,-1,94
 482 217 482 217 467 184 c 0,95,96
 450 152 450 152 450 134 c 0,97,98
 450 120 450 120 441 92 c 0,99,100
 432 69 432 69 443.5 48.5 c 128,-1,101
 455 28 455 28 480 24 c 0,102,103
 494 21 494 21 516 26 c 0,104,105
 523 27 523 27 592 57 c 0,106,107
 593 57 593 57 602.5 62.5 c 128,-1,108
 612 68 612 68 625 76 c 128,-1,109
 638 84 638 84 652 92 c 128,-1,110
 666 100 666 100 677.5 107.5 c 128,-1,111
 689 115 689 115 694 119 c 0,0,1
EndSplineSet
EndChar

StartChar: n
Encoding: 110 110 80
AltUni2: 0000f1.ffffffff.0
Width: 550
GlyphClass: 2
Flags: W
LayerCount: 2
Fore
SplineSet
-31 108 m 0,0,1
 -18 129 -18 129 17.5 204.5 c 128,-1,2
 53 280 53 280 79 311 c 0,3,4
 83 316 83 316 88 321 c 0,5,6
 97 331 97 331 114 336.5 c 128,-1,7
 131 342 131 342 144 335 c 0,8,9
 148 332 148 332 150.5 318.5 c 128,-1,10
 153 305 153 305 156 305 c 0,11,12
 162 304 162 304 182 319 c 0,13,14
 218 344 218 344 296 360 c 0,15,16
 328 369 328 369 337 367 c 128,-1,17
 346 365 346 365 360 352 c 0,18,19
 379 335 379 335 379.5 309 c 128,-1,20
 380 283 380 283 363 260 c 0,21,22
 349 241 349 241 328 182.5 c 128,-1,23
 307 124 307 124 307 102 c 0,24,25
 307 87 307 87 317.5 68.5 c 128,-1,26
 328 50 328 50 343 38 c 128,-1,27
 358 26 358 26 371 26 c 0,28,29
 389 26 389 26 449.5 57.5 c 128,-1,30
 510 89 510 89 545 116 c 0,31,32
 571 136 571 136 582 135 c 128,-1,33
 593 134 593 134 593 112 c 0,34,35
 593 102 593 102 584.5 90 c 128,-1,36
 576 78 576 78 562.5 65.5 c 128,-1,37
 549 53 549 53 530 40 c 128,-1,38
 511 27 511 27 492 19 c 0,39,40
 440 -5 440 -5 417 -16 c 0,41,42
 378 -35 378 -35 347.5 -27 c 128,-1,43
 317 -19 317 -19 277 22 c 0,44,45
 244 55 244 55 238 67 c 128,-1,46
 232 79 232 79 232 114 c 0,47,48
 232 164 232 164 250 217 c 0,49,50
 266 272 266 272 263 277 c 0,51,52
 258 281 258 281 199.5 226 c 128,-1,53
 141 171 141 171 84.5 109.5 c 128,-1,54
 28 48 28 48 28 38 c 0,55,56
 28 30 28 30 18 21 c 128,-1,57
 8 12 8 12 -6 6 c 128,-1,58
 -20 0 -20 0 -31 2 c 0,59,60
 -49 5 -49 5 -56 30 c 0,61,62
 -62 48 -62 48 -57.5 61.5 c 128,-1,63
 -53 75 -53 75 -31 108 c 0,0,1
EndSplineSet
EndChar

StartChar: o
Encoding: 111 111 81
AltUni2: 0000f8.ffffffff.0 0000f6.ffffffff.0 0000f5.ffffffff.0 0000f4.ffffffff.0 0000f3.ffffffff.0 0000f2.ffffffff.0
Width: 403
GlyphClass: 2
Flags: W
LayerCount: 2
Fore
SplineSet
436 150 m 0,0,1
 448 145 448 145 448 123 c 0,2,3
 449 99 449 99 420 78 c 0,4,5
 410 70 410 70 397 64 c 0,6,7
 395 62 395 62 392 60 c 0,8,9
 381 54 381 54 373 53 c 0,10,11
 349 52 349 52 327 72 c 0,12,13
 322 77 322 77 316 89 c 2,14,-1
 313 93 l 2,15,16
 301 114 301 114 285 105 c 0,17,18
 273 99 273 99 258 67 c 0,19,20
 251 51 251 51 246 45 c 0,21,22
 231 23 231 23 220 20 c 0,23,24
 206 13 206 13 182 -2 c 0,25,26
 152 -21 152 -21 125 -22 c 0,27,28
 95 -24 95 -24 80 -28 c 0,29,30
 76 -29 76 -29 72 -29 c 0,31,32
 64 -29 64 -29 57 -26 c 0,33,34
 48 -22 48 -22 30 -5 c 0,35,36
 10 13 10 13 3 27 c 128,-1,37
 -4 41 -4 41 -11 75 c 0,38,39
 -23 132 -23 132 -17 166 c 128,-1,40
 -11 200 -11 200 18 246 c 0,41,42
 54 303 54 303 86 329 c 256,43,44
 118 355 118 355 165 366 c 0,45,46
 188 370 188 370 205 383 c 0,47,48
 233 400 233 400 254 396 c 0,49,50
 274 392 274 392 301 364 c 0,51,52
 315 348 315 348 321 338.5 c 128,-1,53
 327 329 327 329 330 320.5 c 128,-1,54
 333 312 333 312 333 295 c 0,55,56
 333 225 333 225 337 187 c 0,57,58
 339 165 339 165 347.5 152.5 c 128,-1,59
 356 140 356 140 376 123 c 1,60,-1
 378 124 l 2,61,62
 392 134 392 134 399 139 c 0,63,64
 422 157 422 157 436 150 c 0,0,1
255 286 m 0,65,66
 255 316 255 316 249 319 c 0,67,68
 247 317 247 317 246 315 c 0,69,70
 242 308 242 308 246 283 c 0,71,72
 250 265 250 265 253 260 c 1,73,74
 255 266 255 266 255 286 c 0,65,66
233 165 m 0,75,76
 236 182 236 182 232 190 c 0,77,78
 229 198 229 198 212 214 c 0,79,80
 187 240 187 240 187 256 c 0,81,82
 187 267 187 267 179.5 282 c 128,-1,83
 172 297 172 297 165 302 c 0,84,85
 160 305 160 305 156 305 c 0,86,87
 153 305 153 305 150 304 c 0,88,89
 142 300 142 300 118 275 c 0,90,91
 97 254 97 254 78.5 221 c 128,-1,92
 60 188 60 188 52 159 c 0,93,94
 43 131 43 131 49 119 c 0,95,96
 55 108 55 108 56 79 c 0,97,98
 58 58 58 58 62 48 c 0,99,100
 66 39 66 39 73 36 c 0,101,102
 82 32 82 32 102 32 c 0,103,104
 111 32 111 32 118 33 c 0,105,106
 124 33 124 33 129.5 34.5 c 128,-1,107
 135 36 135 36 139 39 c 0,108,109
 145 42 145 42 150 45 c 0,110,111
 156 49 156 49 164 56 c 0,112,113
 193 79 193 79 198 93 c 0,114,115
 202 108 202 108 216 125 c 0,116,117
 229 138 229 138 233 165 c 0,75,76
EndSplineSet
EndChar

StartChar: p
Encoding: 112 112 82
Width: 472
GlyphClass: 2
Flags: W
LayerCount: 2
Fore
SplineSet
470 91 m 0,0,1
 489 107 489 107 503.5 104.5 c 128,-1,2
 518 102 518 102 518 77 c 0,3,4
 518 70 518 70 515.5 63.5 c 128,-1,5
 513 57 513 57 508.5 51 c 128,-1,6
 504 45 504 45 499.5 40 c 128,-1,7
 495 35 495 35 487.5 29.5 c 128,-1,8
 480 24 480 24 475.5 21 c 128,-1,9
 471 18 471 18 463.5 13 c 128,-1,10
 456 8 456 8 453 6 c 0,11,12
 432 -9 432 -9 410 -18 c 0,13,14
 393 -26 393 -26 349 -34.5 c 128,-1,15
 305 -43 305 -43 279 -43 c 0,16,17
 258 -43 258 -43 220.5 -28.5 c 128,-1,18
 183 -14 183 -14 156.5 -2 c 128,-1,19
 130 10 130 10 130 8 c 0,20,21
 129 7 129 7 121 9 c 128,-1,22
 113 11 113 11 96 3.5 c 128,-1,23
 79 -4 79 -4 60 -28 c 0,24,25
 38 -55 38 -55 20.5 -101.5 c 128,-1,26
 3 -148 3 -148 -4 -161 c 0,27,28
 -12 -178 -12 -178 -21.5 -201 c 128,-1,29
 -31 -224 -31 -224 -39.5 -239.5 c 128,-1,30
 -48 -255 -48 -255 -63 -273 c 0,31,32
 -76 -289 -76 -289 -84 -292 c 128,-1,33
 -92 -295 -92 -295 -109 -289 c 0,34,35
 -130 -281 -130 -281 -139 -248 c 128,-1,36
 -148 -215 -148 -215 -142 -190 c 0,37,38
 -139 -179 -139 -179 -131 -166 c 128,-1,39
 -123 -153 -123 -153 -114 -139 c 128,-1,40
 -105 -125 -105 -125 -100 -115 c 0,41,42
 -96 -104 -96 -104 -92.5 -89.5 c 128,-1,43
 -89 -75 -89 -75 -85.5 -59.5 c 128,-1,44
 -82 -44 -82 -44 -79 -33 c 0,45,46
 -72 -14 -72 -14 -55.5 19.5 c 128,-1,47
 -39 53 -39 53 -33 69 c 0,48,49
 -24 95 -24 95 -16.5 159 c 128,-1,50
 -9 223 -9 223 10 255 c 0,51,52
 11 258 11 258 18.5 271 c 128,-1,53
 26 284 26 284 30 291 c 128,-1,54
 34 298 34 298 42 310 c 128,-1,55
 50 322 50 322 56 329 c 128,-1,56
 62 336 62 336 71 343 c 128,-1,57
 80 350 80 350 88 352 c 0,58,59
 119 361 119 361 133 340.5 c 128,-1,60
 147 320 147 320 131 295 c 0,61,62
 109 257 109 257 122 260 c 0,63,64
 135 264 135 264 165 294 c 0,65,66
 200 329 200 329 230.5 347 c 128,-1,67
 261 365 261 365 301 373 c 0,68,69
 340 379 340 379 341 382 c 0,70,71
 345 383 345 383 348.5 378 c 128,-1,72
 352 373 352 373 355 363 c 128,-1,73
 358 353 358 353 360 341 c 256,74,75
 362 329 362 329 364 315 c 256,76,77
 366 301 366 301 366 290 c 0,78,79
 365 168 365 168 331 132 c 0,80,81
 310 109 310 109 299 89 c 0,82,83
 295 81 295 81 290.5 78.5 c 128,-1,84
 286 76 286 76 282.5 76.5 c 128,-1,85
 279 77 279 77 273 75 c 128,-1,86
 267 73 267 73 262 67 c 0,87,88
 251 54 251 54 236 54 c 0,89,90
 225 53 225 53 207.5 41.5 c 128,-1,91
 190 30 190 30 190 24 c 0,92,93
 190 21 190 21 199 16.5 c 128,-1,94
 208 12 208 12 221 8 c 128,-1,95
 234 4 234 4 248 1.5 c 128,-1,96
 262 -1 262 -1 271 -1 c 0,97,98
 286 -1 286 -1 307 4 c 0,99,100
 316 7 316 7 336 14 c 128,-1,101
 356 21 356 21 363 25 c 0,102,103
 431 60 431 60 470 91 c 0,0,1
138.5 96.5 m 128,-1,105
 151 81 151 81 162 81 c 0,106,107
 182 81 182 81 224 117.5 c 128,-1,108
 266 154 266 154 277 178 c 0,109,110
 288 207 288 207 289.5 240 c 128,-1,111
 291 273 291 273 280 292 c 0,112,113
 270 311 270 311 259.5 307.5 c 128,-1,114
 249 304 249 304 214 270 c 0,115,116
 182 240 182 240 153.5 195 c 128,-1,117
 125 150 125 150 125 129 c 0,118,104
 126 112 126 112 138.5 96.5 c 128,-1,105
EndSplineSet
EndChar

StartChar: q
Encoding: 113 113 83
Width: 516
GlyphClass: 2
Flags: W
LayerCount: 2
Fore
SplineSet
540 120 m 0,0,1
 557 135 557 135 570 132 c 128,-1,2
 583 129 583 129 583 107 c 0,3,4
 583 100 583 100 580 93 c 128,-1,5
 577 86 577 86 573 81 c 128,-1,6
 569 76 569 76 561.5 69.5 c 128,-1,7
 554 63 554 63 549.5 60 c 128,-1,8
 545 57 545 57 536 51 c 128,-1,9
 527 45 527 45 525 43 c 0,10,11
 506 31 506 31 486 22 c 0,12,13
 484 21 484 21 479.5 18.5 c 128,-1,14
 475 16 475 16 467.5 12 c 128,-1,15
 460 8 460 8 454 5 c 0,16,17
 454 3 454 3 435.5 -6 c 128,-1,18
 417 -15 417 -15 410 -17 c 0,19,20
 395 -23 395 -23 385 -27 c 128,-1,21
 375 -31 375 -31 371 -35 c 128,-1,22
 367 -39 367 -39 368 -43 c 0,23,24
 381 -88 381 -88 371.5 -154.5 c 128,-1,25
 362 -221 362 -221 336 -276 c 0,26,27
 318 -314 318 -314 285 -337.5 c 128,-1,28
 252 -361 252 -361 212 -366 c 0,29,30
 182 -371 182 -371 171 -368 c 128,-1,31
 160 -365 160 -365 144 -352 c 0,32,33
 128 -337 128 -337 125 -325 c 128,-1,34
 122 -313 122 -313 122 -269 c 0,35,36
 122 -207 122 -207 131 -190.5 c 128,-1,37
 140 -174 140 -174 140 -159 c 0,38,39
 140 -140 140 -140 156 -107 c 0,40,41
 172 -66 172 -66 181 -9 c 1,42,43
 181 -9 181 -9 177 -8.5 c 128,-1,44
 173 -8 173 -8 167 -8.5 c 128,-1,45
 161 -9 161 -9 155 -9 c 128,-1,46
 149 -9 149 -9 144 -9.5 c 128,-1,47
 139 -10 139 -10 138 -10 c 0,48,49
 110 -10 110 -10 93 -2 c 0,50,51
 73 8 73 8 49 40 c 0,52,53
 39 54 39 54 36 63 c 0,54,55
 30 82 30 82 46 131 c 0,56,57
 56 161 56 161 68 176 c 0,58,59
 70 178 70 178 73 181.5 c 128,-1,60
 76 185 76 185 78.5 188 c 128,-1,61
 81 191 81 191 84 194 c 128,-1,62
 87 197 87 197 89.5 200 c 128,-1,63
 92 203 92 203 94 207 c 128,-1,64
 96 211 96 211 97 215 c 0,65,66
 106 239 106 239 138 271 c 0,67,68
 178 310 178 310 190 310 c 256,69,70
 202 310 202 310 222 326 c 0,71,72
 238 341 238 341 271 348 c 0,73,74
 301 352 301 352 308 355 c 0,75,76
 324 361 324 361 343 358 c 128,-1,77
 362 355 362 355 369 347 c 0,78,79
 380 334 380 334 390.5 334 c 128,-1,80
 401 334 401 334 410 318 c 0,81,82
 416 307 416 307 413.5 295 c 128,-1,83
 411 283 411 283 399 257 c 0,84,85
 385 230 385 230 381 224 c 0,86,87
 380 221 380 221 377 217 c 128,-1,88
 374 213 374 213 371.5 210 c 128,-1,89
 369 207 369 207 366.5 203 c 128,-1,90
 364 199 364 199 363 195 c 0,91,92
 362 190 362 190 361.5 180.5 c 128,-1,93
 361 171 361 171 361 170 c 0,94,95
 360 157 360 157 347 127.5 c 128,-1,96
 334 98 334 98 338 78 c 0,97,98
 340 69 340 69 335 58 c 128,-1,99
 330 47 330 47 330 42 c 0,100,101
 329 27 329 27 364 37 c 0,102,103
 410 51 410 51 413 50 c 0,104,105
 415 50 415 50 416 50 c 0,106,107
 438 57 438 57 445 61 c 0,108,109
 505 92 505 92 540 120 c 0,0,1
179 90 m 0,110,111
 188 93 188 93 221 134 c 128,-1,112
 254 175 254 175 267 199 c 0,113,114
 281 226 281 226 276 240 c 0,115,116
 271 253 271 253 261 253 c 0,117,118
 247 253 247 253 220.5 234 c 128,-1,119
 194 215 194 215 179 193 c 0,120,121
 138 140 138 140 131 89 c 0,122,123
 128 64 128 64 139 65 c 0,124,125
 145 67 145 67 154 74 c 0,126,127
 171 87 171 87 179 90 c 0,110,111
271.5 -223.5 m 128,-1,129
 290 -183 290 -183 290 -118 c 0,130,131
 292 -68 292 -68 281 -58 c 0,132,133
 273 -50 273 -50 267 -62 c 256,134,135
 261 -74 261 -74 243 -132 c 0,136,137
 240 -142 240 -142 235 -157 c 0,138,139
 230 -173 230 -173 226 -184 c 0,140,141
 222 -196 222 -196 221 -202 c 0,142,143
 207 -243 207 -243 207.5 -253.5 c 128,-1,144
 208 -264 208 -264 223 -264 c 0,145,128
 253 -264 253 -264 271.5 -223.5 c 128,-1,129
EndSplineSet
EndChar

StartChar: r
Encoding: 114 114 84
Width: 443
GlyphClass: 2
Flags: W
LayerCount: 2
Fore
SplineSet
459 99 m 0,0,1
 475 114 475 114 487.5 111 c 128,-1,2
 500 108 500 108 500 86 c 0,3,4
 500 80 500 80 498 74 c 128,-1,5
 496 68 496 68 492 62.5 c 128,-1,6
 488 57 488 57 484 53 c 128,-1,7
 480 49 480 49 474 44 c 128,-1,8
 468 39 468 39 463.5 36 c 128,-1,9
 459 33 459 33 452.5 28 c 128,-1,10
 446 23 446 23 444 22 c 0,11,12
 426 9 426 9 407 1 c 0,13,14
 406 0 406 0 403 -2 c 0,15,16
 401 -6 401 -6 396 -8 c 0,17,18
 392 -10 392 -10 383 -13 c 0,19,20
 357 -28 357 -28 300 -29 c 128,-1,21
 243 -30 243 -30 235 -22 c 0,22,23
 228 -18 228 -18 219.5 -2.5 c 128,-1,24
 211 13 211 13 205 28 c 128,-1,25
 199 43 199 43 197 51 c 0,26,27
 193 73 193 73 194 100 c 0,28,29
 196 126 196 126 203 183 c 1,30,-1
 203 194 l 2,31,32
 203 198 203 198 200 200 c 128,-1,33
 197 202 197 202 193 202 c 0,34,35
 188 203 188 203 180 203 c 0,36,37
 169 203 169 203 149 209 c 128,-1,38
 129 215 129 215 119 215 c 1,39,40
 119 215 119 215 118 211.5 c 128,-1,41
 117 208 117 208 114 203 c 0,42,43
 101 165 101 165 86.5 134.5 c 128,-1,44
 72 104 72 104 60 86.5 c 128,-1,45
 48 69 48 69 38 57 c 128,-1,46
 28 45 28 45 23 41 c 2,47,-1
 17 37 l 2,48,49
 -1 26 -1 26 -8 37.5 c 128,-1,50
 -15 49 -15 49 -13 65 c 2,51,-1
 -11 82 l 1,52,53
 2 92 2 92 16 133 c 0,54,55
 21 153 21 153 30 179 c 1,56,-1
 30 180 l 1,57,58
 40 211 40 211 59 260 c 0,59,60
 61 265 61 265 67 280 c 128,-1,61
 73 295 73 295 75.5 301 c 128,-1,62
 78 307 78 307 82.5 320 c 128,-1,63
 87 333 87 333 89.5 341.5 c 128,-1,64
 92 350 92 350 94.5 361.5 c 128,-1,65
 97 373 97 373 98 383.5 c 128,-1,66
 99 394 99 394 99 405 c 0,67,68
 99 418 99 418 115 451 c 0,69,70
 130 483 130 483 139 490 c 0,71,72
 151 497 151 497 172 495 c 128,-1,73
 193 493 193 493 199 485 c 0,74,75
 208 473 208 473 199 394 c 0,76,77
 193 342 193 342 193 327 c 0,78,79
 194 311 194 311 201 301 c 0,80,81
 210 293 210 293 217 293.5 c 128,-1,82
 224 294 224 294 243 306 c 0,83,84
 270 322 270 322 282.5 321.5 c 128,-1,85
 295 321 295 321 306 304 c 0,86,87
 314 291 314 291 313.5 281 c 128,-1,88
 313 271 313 271 302 242 c 0,89,90
 287 199 287 199 275 146 c 0,91,92
 266 104 266 104 269.5 83.5 c 128,-1,93
 273 63 273 63 294 35 c 0,94,95
 303 22 303 22 308 20 c 0,96,97
 310 19 310 19 314 20 c 128,-1,98
 318 21 318 21 322 23 c 128,-1,99
 326 25 326 25 330.5 26.5 c 128,-1,100
 335 28 335 28 336 29 c 0,101,102
 360 35 360 35 367 39 c 0,103,104
 425 71 425 71 459 99 c 0,0,1
EndSplineSet
EndChar

StartChar: s
Encoding: 115 115 85
AltUni2: 0000df.ffffffff.0
Width: 408
GlyphClass: 2
Flags: W
LayerCount: 2
Fore
SplineSet
404 148 m 0,0,1
 422 163 422 163 434.5 160 c 128,-1,2
 447 157 447 157 448 135 c 0,3,4
 448 128 448 128 444.5 121 c 128,-1,5
 441 114 441 114 437 109 c 128,-1,6
 433 104 433 104 425.5 97.5 c 128,-1,7
 418 91 418 91 413.5 88 c 128,-1,8
 409 85 409 85 400 79 c 128,-1,9
 391 73 391 73 389 71 c 0,10,11
 371 59 371 59 351 51 c 0,12,13
 349 50 349 50 343 46 c 0,14,15
 322 24 322 24 305 17 c 0,16,17
 289 10 289 10 263 9 c 1,18,19
 237 1 237 1 226 10 c 0,20,21
 222 10 222 10 211 11.5 c 128,-1,22
 200 13 200 13 194.5 13.5 c 128,-1,23
 189 14 189 14 179.5 14 c 128,-1,24
 170 14 170 14 163.5 13.5 c 128,-1,25
 157 13 157 13 149 11 c 128,-1,26
 141 9 141 9 135 5 c 0,27,28
 124 0 124 0 108.5 0 c 128,-1,29
 93 0 93 0 55 6 c 0,30,31
 28 10 28 10 9 12 c 0,32,33
 5 12 5 12 0 12 c 128,-1,34
 -5 12 -5 12 -10.5 12.5 c 128,-1,35
 -16 13 -16 13 -18 15 c 0,36,37
 -27 20 -27 20 -40 57 c 0,38,39
 -47 79 -47 79 -49 101 c 0,40,41
 -50 110 -50 110 -48 116 c 0,42,43
 -44 135 -44 135 -36 140 c 0,44,45
 -33 142 -33 142 -24.5 143.5 c 128,-1,46
 -16 145 -16 145 -11 149 c 0,47,48
 -5 155 -5 155 0 167 c 0,49,50
 5 180 5 180 6 194 c 0,51,52
 6 207 6 207 8 211 c 0,53,54
 10 214 10 214 13 216.5 c 128,-1,55
 16 219 16 219 18.5 220 c 128,-1,56
 21 221 21 221 24.5 223 c 128,-1,57
 28 225 28 225 30 227 c 0,58,59
 40 235 40 235 46 249 c 0,60,61
 49 256 49 256 59 292 c 0,62,63
 67 321 67 321 73 352 c 0,64,65
 79 382 79 382 81 403 c 0,66,67
 84 451 84 451 91 459.5 c 128,-1,68
 98 468 98 468 116.5 467.5 c 128,-1,69
 135 467 135 467 148 458 c 0,70,71
 153 454 153 454 157.5 448.5 c 128,-1,72
 162 443 162 443 165 435 c 128,-1,73
 168 427 168 427 170 421 c 128,-1,74
 172 415 172 415 174.5 406 c 128,-1,75
 177 397 177 397 178 393 c 0,76,77
 192 350 192 350 198 314 c 0,78,79
 200 305 200 305 201.5 293 c 128,-1,80
 203 281 203 281 204.5 270.5 c 128,-1,81
 206 260 206 260 207.5 248.5 c 128,-1,82
 209 237 209 237 211 226.5 c 128,-1,83
 213 216 213 216 215.5 204.5 c 128,-1,84
 218 193 218 193 222 184 c 0,85,86
 235 149 235 149 230 121 c 0,87,88
 226 91 226 91 232.5 73 c 128,-1,89
 239 55 239 55 268 57 c 0,90,91
 279 58 279 58 288.5 61.5 c 128,-1,92
 298 65 298 65 308.5 72.5 c 128,-1,93
 319 80 319 80 323.5 84 c 128,-1,94
 328 88 328 88 340 99 c 128,-1,95
 352 110 352 110 376.5 128 c 128,-1,96
 401 146 401 146 404 148 c 0,0,1
160 129.5 m 128,-1,98
 166 157 166 157 146 217 c 0,99,100
 127 274 127 274 123 274 c 0,101,102
 117 274 117 274 113 252 c 0,103,104
 108 232 108 232 102 222 c 0,105,106
 92 209 92 209 71.5 165.5 c 128,-1,107
 51 122 51 122 54 118 c 0,108,109
 58 112 58 112 70 106 c 128,-1,110
 82 100 82 100 95.5 96.5 c 128,-1,111
 109 93 109 93 119 95 c 0,112,97
 154 102 154 102 160 129.5 c 128,-1,98
EndSplineSet
Substitution2: "'aalt' Access All Alternates lookup 0 subtable" s.alt1
EndChar

StartChar: t
Encoding: 116 116 86
Width: 387
GlyphClass: 2
Flags: W
LayerCount: 2
Fore
SplineSet
397 95 m 0,0,1
 416 107 416 107 428.5 103 c 128,-1,2
 441 99 441 99 439 77 c 0,3,4
 438 71 438 71 435.5 65.5 c 128,-1,5
 433 60 433 60 428 55 c 128,-1,6
 423 50 423 50 418.5 46 c 128,-1,7
 414 42 414 42 407 38 c 128,-1,8
 400 34 400 34 395.5 31.5 c 128,-1,9
 391 29 391 29 383.5 25 c 128,-1,10
 376 21 376 21 374 20 c 0,11,12
 354 9 354 9 333 3 c 0,13,14
 332 3 332 3 314 -9 c 128,-1,15
 296 -21 296 -21 272 -34.5 c 128,-1,16
 248 -48 248 -48 233 -53 c 0,17,18
 206 -62 206 -62 176.5 -66.5 c 128,-1,19
 147 -71 147 -71 113.5 -66.5 c 128,-1,20
 80 -62 80 -62 61 -44 c 0,21,22
 27 -14 27 -14 18.5 52 c 128,-1,23
 10 118 10 118 16 180 c 0,24,25
 16 184 16 184 24.5 247 c 128,-1,26
 33 310 33 310 40.5 370.5 c 128,-1,27
 48 431 48 431 48 431 c 1,28,29
 38 438 38 438 13 439 c 0,30,31
 -3 440 -3 440 -19 440 c 0,32,33
 -58 439 -58 439 -74 442 c 0,34,35
 -80 443 -80 443 -90 442.5 c 128,-1,36
 -100 442 -100 442 -109.5 443 c 128,-1,37
 -119 444 -119 444 -120 448 c 0,38,39
 -121 460 -121 460 -110 466 c 0,40,41
 -109 466 -109 466 -99.5 472 c 128,-1,42
 -90 478 -90 478 -79 483.5 c 128,-1,43
 -68 489 -68 489 -50 493.5 c 128,-1,44
 -32 498 -32 498 -13 496 c 0,45,46
 46 491 46 491 60 493 c 128,-1,47
 74 495 74 495 89 510 c 0,48,49
 110 530 110 530 145 613 c 0,50,51
 147 616 147 616 149 622 c 0,52,53
 160 647 160 647 166.5 660.5 c 128,-1,54
 173 674 173 674 185.5 698.5 c 128,-1,55
 198 723 198 723 209 738 c 128,-1,56
 220 753 220 753 236.5 769 c 128,-1,57
 253 785 253 785 270 793 c 0,58,59
 336 825 336 825 335 788 c 0,60,61
 335 769 335 769 303 693 c 0,62,63
 296 677 296 677 293 667 c 0,64,65
 288 652 288 652 284.5 632.5 c 128,-1,66
 281 613 281 613 270 594 c 0,67,68
 251 561 251 561 238 538 c 0,69,70
 223 512 223 512 227 507 c 0,71,72
 231 501 231 501 307 493 c 0,73,74
 359 487 359 487 370 483.5 c 128,-1,75
 381 480 381 480 380 468 c 0,76,77
 378 453 378 453 362 456 c 0,78,79
 357 457 357 457 338 456 c 0,80,81
 319 456 319 456 296 455 c 0,82,83
 272 453 272 453 247 450 c 256,84,85
 222 447 222 447 206 445 c 0,86,87
 197 444 197 444 183 395 c 128,-1,88
 169 346 169 346 152 277 c 128,-1,89
 135 208 135 208 128 184 c 0,90,91
 88 65 88 65 138 19 c 0,92,93
 160 -1 160 -1 180 0 c 0,94,95
 192 0 192 0 206 8 c 0,96,97
 208 11 208 11 222 17.5 c 128,-1,98
 236 24 236 24 250.5 29.5 c 128,-1,99
 265 35 265 35 280.5 40.5 c 128,-1,100
 296 46 296 46 296 46 c 2,101,102
 359 70 359 70 397 95 c 0,0,1
EndSplineSet
EndChar

StartChar: u
Encoding: 117 117 87
AltUni2: 0000fc.ffffffff.0 0000fb.ffffffff.0 0000fa.ffffffff.0 0000f9.ffffffff.0
Width: 532
GlyphClass: 2
Flags: W
LayerCount: 2
Fore
SplineSet
537 137 m 0,0,1
 554 151 554 151 567 148.5 c 128,-1,2
 580 146 580 146 580 124 c 0,3,4
 580 117 580 117 577 110 c 128,-1,5
 574 103 574 103 570 98 c 128,-1,6
 566 93 566 93 558 86.5 c 128,-1,7
 550 80 550 80 546 77 c 128,-1,8
 542 74 542 74 533 68 c 128,-1,9
 524 62 524 62 522 60 c 0,10,11
 466 22 466 22 464 20 c 0,12,13
 459 15 459 15 440.5 9.5 c 128,-1,14
 422 4 422 4 412 4 c 0,15,16
 382 -8 382 -8 337 13 c 0,17,18
 316 23 316 23 279 58 c 2,19,-1
 249 87 l 1,20,-1
 209 58 l 2,21,22
 169 30 169 30 121 24 c 0,23,24
 81 20 81 20 45 32.5 c 128,-1,25
 9 45 9 45 -12 76.5 c 128,-1,26
 -33 108 -33 108 -24 150 c 0,27,28
 -15 196 -15 196 21 250.5 c 128,-1,29
 57 305 57 305 96 343 c 0,30,31
 127 372 127 372 145 372 c 0,32,33
 153 372 153 372 169 357 c 0,34,35
 179 345 179 345 178.5 338 c 128,-1,36
 178 331 178 331 166 309 c 0,37,38
 70 121 70 121 116 105 c 2,39,-1
 122 103 l 1,40,41
 155 99 155 99 211 157 c 128,-1,42
 267 215 267 215 289 274 c 0,43,44
 306 314 306 314 329 346 c 0,45,46
 350 374 350 374 359 377.5 c 128,-1,47
 368 381 368 381 394 368 c 0,48,49
 416 357 416 357 417 341.5 c 128,-1,50
 418 326 418 326 401 294 c 0,51,52
 393 280 393 280 387 264 c 256,53,54
 381 248 381 248 378 236 c 0,55,56
 378 233 378 233 375 222.5 c 128,-1,57
 372 212 372 212 370 204 c 0,58,59
 365 184 365 184 362 172 c 0,60,61
 353 138 353 138 353 109 c 128,-1,62
 353 80 353 80 363 71 c 0,63,64
 371 63 371 63 397 61 c 0,65,66
 403 63 403 63 412.5 66.5 c 128,-1,67
 422 70 422 70 429 72.5 c 128,-1,68
 436 75 436 75 441 78 c 0,69,70
 502 109 502 109 537 137 c 0,0,1
EndSplineSet
EndChar

StartChar: v
Encoding: 118 118 88
Width: 553
GlyphClass: 2
Flags: W
LayerCount: 2
Fore
SplineSet
515 139 m 0,0,1
 487 144 487 144 467 153 c 0,2,3
 459 156 459 156 434.5 175.5 c 128,-1,4
 410 195 410 195 400 197 c 0,5,6
 377 199 377 199 360.5 183 c 128,-1,7
 344 167 344 167 326.5 133.5 c 128,-1,8
 309 100 309 100 305 94 c 0,9,10
 297 83 297 83 270 64 c 128,-1,11
 243 45 243 45 217 28.5 c 128,-1,12
 191 12 191 12 189 11 c 0,13,14
 179 3 179 3 149 0.5 c 128,-1,15
 119 -2 119 -2 88.5 4.5 c 128,-1,16
 58 11 58 11 49 26 c 0,17,18
 44 34 44 34 41 53 c 128,-1,19
 38 72 38 72 36 101.5 c 128,-1,20
 34 131 34 131 34 134 c 0,21,22
 30 173 30 173 41 195 c 0,23,24
 44 199 44 199 58 285.5 c 128,-1,25
 72 372 72 372 92 406 c 0,26,27
 123 460 123 460 175 401 c 0,28,29
 188 387 188 387 185 350 c 256,30,31
 182 313 182 313 166 277 c 0,32,33
 156 255 156 255 142 212 c 0,34,35
 128 168 128 168 123 156 c 0,36,37
 107 113 107 113 124 90 c 0,38,39
 132 80 132 80 161.5 95 c 128,-1,40
 191 110 191 110 202 123 c 0,41,42
 218 141 218 141 247.5 198.5 c 128,-1,43
 277 256 277 256 282 281 c 0,44,45
 288 306 288 306 307.5 330 c 128,-1,46
 327 354 327 354 350.5 368 c 128,-1,47
 374 382 374 382 399 377.5 c 128,-1,48
 424 373 424 373 439 345 c 0,49,50
 446 332 446 332 452 295.5 c 128,-1,51
 458 259 458 259 474 241 c 0,52,53
 489 224 489 224 506 217 c 128,-1,54
 523 210 523 210 547.5 206.5 c 128,-1,55
 572 203 572 203 586 198 c 0,56,57
 602 192 602 192 612 176.5 c 128,-1,58
 622 161 622 161 613 147 c 0,59,60
 602 129 602 129 563 133 c 0,61,62
 531 136 531 136 515 139 c 0,0,1
EndSplineSet
EndChar

StartChar: w
Encoding: 119 119 89
Width: 693
GlyphClass: 2
Flags: W
LayerCount: 2
Fore
SplineSet
720 147 m 0,0,1
 737 161 737 161 750 158.5 c 128,-1,2
 763 156 763 156 763 134 c 0,3,4
 763 115 763 115 742.5 95 c 128,-1,5
 722 75 722 75 703 68 c 0,6,7
 690 63 690 63 675 68.5 c 128,-1,8
 660 74 660 74 652 82 c 2,9,-1
 643 89 l 1,10,11
 643 89 643 89 631.5 97.5 c 128,-1,12
 620 106 620 106 606 115 c 128,-1,13
 592 124 592 124 576 130 c 128,-1,14
 560 136 560 136 551 131 c 0,15,16
 540 126 540 126 528.5 112 c 128,-1,17
 517 98 517 98 505 79 c 128,-1,18
 493 60 493 60 487 53 c 0,19,20
 473 36 473 36 463.5 27.5 c 128,-1,21
 454 19 454 19 440 12 c 0,22,23
 414 -1 414 -1 379 0 c 128,-1,24
 344 1 344 1 315 15 c 0,25,26
 283 31 283 31 268 30.5 c 128,-1,27
 253 30 253 30 244 15 c 0,28,29
 239 4 239 4 229.5 1.5 c 128,-1,30
 220 -1 220 -1 189 2 c 0,31,32
 163 5 163 5 147 9 c 0,33,34
 102 22 102 22 75 46 c 128,-1,35
 48 70 48 70 39.5 100 c 128,-1,36
 31 130 31 130 35.5 164.5 c 128,-1,37
 40 199 40 199 55.5 232.5 c 128,-1,38
 71 266 71 266 95 298 c 0,39,40
 110 319 110 319 125 321 c 0,41,42
 132 323 132 323 135 323 c 0,43,44
 140 324 140 324 149 326 c 0,45,46
 155 326 155 326 165 307 c 0,47,48
 174 286 174 286 160 248 c 0,49,50
 143 207 143 207 143 147 c 0,51,52
 143 105 143 105 145.5 95 c 128,-1,53
 148 85 148 85 160 83 c 0,54,55
 175 81 175 81 202 108 c 128,-1,56
 229 135 229 135 229 151 c 0,57,58
 229 163 229 163 250 177 c 0,59,60
 274 193 274 193 299 234 c 0,61,62
 327 278 327 278 348 283 c 0,63,64
 386 293 386 293 395.5 268 c 128,-1,65
 405 243 405 243 378 204 c 0,66,67
 358 176 358 176 345.5 137.5 c 128,-1,68
 333 99 333 99 340 90 c 0,69,70
 343 81 343 81 367 81 c 0,71,72
 389 81 389 81 432 127 c 128,-1,73
 475 173 475 173 484 207 c 0,74,75
 492 241 492 241 508 267 c 0,76,77
 519 284 519 284 527.5 289 c 128,-1,78
 536 294 536 294 553 294 c 256,79,80
 570 294 570 294 579 281 c 128,-1,81
 588 268 588 268 589.5 251.5 c 128,-1,82
 591 235 591 235 596.5 215 c 128,-1,83
 602 195 602 195 614 185 c 0,84,85
 620 179 620 179 635 170 c 0,86,87
 679 143 679 143 705 138 c 1,88,89
 705 138 705 138 705 138 c 1,90,91
 716 144 716 144 720 147 c 0,0,1
EndSplineSet
EndChar

StartChar: x
Encoding: 120 120 90
Width: 704
GlyphClass: 2
Flags: W
LayerCount: 2
Fore
SplineSet
724 135 m 0,0,1
 742 149 742 149 754.5 146.5 c 128,-1,2
 767 144 767 144 768 121 c 0,3,4
 768 115 768 115 764.5 108 c 128,-1,5
 761 101 761 101 757 95.5 c 128,-1,6
 753 90 753 90 745.5 83.5 c 128,-1,7
 738 77 738 77 733.5 74 c 128,-1,8
 729 71 729 71 720 65 c 128,-1,9
 711 59 711 59 709 58 c 0,10,11
 691 45 691 45 671 37 c 0,12,13
 668 35 668 35 656 29 c 1,14,15
 644 15 644 15 614 7 c 1,16,17
 588 -5 588 -5 525 -2 c 0,18,19
 458 2 458 2 421 41 c 0,20,21
 401 62 401 62 391 62 c 0,22,23
 382 62 382 62 293 -32 c 256,24,25
 204 -126 204 -126 193 -126 c 0,26,27
 188 -126 188 -126 175.5 -116 c 128,-1,28
 163 -106 163 -106 152.5 -94.5 c 128,-1,29
 142 -83 142 -83 142 -77 c 0,30,31
 142 -68 142 -68 239 30 c 0,32,33
 335 129 335 129 342 141 c 0,34,35
 350 157 350 157 342.5 201.5 c 128,-1,36
 335 246 335 246 315 263.5 c 128,-1,37
 295 281 295 281 266 269 c 128,-1,38
 237 257 237 257 210 240 c 128,-1,39
 183 223 183 223 149 188 c 128,-1,40
 115 153 115 153 99 135.5 c 128,-1,41
 83 118 83 118 63 94 c 256,42,43
 43 70 43 70 27 75 c 0,44,45
 20 77 20 77 11 88 c 0,46,47
 4 96 4 96 4 101 c 0,48,49
 2 110 2 110 13 122 c 0,50,51
 20 130 20 130 45 159 c 128,-1,52
 70 188 70 188 79 198 c 128,-1,53
 88 208 88 208 111.5 233 c 128,-1,54
 135 258 135 258 148.5 269 c 128,-1,55
 162 280 162 280 186 298 c 128,-1,56
 210 316 210 316 229 325 c 128,-1,57
 248 334 248 334 273 342.5 c 128,-1,58
 298 351 298 351 324 354 c 0,59,60
 354 356 354 356 366 353 c 128,-1,61
 378 350 378 350 395 337 c 0,62,63
 419 316 419 316 427 286 c 0,64,65
 433 257 433 257 447 252 c 1,66,67
 446 252 446 252 478.5 281 c 128,-1,68
 511 310 511 310 547 340 c 128,-1,69
 583 370 583 370 591 374 c 0,70,71
 594 375 594 375 601 379.5 c 128,-1,72
 608 384 608 384 613.5 386.5 c 128,-1,73
 619 389 619 389 625 389 c 0,74,75
 635 389 635 389 651 375.5 c 128,-1,76
 667 362 667 362 667 353 c 0,77,78
 667 341 667 341 632.5 304 c 128,-1,79
 598 267 598 267 588 267 c 0,80,81
 582 267 582 267 561 249.5 c 128,-1,82
 540 232 540 232 518 209 c 2,83,-1
 460 151 l 1,84,-1
 469 119 l 2,85,86
 478 88 478 88 507 71 c 0,87,88
 527 58 527 58 537.5 56.5 c 128,-1,89
 548 55 548 55 573 62 c 0,90,91
 578 64 578 64 586.5 66.5 c 128,-1,92
 595 69 595 69 602 71.5 c 128,-1,93
 609 74 609 74 618 76 c 128,-1,94
 627 78 627 78 634 78 c 0,95,96
 691 108 691 108 724 135 c 0,0,1
EndSplineSet
Substitution2: "'aalt' Access All Alternates lookup 0 subtable" x.alt1
EndChar

StartChar: y
Encoding: 121 121 91
AltUni2: 0000ff.ffffffff.0 0000fd.ffffffff.0
Width: 426
GlyphClass: 2
Flags: W
LayerCount: 2
Fore
SplineSet
456 120 m 0,0,1
 473 135 473 135 486 132 c 128,-1,2
 499 129 499 129 499 107 c 0,3,4
 499 101 499 101 497 95.5 c 128,-1,5
 495 90 495 90 491 84.5 c 128,-1,6
 487 79 487 79 483 74.5 c 128,-1,7
 479 70 479 70 472.5 65 c 128,-1,8
 466 60 466 60 461.5 57 c 128,-1,9
 457 54 457 54 450 49.5 c 128,-1,10
 443 45 443 45 441 43 c 2,11,12
 441 43 441 43 440 43 c 0,13,14
 435 34 435 34 417.5 24 c 128,-1,15
 400 14 400 14 383 12 c 1,16,17
 366 3 366 3 354 -3 c 1,18,19
 350 -18 350 -18 290 -68 c 0,20,21
 267 -88 267 -88 251.5 -102 c 128,-1,22
 236 -116 236 -116 212.5 -140 c 128,-1,23
 189 -164 189 -164 176.5 -188 c 128,-1,24
 164 -212 164 -212 163 -233 c 0,25,26
 163 -243 163 -243 137 -255 c 0,27,28
 119 -265 119 -265 111 -265 c 128,-1,29
 103 -265 103 -265 84 -256 c 0,30,31
 60 -245 60 -245 53 -222 c 0,32,33
 46 -198 46 -198 56 -176 c 128,-1,34
 66 -154 66 -154 83.5 -139.5 c 128,-1,35
 101 -125 101 -125 121 -106 c 128,-1,36
 141 -87 141 -87 148 -72 c 0,37,38
 161 -45 161 -45 170 -36 c 0,39,40
 181 -25 181 -25 178.5 -6.5 c 128,-1,41
 176 12 176 12 163 19 c 0,42,43
 148 27 148 27 117 14 c 0,44,45
 66 -7 66 -7 30.5 20 c 128,-1,46
 -5 47 -5 47 -12 111 c 0,47,48
 -16 141 -16 141 -4 196 c 128,-1,49
 8 251 8 251 7 276 c 0,50,51
 7 296 7 296 11 318 c 128,-1,52
 15 340 15 340 25.5 362 c 128,-1,53
 36 384 36 384 51 395 c 0,54,55
 76 412 76 412 103.5 397.5 c 128,-1,56
 131 383 131 383 133 354 c 0,57,58
 134 338 134 338 125 307 c 0,59,60
 119 285 119 285 108 255.5 c 128,-1,61
 97 226 97 226 86.5 198 c 128,-1,62
 76 170 76 170 71 147 c 0,63,64
 64 120 64 120 64.5 102.5 c 128,-1,65
 65 85 65 85 73 85 c 0,66,67
 102 85 102 85 158.5 150 c 128,-1,68
 215 215 215 215 225 262 c 0,69,70
 231 286 231 286 238 294 c 0,71,72
 246 306 246 306 257 343 c 0,73,74
 269 384 269 384 302 419 c 0,75,76
 321 440 321 440 333.5 447 c 128,-1,77
 346 454 346 454 363 454 c 0,78,79
 392 454 392 454 397 442 c 0,80,81
 404 426 404 426 387 375.5 c 128,-1,82
 370 325 370 325 369 321 c 0,83,84
 367 307 367 307 365 301 c 0,85,86
 363 297 363 297 354 282 c 0,87,88
 338 257 338 257 327 223 c 128,-1,89
 316 189 316 189 306.5 146 c 128,-1,90
 297 103 297 103 290 82 c 0,91,92
 277 41 277 41 281 39 c 0,93,94
 283 35 283 35 364 73.5 c 128,-1,95
 445 112 445 112 456 120 c 0,0,1
EndSplineSet
EndChar

StartChar: z
Encoding: 122 122 92
Width: 569
GlyphClass: 2
Flags: W
LayerCount: 2
Fore
SplineSet
590 120 m 0,0,1
 607 135 607 135 620 132 c 128,-1,2
 633 129 633 129 633 107 c 0,3,4
 633 100 633 100 630 93 c 128,-1,5
 627 86 627 86 623 81 c 128,-1,6
 619 76 619 76 611 69.5 c 128,-1,7
 603 63 603 63 598.5 60 c 128,-1,8
 594 57 594 57 585 51 c 128,-1,9
 576 45 576 45 575 43 c 0,10,11
 552 28 552 28 500.5 -1 c 128,-1,12
 449 -30 449 -30 423 -49 c 0,13,14
 374 -85 374 -85 284.5 -176.5 c 128,-1,15
 195 -268 195 -268 142 -306 c 0,16,17
 112 -329 112 -329 84.5 -319.5 c 128,-1,18
 57 -310 57 -310 50 -270 c 0,19,20
 46 -252 46 -252 55 -221 c 0,21,22
 67 -181 67 -181 96 -148 c 0,23,24
 117 -124 117 -124 166 -97 c 0,25,26
 177 -91 177 -91 200 -74.5 c 128,-1,27
 223 -58 223 -58 236 -52 c 0,28,29
 271 -35 271 -35 288.5 -17 c 128,-1,30
 306 1 306 1 317 35 c 0,31,32
 356 164 356 164 308 158 c 0,33,34
 288 155 288 155 258 131 c 0,35,36
 229 108 229 108 218 101 c 0,37,38
 197 90 197 90 184 122 c 0,39,40
 168 161 168 161 187 186 c 0,41,42
 188 188 188 188 189 190 c 0,43,44
 206 211 206 211 215 230 c 0,45,46
 225 254 225 254 240 258 c 0,47,48
 262 264 262 264 287 317 c 128,-1,49
 312 370 312 370 298 379 c 0,50,51
 286 385 286 385 234 325 c 128,-1,52
 182 265 182 265 127 192.5 c 128,-1,53
 72 120 72 120 67 114 c 0,54,55
 32 80 32 80 5 90 c 1,56,57
 1 113 1 113 28 151 c 0,58,59
 36 162 36 162 93 249.5 c 128,-1,60
 150 337 150 337 187 377 c 0,61,62
 237 430 237 430 264 447 c 128,-1,63
 291 464 291 464 352 476 c 0,64,65
 412 489 412 489 431 468 c 0,66,67
 453 442 453 442 447 395.5 c 128,-1,68
 441 349 441 349 408 298 c 0,69,70
 391 273 391 273 393.5 263.5 c 128,-1,71
 396 254 396 254 423 241 c 0,72,73
 426 239 426 239 429 236.5 c 128,-1,74
 432 234 432 234 434 232 c 128,-1,75
 436 230 436 230 437.5 226 c 128,-1,76
 439 222 439 222 440 220 c 128,-1,77
 441 218 441 218 442.5 213.5 c 128,-1,78
 444 209 444 209 444.5 207 c 128,-1,79
 445 205 445 205 446 200 c 128,-1,80
 447 195 447 195 447 193 c 0,81,82
 448 190 448 190 457.5 170 c 128,-1,83
 467 150 467 150 463 137 c 0,84,85
 460 127 460 127 447 112 c 0,86,87
 435 97 435 97 432 87 c 0,88,89
 429 80 429 80 430.5 75.5 c 128,-1,90
 432 71 432 71 433 67.5 c 128,-1,91
 434 64 434 64 439 62.5 c 128,-1,92
 444 61 444 61 447 60 c 128,-1,93
 450 59 450 59 456.5 59 c 128,-1,94
 463 59 463 59 466.5 59.5 c 128,-1,95
 470 60 470 60 476 60.5 c 128,-1,96
 482 61 482 61 485 61 c 0,97,98
 492 62 492 62 500 64 c 128,-1,99
 508 66 508 66 517 70.5 c 128,-1,100
 526 75 526 75 532 78.5 c 128,-1,101
 538 82 538 82 548.5 89 c 128,-1,102
 559 96 559 96 562.5 99 c 128,-1,103
 566 102 566 102 577 110.5 c 128,-1,104
 588 119 588 119 590 120 c 0,0,1
EndSplineSet
Substitution2: "'aalt' Access All Alternates lookup 0 subtable" z.alt1
EndChar

StartChar: braceleft
Encoding: 123 123 93
Width: 497
GlyphClass: 2
Flags: W
LayerCount: 2
Fore
SplineSet
316 -24 m 0,0,1
 317 -24 317 -24 344 -33 c 1,2,3
 333 -65 333 -65 314 -79.5 c 128,-1,4
 295 -94 295 -94 264 -96 c 0,5,6
 186 -102 186 -102 141 -54.5 c 128,-1,7
 96 -7 96 -7 110 69 c 0,8,9
 113 85 113 85 122 116.5 c 128,-1,10
 131 148 131 148 134 162 c 0,11,12
 135 169 135 169 135 177.5 c 128,-1,13
 135 186 135 186 134.5 198 c 128,-1,14
 134 210 134 210 134 217 c 1,15,16
 127 216 127 216 114 214.5 c 128,-1,17
 101 213 101 213 96 213 c 128,-1,18
 91 213 91 213 79 214 c 0,19,20
 42 220 42 220 36 233 c 0,21,22
 33 239 33 239 34 247.5 c 128,-1,23
 35 256 35 256 39 264.5 c 128,-1,24
 43 273 43 273 47 279 c 0,25,26
 76 312 76 312 110 332 c 0,27,28
 135 347 135 347 147.5 369 c 128,-1,29
 160 391 160 391 167 424 c 0,30,31
 191 531 191 531 212 581 c 0,32,33
 243 653 243 653 309.5 686.5 c 128,-1,34
 376 720 376 720 463 707 c 1,35,36
 462 702 462 702 459.5 693.5 c 128,-1,37
 457 685 457 685 454.5 679.5 c 128,-1,38
 452 674 452 674 448 671 c 0,39,40
 429 658 429 658 369 629 c 0,41,42
 273 582 273 582 251 457 c 0,43,44
 247 436 247 436 237 389.5 c 128,-1,45
 227 343 227 343 223 318 c 0,46,47
 221 304 221 304 221 282 c 128,-1,48
 221 260 221 260 221 246 c 0,49,50
 219 196 219 196 218 188 c 0,51,52
 215 173 215 173 204.5 121 c 128,-1,53
 194 69 194 69 191 40 c 0,54,55
 185 -9 185 -9 203.5 -25 c 128,-1,56
 222 -41 222 -41 271 -30 c 0,57,58
 296 -25 296 -25 316 -24 c 0,0,1
EndSplineSet
EndChar

StartChar: bar
Encoding: 124 124 94
Width: 109
GlyphClass: 2
Flags: W
LayerCount: 2
Fore
SplineSet
57 0 m 0,0,1
 54 0 54 0 48 0 c 128,-1,2
 42 0 42 0 39 0 c 1,3,4
 39 7 39 7 37 22 c 128,-1,5
 35 37 35 37 34 48.5 c 128,-1,6
 33 60 33 60 33 70 c 0,7,8
 42 318 42 318 48 421 c 0,9,10
 54 514 54 514 35 615 c 0,11,12
 31 639 31 639 60 678 c 1,13,14
 72 645 72 645 74 608 c 128,-1,15
 76 571 76 571 73 525 c 128,-1,16
 70 479 70 479 71 455 c 0,17,18
 74 385 74 385 69 230 c 0,19,20
 68 213 68 213 57 0 c 0,0,1
EndSplineSet
EndChar

StartChar: braceright
Encoding: 125 125 95
Width: 462
GlyphClass: 2
Flags: W
LayerCount: 2
Fore
SplineSet
171 629 m 0,0,1
 167 630 167 630 162 631 c 128,-1,2
 157 632 157 632 150.5 633.5 c 128,-1,3
 144 635 144 635 138 636 c 1,4,5
 144 651 144 651 153 662 c 128,-1,6
 162 673 162 673 168 679 c 128,-1,7
 174 685 174 685 188.5 689.5 c 128,-1,8
 203 694 203 694 207.5 694.5 c 128,-1,9
 212 695 212 695 230 696.5 c 128,-1,10
 248 698 248 698 250 699 c 0,11,12
 296 673 296 673 323.5 639.5 c 128,-1,13
 351 606 351 606 359.5 566.5 c 128,-1,14
 368 527 368 527 366 487 c 128,-1,15
 364 447 364 447 351 398 c 0,16,17
 348 383 348 383 345 366.5 c 128,-1,18
 342 350 342 350 339 327.5 c 128,-1,19
 336 305 336 305 335 293 c 1,20,21
 396 269 396 269 400 267 c 0,22,23
 423 257 423 257 426.5 239 c 128,-1,24
 430 221 430 221 410 214 c 256,25,26
 390 207 390 207 375 195.5 c 128,-1,27
 360 184 360 184 351 173 c 128,-1,28
 342 162 342 162 334.5 143 c 128,-1,29
 327 124 327 124 324 112 c 128,-1,30
 321 100 321 100 316 78 c 0,31,32
 314 70 314 70 313 66 c 0,33,34
 287 -46 287 -46 192 -95 c 0,35,36
 76 -155 76 -155 33 -42 c 1,37,38
 39 -41 39 -41 50.5 -38.5 c 128,-1,39
 62 -36 62 -36 70.5 -34.5 c 128,-1,40
 79 -33 79 -33 86 -34 c 0,41,42
 142 -39 142 -39 169 -25.5 c 128,-1,43
 196 -12 196 -12 217 35 c 0,44,45
 236 74 236 74 260 155 c 0,46,47
 262 163 262 163 286 267 c 1,48,49
 265 289 265 289 256.5 319 c 128,-1,50
 248 349 248 349 248.5 372 c 128,-1,51
 249 395 249 395 254 433 c 0,52,53
 258 465 258 465 265 491 c 0,54,55
 281 547 281 547 255.5 581.5 c 128,-1,56
 230 616 230 616 171 629 c 0,0,1
EndSplineSet
EndChar

StartChar: asciitilde
Encoding: 126 126 96
Width: 524
GlyphClass: 2
Flags: W
LayerCount: 2
Fore
SplineSet
36 445 m 0,0,1
 49 455 49 455 67.5 476.5 c 128,-1,2
 86 498 86 498 99.5 512.5 c 128,-1,3
 113 527 113 527 137 537.5 c 128,-1,4
 161 548 161 548 189 546 c 0,5,6
 196 543 196 543 206 539.5 c 128,-1,7
 216 536 216 536 223 533 c 128,-1,8
 230 530 230 530 239.5 526.5 c 128,-1,9
 249 523 249 523 256 519 c 0,10,11
 271 511 271 511 324 473 c 0,12,13
 373 438 373 438 409 482 c 0,14,15
 411 484 411 484 413.5 488 c 128,-1,16
 416 492 416 492 418 495 c 128,-1,17
 420 498 420 498 422.5 501 c 128,-1,18
 425 504 425 504 428 505 c 0,19,20
 434 506 434 506 489 514 c 1,21,22
 488 504 488 504 488.5 495 c 128,-1,23
 489 486 489 486 488 476.5 c 128,-1,24
 487 467 487 467 483 460 c 0,25,26
 461 419 461 419 445.5 399.5 c 128,-1,27
 430 380 430 380 408 372 c 128,-1,28
 386 364 386 364 361.5 369.5 c 128,-1,29
 337 375 337 375 293 392 c 0,30,31
 270 401 270 401 229 429 c 0,32,33
 186 458 186 458 163.5 457 c 128,-1,34
 141 456 141 456 104 424 c 0,35,36
 103 423 103 423 95 414.5 c 128,-1,37
 87 406 87 406 82 404 c 0,38,39
 78 403 78 403 37 397 c 1,40,41
 37 402 37 402 35 415 c 128,-1,42
 33 428 33 428 33 433 c 128,-1,43
 33 438 33 438 36 445 c 0,0,1
EndSplineSet
EndChar

